<svg xmlns="http://www.w3.org/2000/svg" viewBox="0 0 62.29 62.16"><defs><style>.cls-1{fill:#fff;}</style></defs><g id="Capa_2" data-name="Capa 2"><g id="Capa_3" data-name="Capa 3"><path class="cls-1" d="M62.29,31.15A31.15,31.15,0,1,0,24.06,61.48c0-7.91.06-15.36.06-23.21H19.07V28.07h5.06c0-1.7-.06-3.59,0-5.17.2-6.18,3.72-9.61,9.87-9.73,2.64-.05,5.28,0,8.07,0v8.62H37.93c-3,0-3.84.28-3.89,3.26,0,.86,0,1.91,0,3h8.27c0,3.26,0,6.91,0,10.17H34c0,12.18,0,19.44,0,23.9A31.14,31.14,0,0,0,62.29,31.15Z"/></g></g></svg>