<svg xmlns="http://www.w3.org/2000/svg" viewBox="0 0 61.93 61.93"><defs><style>.cls-1{fill:#fff;}</style></defs><g id="Capa_2" data-name="Capa 2"><g id="Capa_3" data-name="Capa 3"><path class="cls-1" d="M39.28,16.64q-8.1,0-16.19,0a6.24,6.24,0,0,0-6.53,6.52c0,2.7,0,5.4,0,8.1s0,5.4,0,8.1a6.25,6.25,0,0,0,6.49,6.56q8.15,0,16.31,0a6.23,6.23,0,0,0,6.47-6.46c0-5.44,0-10.88,0-16.32A6.24,6.24,0,0,0,39.28,16.64Zm-8.16,24a9,9,0,0,1-9-9.34,9.18,9.18,0,0,1,9.18-9.15,9.33,9.33,0,0,1,9.24,9.29A9.15,9.15,0,0,1,31.12,40.68Zm9.65-16.24a2.3,2.3,0,0,1-2.33-2.32,2.27,2.27,0,0,1,4.54,0A2.29,2.29,0,0,1,40.77,24.44Z"/><path class="cls-1" d="M31.17,26.09a5.39,5.39,0,1,0,5.42,5.45A5.3,5.3,0,0,0,31.17,26.09Z"/><path class="cls-1" d="M31,0a31,31,0,1,0,31,31A31,31,0,0,0,31,0ZM49.24,39.62a9.49,9.49,0,0,1-9.67,9.7q-8.59.06-17.2,0a9.56,9.56,0,0,1-9.14-8.24,14.89,14.89,0,0,1-.11-1.64c0-5.43,0-10.87,0-16.3,0-5.71,4-9.73,9.63-9.83s11.21-.13,16.81-.08a9.53,9.53,0,0,1,9.68,9.84c0,2.74,0,5.48,0,8.22S49.27,36.84,49.24,39.62Z"/></g></g></svg>