<svg xmlns="http://www.w3.org/2000/svg" viewBox="0 0 61.93 61.93"><defs><style>.cls-1{fill:#fff;}</style></defs><g id="Capa_2" data-name="Capa 2"><g id="Capa_3" data-name="Capa 3"><path class="cls-1" d="M31,0a31,31,0,1,0,31,31A31,31,0,0,0,31,0ZM22.13,49.14H15.25V25.7h6.88ZM18.58,22.23A4.27,4.27,0,1,1,22.89,18,4.26,4.26,0,0,1,18.58,22.23ZM49.65,49.09H42.89c0-.48-.07-1-.08-1.45,0-3.69,0-7.38,0-11.07a4.52,4.52,0,0,0-2.69-4.41,4.65,4.65,0,0,0-5,.72,4.8,4.8,0,0,0-1.83,3.95c0,3.56,0,7.11,0,10.67v1.59H26.41V25.66h6.78v2.58c.2,0,.33.1.36.07,2.29-2.59,5.26-3.2,8.55-3,3.71.24,7.31,3,7.48,6.59C49.85,37.59,49.65,43.28,49.65,49.09Z"/></g></g></svg>