<svg xmlns="http://www.w3.org/2000/svg" viewBox="0 0 36.33 36.33"><defs><style>.cls-1{fill:none;stroke:#f4a276;stroke-miterlimit:10;stroke-width:2.52px;}.cls-2{fill:#f4a276;}</style></defs><g id="Capa_2" data-name="Capa 2"><g id="Capa_3" data-name="Capa 3"><rect class="cls-1" x="1.26" y="1.26" width="33.81" height="33.81" rx="5.15"/><path class="cls-2" d="M26.1,22.42c-1.36,0-2-.42-2-1.27H20.34a4.67,4.67,0,0,0,1.4,3.44,5.9,5.9,0,0,0,4.36,1.56,5.71,5.71,0,0,0,4.12-1.4,4.18,4.18,0,0,0,1.26-3.13,4,4,0,0,0-1.23-3,6.83,6.83,0,0,0-3.63-1.58c-1.41-.24-2.11-.51-2.11-.82s.47-.57,1.4-.57a2.22,2.22,0,0,1,1.15.22.54.54,0,0,1,.25.53H31a4.11,4.11,0,0,0-1.49-3.25A5.56,5.56,0,0,0,25.91,12a5.38,5.38,0,0,0-3.65,1.27,3.84,3.84,0,0,0-1.48,3c0,2.13,1.65,3.58,4.93,4.35a11.94,11.94,0,0,1,1.46.4c.39.16.58.36.58.62C27.75,22.16,27.2,22.42,26.1,22.42Z"/><path class="cls-2" d="M10.14,19.59h2.57a5.66,5.66,0,0,0,4.15-1.73,5.63,5.63,0,0,0,1.71-4.13,5.64,5.64,0,0,0-1.71-4.14,5.68,5.68,0,0,0-4.15-1.71H6.42V25.79h3.72Zm0-8h2.57a2.13,2.13,0,0,1,1.51,3.63,2,2,0,0,1-1.51.63H10.14Z"/></g></g></svg>