<svg xmlns="http://www.w3.org/2000/svg" viewBox="0 0 60.22 60.22"><defs><style>.cls-1{fill:#fff;}</style></defs><g id="Capa_2" data-name="Capa 2"><g id="Capa_3" data-name="Capa 3"><path class="cls-1" d="M30.11,0A30.11,30.11,0,1,0,60.22,30.11,30.11,30.11,0,0,0,30.11,0ZM46.66,42.54a5,5,0,0,1-5,4.23,27.65,27.65,0,0,1-17.36-6,27.77,27.77,0,0,1-10.15-16,27.09,27.09,0,0,1-.7-6.22,5.09,5.09,0,0,1,4.93-5.15c.43,0,.86,0,1.3,0h1.57A.66.66,0,0,1,22,14c.8,2.42,1.61,4.83,2.41,7.24a.65.65,0,0,1-.32.91l-3,2c-.53.35-.6.55-.36,1.14a26.12,26.12,0,0,0,7.14,9.84,24.89,24.89,0,0,0,7.1,4.42c.64.26.8.2,1.19-.38l2-2.94c.31-.46.5-.52,1-.35l7.15,2.38c.29.1.53.25.53.57A25.61,25.61,0,0,1,46.66,42.54Z"/></g></g></svg>