<svg xmlns="http://www.w3.org/2000/svg" viewBox="0 0 1603.39 425.61"><defs><style>.cls-1{fill:#fff;}.cls-2{fill:#f4a276;}</style></defs><g id="Capa_2" data-name="Capa 2"><g id="Capa_3" data-name="Capa 3"><path class="cls-1" d="M82.87,240.23c-3.64,0-8-.16-13-.47s-10.93-.83-17.64-1.53a94.24,94.24,0,0,1-20.09-4.07c-12.69-4.23-16.45-11.71-17.37-17.25l0-.15a23.89,23.89,0,0,1,5-18.5,52.16,52.16,0,0,1,9-9.2A15.73,15.73,0,0,0,32,184.49a12.9,12.9,0,0,0,1.47-6.37V76.55A12.86,12.86,0,0,0,32,70.17a15.7,15.7,0,0,0-3.33-4.57,51.84,51.84,0,0,1-9-9.2,23.82,23.82,0,0,1-5-18.49c2.58-16.36,23.92-19.08,35.38-20.55,15.46-2,37.42-2.93,67.13-2.93,38.09.22,69.35,7,93,20,26.09,14.42,39.88,36.45,39.88,63.71,0,26.29-12.81,47.3-37.05,60.75-20.42,11.33-47.68,17.88-81.11,19.48a15.63,15.63,0,0,0,1.43,6.89c1.45,2.89,2.44,3.67,2.48,3.7a48.79,48.79,0,0,1,9.28,9.27,25.29,25.29,0,0,1,5.42,17.39v.21l0,.21c-1.13,10.66-9.64,17.74-25.3,21.05C115.28,239.21,101.42,240.23,82.87,240.23Zm49.18-110.32.57,0c8.24,0,11.5-2.77,13.41-5.19s5.32-9.3,5.32-26.58v-.29c0-33.57-10.51-35.59-14.68-35.9-.92,0-2.39.15-2.82.71h0s-1.9,3-1.9,13.87v51.52A14.3,14.3,0,0,0,132.05,129.91Z"/><path class="cls-1" d="M117.22,28.87q53.6.3,86,18.21t32.42,51.08q0,31.7-29.61,48.13T125.21,164.2q-7.39,0-7.7,5v8.88a29.94,29.94,0,0,0,3,13.62,24.47,24.47,0,0,0,6.66,8.74,34,34,0,0,1,6.51,6.51,10.91,10.91,0,0,1,2.52,7.56Q135,225.8,82.87,225.8q-5,0-12.14-.45t-17-1.48a80.83,80.83,0,0,1-17-3.4q-7.11-2.37-7.7-5.92A9.73,9.73,0,0,1,31.19,207a38.37,38.37,0,0,1,6.52-6.66,29.46,29.46,0,0,0,7-8.88,27.21,27.21,0,0,0,3.25-13.33V76.55a27.21,27.21,0,0,0-3.25-13.33,29.46,29.46,0,0,0-7-8.88,37.74,37.74,0,0,1-6.52-6.67A9.7,9.7,0,0,1,29,40.12q1.77-11.25,88.25-11.25m15.4,115.49q16.27,0,24.73-10.66t8.44-35.54v-.29q0-48.57-28.73-50.34-9.76,0-14.66,6.36t-4.89,22.66v51.52q0,16.29,15.11,16.29M117.3,0h-.08C86.89,0,64.34,1,48.27,3.05,38.53,4.29,31.2,5.9,25.19,8.1,6.36,15,1.61,28.32.46,35.62v.08A38.63,38.63,0,0,0,8.19,65.12h0a66.73,66.73,0,0,0,10.6,11,3.77,3.77,0,0,1,.26.41V178.09l-.25.41a66.15,66.15,0,0,0-10.59,11A38.56,38.56,0,0,0,.44,219l0,.15,0,.16C1.78,227,7,241,27.55,247.86a108.22,108.22,0,0,0,23.16,4.73c6.87.72,13,1.25,18.21,1.58,5.4.33,10,.5,14,.5,19.56,0,34.39-1.13,45.34-3.44,7.72-1.63,14-3.94,19.15-7.08,10.14-6.14,16.36-15.58,17.52-26.58l.05-.42,0-.43a39.35,39.35,0,0,0-7.49-26.07c24.72-3.24,45.37-9.56,62.6-19.12,14.21-7.89,25.24-18.11,32.78-30.36,7.76-12.6,11.69-27.07,11.69-43,0-16.56-4.24-31.65-12.6-44.82-8-12.61-19.69-23.21-34.73-31.53C191.42,7.56,157.83.23,117.38,0Z"/><path class="cls-1" d="M329.25,242c-27.94,0-52.11-8-71.83-23.92-20.67-16.62-31.15-38.34-31.15-64.55S236.75,105.62,257.42,89c19.73-15.87,43.9-23.92,71.83-23.92,27.74,0,51.86,8.1,71.69,24.07,20.76,16.74,31.29,38.4,31.29,64.4s-10.53,47.67-31.29,64.4C381.11,233.91,357,242,329.25,242ZM318.93,113.67c-.68,4.92-.68,16.61,5.67,42,3.55,14.56,8,25.93,13.27,33.87a26.42,26.42,0,0,0,3.12,4c.65-4.77.61-16.28-6.14-41.56l0-.11C328.13,125.89,322,116.77,318.93,113.67Z"/><path class="cls-1" d="M329.25,79.51q36.72,0,62.63,20.88t25.91,53.15q0,32.28-25.91,53.16t-62.63,20.88q-37,0-62.78-20.73t-25.76-53.31q0-32.56,25.76-53.3t62.78-20.73m13.22,129.83a13.93,13.93,0,0,0,3.36-.42q18.06-4.14,3-60.71-13-50.46-31.51-50.47a14.56,14.56,0,0,0-3.43.42q-17.48,4.16-3.26,61,5.93,24.29,15.25,38.35,7.85,11.82,16.63,11.82M329.25,50.64c-31.31,0-58.52,9.12-80.88,27.1-23.9,19.24-36.53,45.45-36.53,75.8s12.63,56.57,36.53,75.8c22.35,18,49.57,27.1,80.88,27.1,31.12,0,58.28-9.17,80.74-27.26,24-19.33,36.67-45.49,36.67-75.64S434,97.24,410,77.91c-22.47-18.1-49.63-27.27-80.75-27.27Z"/><path class="cls-1" d="M475.84,240.53c-3.73,0-7.86-.1-12.63-.31s-10.55-.68-17.32-1.4a82.2,82.2,0,0,1-20.07-4.37c-12.13-4.47-15.74-11.84-16.64-17.24l0-.16a23.89,23.89,0,0,1,5-18.5,48.45,48.45,0,0,1,9.27-9.27,14,14,0,0,0,3.05-4.2,12.9,12.9,0,0,0,1.47-6.37v-30.2c0-8.29-.85-12.52-1.44-14.46a26.22,26.22,0,0,1-13.66-9.4,20.77,20.77,0,0,1-2.14-21.92c2.06-4.29,6.57-10,16.37-13,12-3.93,21-7.33,26.93-10.11a122.61,122.61,0,0,0,19.53-12.06l.19-.13.19-.13c6.26-4.29,12-6.37,17.62-6.37,8.72,0,16,4.58,20.45,12.67,12.45-10.89,27.65-16.52,45-16.52,14.84,0,27.76,4.14,38.4,12.31a50,50,0,0,1,19.45,34.69c1.66,12.46-1.46,24.09-9.27,34.55-8,10.73-20.15,17-35.1,18.06-1.85.13-3.66.19-5.4.19-12.5,0-22.71-3.4-30.35-10.12A40.39,40.39,0,0,1,525,134.15a82,82,0,0,0-2.43,21.28v23.28a15.13,15.13,0,0,0,1.37,6.89,11,11,0,0,0,2.54,3.67,45.66,45.66,0,0,1,9.36,9.58,25.72,25.72,0,0,1,5,17.08c-.59,7.47-5.29,17.21-24.37,21.44C507,239.5,493.64,240.53,475.84,240.53Z"/><path class="cls-1" d="M557,71.51q17.46,0,29.61,9.33a35.25,35.25,0,0,1,13.92,25q1.77,13-6.52,24.14t-24.57,12.29c-1.5.11-3,.16-4.36.16q-13.39,0-20.82-6.53a25.24,25.24,0,0,1-8.88-19.1q-.3-8.58,9.48-19.54,4.44-4.45,1.77-5.33a18.64,18.64,0,0,0-2.66-.6q-.8-.06-1.59-.06-13.8,0-23.88,19.61a93.67,93.67,0,0,0-10.36,44.71v23.1a29.08,29.08,0,0,0,3,13.48,24.7,24.7,0,0,0,6.66,8.59,30.46,30.46,0,0,1,6.37,6.51,11.34,11.34,0,0,1,2.37,7.55q-.9,11.26-50.64,11.25c-3.56,0-7.55-.1-12-.29s-9.92-.64-16.43-1.33a69.23,69.23,0,0,1-16.59-3.56q-6.81-2.5-7.4-6.07a9.72,9.72,0,0,1,2.22-7.55,33.79,33.79,0,0,1,6.52-6.51,27.61,27.61,0,0,0,7-8.74,27.21,27.21,0,0,0,3.25-13.33v-30.2q0-26.06-10.07-27.84-5.32-1.19-7.84-4.59a6.46,6.46,0,0,1-.74-7.11q1.77-3.69,7.7-5.48,18.94-6.21,28.72-10.8a136.59,136.59,0,0,0,21.92-13.48q5.61-3.84,9.47-3.85,5.63,0,8.44,6.52t5.48,19.54a17.61,17.61,0,0,0,.59,3Q523.81,71.52,557,71.51m0-28.87a81.78,81.78,0,0,0-42.85,11.51,36.34,36.34,0,0,0-22.6-7.66c-8.59,0-17,2.91-25.77,8.89l-.38.26-.37.27a108.74,108.74,0,0,1-17.14,10.64c-3.69,1.74-11.05,4.78-25.17,9.42-14.7,4.54-21.71,13.64-25,20.51a35.24,35.24,0,0,0,3.53,36.73h0A39.28,39.28,0,0,0,413.4,144c.06,1.25.11,2.74.11,4.49v30.17l-.05.07a63.21,63.21,0,0,0-10.8,11.07,38.64,38.64,0,0,0-7.77,29.45l0,.15,0,.15c1.25,7.51,6.27,21.19,25.9,28.43a96.49,96.49,0,0,0,23.53,5.17c7.16.76,13.11,1.24,18.18,1.47s9.34.32,13.29.32c18.87,0,33.19-1.14,43.79-3.5a57.4,57.4,0,0,0,19-7.42c9.72-6.27,15.79-16.08,16.65-26.93V217a39.94,39.94,0,0,0-7.71-26.58A60.06,60.06,0,0,0,537,179.21c0-.14,0-.3,0-.5V165.42c8.14,3.92,17.53,5.9,28.08,5.9,2.08,0,4.24-.08,6.41-.24,24.36-1.76,38.27-13.92,45.65-23.81a60.72,60.72,0,0,0,12-45,64.07,64.07,0,0,0-25-44.34C591,47.79,575.08,42.64,557,42.64Z"/><path class="cls-1" d="M688.08,243.66c-17.85,0-32.8-4.41-44.41-13.13-14.78-11.08-22.4-27.46-22.65-48.69v-57.1a20.51,20.51,0,0,1-20.14-20.36V97.57a20.49,20.49,0,0,1,19.71-20.34c16.58-1.24,36.79-18,58.48-48.44l.08-.12a22,22,0,0,1,18.19-9.2,22.67,22.67,0,0,1,15.11,5.62,21.26,21.26,0,0,1,7.32,16.22V77.22h9.85A20.5,20.5,0,0,1,750,97.57v6.81a20.5,20.5,0,0,1-20.36,20.36h-9.85v33.84c0,1.48,0,4.18-.15,8.77-.12,5-.06,7.1,0,7.87.1,1.8.25,4.35.44,7.67a20,20,0,0,0,.36,3.12c.29.69.6,1.42.94,2.17a23,23,0,0,1,5.11-.59,21.11,21.11,0,0,1,17.37,9.15c6,8.31,5.7,18.25-.81,25.95l-.23.26c-10.37,11.66-25,18.45-43.5,20.18C695.42,243.49,691.66,243.66,688.08,243.66Z"/><path class="cls-1" d="M697.34,33.9A8.29,8.29,0,0,1,703,36a6.76,6.76,0,0,1,2.37,5.33V91.65h24.28a6.07,6.07,0,0,1,5.92,5.92v6.81a6.07,6.07,0,0,1-5.92,5.93H705.34v48.27q0,2.07-.15,8.44t0,9q.15,2.65.44,7.7A24.51,24.51,0,0,0,707,191.3c.69,1.68,1.52,3.55,2.51,5.63a9.15,9.15,0,0,0,4.15,4.44,17,17,0,0,0,6.22,1.63,10,10,0,0,0,4.14-.6,8.8,8.8,0,0,1,2.46-.37,6.83,6.83,0,0,1,5.69,3.19q3.11,4.29-.15,8.14-11.85,13.33-34.06,15.4c-3.41.31-6.7.47-9.85.47q-22.1,0-35.75-10.24-16.59-12.44-16.88-37.32V110.31H621.24a6.08,6.08,0,0,1-5.93-5.93V97.57a6.08,6.08,0,0,1,5.93-5.92q32.26-2.07,69.59-54.49a7.62,7.62,0,0,1,6.51-3.26m0-28.87a36.51,36.51,0,0,0-29.86,15.16l-.09.11-.08.12c-26.59,37.35-42.78,41.94-47.59,42.39a35,35,0,0,0-33.28,34.76v6.81A34.54,34.54,0,0,0,596.68,129a35.09,35.09,0,0,0,9.9,7V182c.38,32.32,15.67,50.51,28.43,60.07,14.17,10.63,32,16,53.07,16,4,0,8.22-.2,12.49-.59,22.31-2.09,40.12-10.48,53-25l.23-.26L754,232a35,35,0,0,0,8.49-22.08,35.63,35.63,0,0,0-7-21.64A36.06,36.06,0,0,0,734,174c0-.75,0-2.55,0-6.26.11-4.73.16-7.54.16-9.13V138.87a35,35,0,0,0,30.2-34.49V97.57a35,35,0,0,0-30.2-34.49V41.31a35.47,35.47,0,0,0-12.21-27l0,0,0,0A36.93,36.93,0,0,0,697.34,5Z"/><path class="cls-1" d="M800.76,242.08c-17.7,0-33.42-4.39-46.74-13.07-17.36-11.3-26-27.84-24.9-47.81a52.75,52.75,0,0,1,7-23.87,61.59,61.59,0,0,1,12.67-15.64,59.24,59.24,0,0,1,13.47-8.28,34.18,34.18,0,0,1-8.92-11.18c-6.33-12.31-4.73-25.28,4.51-36.5,12.36-14.93,35.38-22.83,70.4-24.2,2.3-.09,4.58-.13,6.79-.13,27.42,0,49.18,6.79,64.7,20.2,15.79,13.63,24.86,33.76,27,59.82l0,.33c.18,3.09.42,6.33.71,9.63s.6,7,.9,10.8.73,8.68,1.32,14.89l.06.67v.68a15.85,15.85,0,0,0,1.43,7.16c1.44,2.89,2.44,3.66,2.48,3.69a45.66,45.66,0,0,1,9.36,9.58,25.77,25.77,0,0,1,5,17.08c-.59,7.49-5.36,17.25-24.73,21.46-9.74,2.11-23.31,3.14-41.49,3.14a50.27,50.27,0,0,1-21.33-4.31,41.11,41.11,0,0,1-14.36-10.59,46.51,46.51,0,0,1-11.82,9l-.16.09a61.23,61.23,0,0,1-23.58,7C807.2,241.94,803.92,242.08,800.76,242.08Zm33-80.29c-.92.58-1.58,1-2,1.35l-.23.18-.25.16c-6.39,4.26-8.32,8.84-6.86,16.33l0,.29a12.15,12.15,0,0,0,3.13,5.82c.8.9,2.47,1.39,5,1.46h.14q.76,0,1.5.09c-.14-2.67-.21-5.55-.21-8.67Zm-7.14-54.51a2.15,2.15,0,0,0-1.28.46,13,13,0,0,0-3.24,3.75q-1.14,2-2.36,4c6.43-2.22,8.4-4.44,8.91-5.18a4,4,0,0,0,.65-1.27h0a2.15,2.15,0,0,0-2.68-1.75Z"/><path class="cls-1" d="M835.05,75.83q71.9,0,77.28,66.75.3,5,.74,10.07c.3,3.36.6,6.92.89,10.66s.74,8.79,1.33,15.11a30,30,0,0,0,3,13.62,24.47,24.47,0,0,0,6.66,8.74,30.7,30.7,0,0,1,6.37,6.51,11.27,11.27,0,0,1,2.36,7.55q-.89,11.26-51.82,11.25a36,36,0,0,1-15.25-3,26.21,26.21,0,0,1-9.77-7.25,31.34,31.34,0,0,1-5.33-11.11A73.42,73.42,0,0,1,849,192.19a132.5,132.5,0,0,1-.59-13.48l-.59-46.49a17.9,17.9,0,0,1-5.19,7.26,60.63,60.63,0,0,1-9.77,6.21,87.36,87.36,0,0,0-9.62,5.78q-16.89,11.25-13,31.09a26.16,26.16,0,0,0,6.51,12.88q5.33,6.08,15.4,6.37,7.7.3,7.11,6.22-.6,7.71-11.85,13.92a46.81,46.81,0,0,1-18.06,5.33q-4.37.38-8.52.37-22.38,0-38.86-10.74Q742.36,204.19,743.54,182a38.15,38.15,0,0,1,5-17.32,47,47,0,0,1,9.62-12q5.19-4.44,16.59-8.88t18.06-6.37q6.66-1.92,21.47-5.48l3.56-.88q16.88-4.15,22.65-12.59t1-17.32a17.23,17.23,0,0,0-15.4-8.3,16.89,16.89,0,0,0-9.78,3.56,27.45,27.45,0,0,0-6.81,7.85q-2.66,4.59-5.62,9.32a28.84,28.84,0,0,1-8,8.29,22.68,22.68,0,0,1-12.44,3.86c-.41,0-.83,0-1.23,0q-10.9,0-16.09-10.1Q760.7,105,769,94.91q14.22-17.18,59.82-19,3.18-.12,6.23-.12m0-28.87v0c-2.4,0-4.87,0-7.33.15-39.39,1.53-65.86,11.14-81,29.39l0,0,0,0a48.84,48.84,0,0,0-11.17,24.68,46.51,46.51,0,0,0,5,27.6c.12.23.23.46.35.68-.5.4-1,.81-1.47,1.22A75.7,75.7,0,0,0,723.69,150a66.86,66.86,0,0,0-9,30.22v.2c-1.34,25,9.82,46.6,31.43,60.67,15.7,10.23,34.08,15.42,54.62,15.42,3.57,0,7.26-.16,11-.48h.17A75.79,75.79,0,0,0,841,247.4l.17-.09.17-.1c1.6-.88,3.11-1.79,4.53-2.71a62.8,62.8,0,0,0,8.59,4.82,64.65,64.65,0,0,0,27.4,5.64c19.22,0,33.79-1.13,44.55-3.47,7.7-1.67,13.94-4.05,19.09-7.3,9.91-6.24,16.1-16.11,17-27.08V217a40,40,0,0,0-7.72-26.58,59.8,59.8,0,0,0-10.52-11.22,7.33,7.33,0,0,1,0-.8v-1.35l-.12-1.35c-.58-6.15-1-11.09-1.3-14.68-.3-3.83-.61-7.51-.91-10.92-.28-3.16-.51-6.26-.68-9.2l0-.33,0-.33c-2.43-30-13.17-53.38-31.92-69.58C891,54.94,866,47,835.06,47Z"/><path class="cls-2" d="M119.3,169.24v8.88a30.07,30.07,0,0,0,3,13.62,24.38,24.38,0,0,0,6.66,8.74,34.36,34.36,0,0,1,6.52,6.51,11,11,0,0,1,2.52,7.56q-1.19,11.25-53.31,11.25-5,0-12.14-.45t-17-1.48a80.73,80.73,0,0,1-17-3.4q-7.11-2.37-7.7-5.92A9.73,9.73,0,0,1,33,207a38,38,0,0,1,6.51-6.66,29.15,29.15,0,0,0,7-8.88,27.21,27.21,0,0,0,3.26-13.33V76.55a27.21,27.21,0,0,0-3.26-13.33,29.15,29.15,0,0,0-7-8.88A37.33,37.33,0,0,1,33,47.67a9.7,9.7,0,0,1-2.22-7.55Q32.53,28.87,119,28.87q53.61.3,86,18.21t32.43,51.08q0,31.7-29.62,48.13T127,164.2Q119.59,164.2,119.3,169.24Zm48.27-71.08v-.29q0-48.57-28.72-50.34-9.78,0-14.66,6.36T119.3,76.55v51.52q0,16.29,15.1,16.29,16.29,0,24.73-10.66T167.57,98.16Z"/><path class="cls-2" d="M331,79.51q36.7,0,62.63,20.88t25.91,53.15q0,32.28-25.91,53.16T331,227.58q-37,0-62.79-20.73t-25.76-53.31q0-32.56,25.76-53.3T331,79.51Zm16.58,129.41q18.06-4.14,3-60.71-14.22-55.08-34.94-50.05-17.47,4.16-3.26,61,5.92,24.29,15.25,38.35T347.62,208.92Z"/><path class="cls-2" d="M602.3,105.86q1.77,13-6.52,24.14T571.2,142.29q-16.59,1.19-25.17-6.37a25.2,25.2,0,0,1-8.88-19.1q-.3-8.58,9.47-19.54,4.44-4.45,1.78-5.33a18.51,18.51,0,0,0-2.67-.6q-14.81-1.17-25.46,19.55a93.68,93.68,0,0,0-10.37,44.71v23.1a29.2,29.2,0,0,0,3,13.48,24.6,24.6,0,0,0,6.67,8.59,30.42,30.42,0,0,1,6.36,6.51,11.23,11.23,0,0,1,2.37,7.55q-.88,11.26-50.64,11.25-5.33,0-12-.29t-16.44-1.33a69.25,69.25,0,0,1-16.58-3.56q-6.81-2.5-7.4-6.07a9.72,9.72,0,0,1,2.22-7.55,33.46,33.46,0,0,1,6.51-6.51,29,29,0,0,0,10.22-22.07v-30.2q0-26.06-10.07-27.84-5.32-1.19-7.85-4.59a6.48,6.48,0,0,1-.74-7.11q1.78-3.69,7.7-5.48,18.94-6.21,28.73-10.8a137,137,0,0,0,21.91-13.48q5.63-3.84,9.48-3.85,5.63,0,8.44,6.52t5.48,19.54a17.61,17.61,0,0,0,.59,3q17.76-32.86,50.93-32.87,17.47,0,29.62,9.33T602.3,105.86Z"/><path class="cls-2" d="M707.12,91.65h24.29a6.08,6.08,0,0,1,5.92,5.92v6.81a6.08,6.08,0,0,1-5.92,5.93H707.12v48.27q0,2.07-.14,8.44t0,9q.13,2.65.44,7.7a24.56,24.56,0,0,0,1.33,7.55c.69,1.68,1.53,3.55,2.52,5.63a9.15,9.15,0,0,0,4.15,4.44,16.93,16.93,0,0,0,6.21,1.63,10.05,10.05,0,0,0,4.15-.6,6.87,6.87,0,0,1,8.14,2.82q3.12,4.29-.14,8.14-11.85,13.33-34.06,15.4-29,2.67-45.6-9.77t-16.88-37.32V110.31H623a6.08,6.08,0,0,1-5.92-5.93V97.57A6.08,6.08,0,0,1,623,91.65q32.28-2.07,69.59-54.49a7.63,7.63,0,0,1,6.52-3.26A8.27,8.27,0,0,1,704.75,36a6.76,6.76,0,0,1,2.37,5.33Z"/><path class="cls-2" d="M917.08,178.42A30.13,30.13,0,0,0,920,192a24.47,24.47,0,0,0,6.66,8.74,30.46,30.46,0,0,1,6.37,6.51,11.28,11.28,0,0,1,2.37,7.55q-.88,11.26-51.82,11.25a36,36,0,0,1-15.25-3,26.33,26.33,0,0,1-9.78-7.25,31.34,31.34,0,0,1-5.33-11.11,74.3,74.3,0,0,1-2.51-12.58,132.23,132.23,0,0,1-.6-13.48l-.59-46.49a17.78,17.78,0,0,1-5.18,7.26,60.63,60.63,0,0,1-9.77,6.21,87.68,87.68,0,0,0-9.63,5.78q-16.87,11.25-13,31.09a26.18,26.18,0,0,0,6.52,12.88q5.32,6.08,15.4,6.37,7.7.3,7.1,6.22-.59,7.71-11.84,13.92a46.81,46.81,0,0,1-18.07,5.33q-27.84,2.37-47.38-10.37T745.32,182a38,38,0,0,1,5-17.32,46.75,46.75,0,0,1,9.62-12q5.17-4.44,16.58-8.88t18.07-6.37q6.66-1.92,21.47-5.48l3.55-.88q16.88-4.15,22.66-12.59t1-17.32a17.22,17.22,0,0,0-15.4-8.3,16.86,16.86,0,0,0-9.77,3.56,27.3,27.3,0,0,0-6.81,7.85q-2.67,4.59-5.63,9.32a29,29,0,0,1-8,8.3,22.7,22.7,0,0,1-12.44,3.84q-11.85.6-17.32-10.06t2.81-20.73Q785,77.73,830.61,76q77.88-3,83.51,66.63.28,5,.74,10.07c.29,3.36.59,6.92.89,10.66S916.49,172.1,917.08,178.42Z"/><path class="cls-1" d="M1332.38,265a16.67,16.67,0,0,1-16-11.81,35.15,35.15,0,0,0-23.49-23.51,16.72,16.72,0,0,1-.8-31.66,40.15,40.15,0,0,0,24.21-24.6,16.73,16.73,0,0,1,31.53-.14,41.16,41.16,0,0,0,25,25,16.72,16.72,0,0,1,0,31.49A41.18,41.18,0,0,0,1348,254.19,16.58,16.58,0,0,1,1332.38,265Z"/><path class="cls-1" d="M1332.09,176.69a2.26,2.26,0,0,1,2.16,1.52A55.59,55.59,0,0,0,1368,211.85a2.3,2.3,0,0,1,0,4.33,55.59,55.59,0,0,0-33.46,32.93,2.24,2.24,0,0,1-2.13,1.48,2.27,2.27,0,0,1-2.2-1.63,49.66,49.66,0,0,0-33-33,2.29,2.29,0,0,1-.11-4.33,54.64,54.64,0,0,0,32.84-33.36,2.28,2.28,0,0,1,2.17-1.55m0-28.87h0a31.2,31.2,0,0,0-29.4,20.85,25.83,25.83,0,0,1-15.59,15.84,31.16,31.16,0,0,0,1.49,59,20.74,20.74,0,0,1,14,14,31.16,31.16,0,0,0,58.94,1.79,26.71,26.71,0,0,1,16.18-15.92,31.16,31.16,0,0,0,0-58.67,26.68,26.68,0,0,1-16.3-16.27,31.27,31.27,0,0,0-29.32-20.59Z"/><path class="cls-1" d="M936.05,409.7c-3.73,0-7.86-.1-12.62-.31s-10.63-.68-17.58-1.4a83.08,83.08,0,0,1-20.41-4.37c-12-4.42-15.66-11.69-16.61-17.08-.85-4.71-.9-13.74,8.06-22.1a82,82,0,0,0,8.23-9.28c.92-1.18,2.14-3.22,2.14-7.28v-54h-2.44a20.52,20.52,0,0,1-20.36-20.36v-6.81a20.58,20.58,0,0,1,15.88-19.85A61.76,61.76,0,0,1,878.68,233v-.2c.26-18.68,8.55-34.06,24-44.48,13.76-9.29,32.17-14.45,54.74-15.35h.13c1.56,0,3.13-.07,4.67-.07a129.75,129.75,0,0,1,35.57,4.76c14.16,4.05,24.21,10,30.74,18.23l.54.68.45.74a41,41,0,0,1,6.41,24.05c-.38,6.77-3.12,16.5-14,24.48a37.47,37.47,0,0,1-12.55,6l.62.59a20.2,20.2,0,0,1,6,14.35v6.81a20.5,20.5,0,0,1-20.36,20.36H985.13v54a15.13,15.13,0,0,0,1.37,6.89,11,11,0,0,0,2.54,3.67A45.66,45.66,0,0,1,998.4,368a25.72,25.72,0,0,1,5.05,17.08c-.86,10.91-9.3,18.12-25.09,21.47C968.45,408.68,954.61,409.7,936.05,409.7Z"/><path class="cls-1" d="M962.19,187.31a115,115,0,0,1,31.61,4.21q16.58,4.74,23.39,13.33a26.73,26.73,0,0,1,4.3,15.69q-.45,8-8.15,13.63-6.36,4.65-15.55,4.65a39.26,39.26,0,0,1-4-.21q-10.08-1.19-15.55-7.7a29.55,29.55,0,0,1-6.81-13.77,37.84,37.84,0,0,0-4.74-12.88q-3.24-5.35-9-5.35l-.6,0a10.47,10.47,0,0,0-9.48,6.36,29.59,29.59,0,0,0-3,13.18,49,49,0,0,0,3,16q3,8.59,12.29,17t23,9.33h12.73a6.08,6.08,0,0,1,5.93,5.92v6.81a6.08,6.08,0,0,1-5.93,5.93H970.7v68.4a29.08,29.08,0,0,0,3,13.48,24.56,24.56,0,0,0,6.66,8.58,30.74,30.74,0,0,1,6.37,6.52,11.28,11.28,0,0,1,2.37,7.55q-.88,11.26-53,11.25-5.32,0-12-.29t-16.74-1.33a69.62,69.62,0,0,1-16.87-3.56c-4.55-1.67-7-3.7-7.41-6.07-.59-3.15.64-6.17,3.7-9a95.07,95.07,0,0,0,9.78-11,25.52,25.52,0,0,0,5.18-16.14v-68.4H884.82a6.07,6.07,0,0,1-5.92-5.93v-6.81a6.07,6.07,0,0,1,5.92-5.92h16q-7.71-15.39-7.7-27.84.28-21,17.62-32.72T958,187.38c1.42,0,2.83-.07,4.23-.07m0-28.87c-1.69,0-3.41,0-5.11.08h-.26c-25.29,1-46.23,7-62.24,17.8a66.85,66.85,0,0,0-30.34,56.25v.4c0,1.85.08,3.71.23,5.6a35.77,35.77,0,0,0-4.21,3.6A34.53,34.53,0,0,0,850,266.74v6.81a35.08,35.08,0,0,0,22.8,32.66v41.23a63.12,63.12,0,0,1-5.8,6.45c-10.22,9.55-14.73,22.37-12.41,35.21,1.35,7.58,6.52,20.95,25.84,28.07a96.71,96.71,0,0,0,23.92,5.18c7.32.76,13.34,1.23,18.39,1.46s9.34.32,13.28.32c19.58,0,34.39-1.12,45.31-3.44,7.75-1.64,14-4,19.2-7.18,10.11-6.23,16.4-16.15,17.28-27.23v-.09a39.93,39.93,0,0,0-7.71-26.59,59.66,59.66,0,0,0-10.55-11.22c0-.14,0-.3,0-.5V308.12a35,35,0,0,0,30.79-34.57v-6.81a34.5,34.5,0,0,0-1-8.51c.36-.24.71-.5,1.06-.75,12.08-8.83,19.16-21.37,19.94-35.33a55.11,55.11,0,0,0-8.52-32.41l-.91-1.48-1.08-1.36c-8.46-10.66-20.92-18.23-38.07-23.13a143.82,143.82,0,0,0-39.54-5.33Z"/><path class="cls-1" d="M1093.3,411.18c-27.94,0-52.11-8.05-71.83-23.92-20.67-16.62-31.15-38.34-31.15-64.55s10.48-47.92,31.15-64.55c19.73-15.87,43.9-23.92,71.83-23.92,27.74,0,51.86,8.1,71.69,24.07,20.76,16.74,31.29,38.4,31.29,64.4s-10.53,47.67-31.29,64.4C1145.16,403.08,1121,411.18,1093.3,411.18ZM1083,282.84c-.68,4.92-.68,16.61,5.67,42,3.55,14.56,8,25.93,13.27,33.87a26.42,26.42,0,0,0,3.12,4c.65-4.77.61-16.28-6.14-41.56l0-.11C1092.18,295.06,1086,285.94,1083,282.84Z"/><path class="cls-1" d="M1093.3,248.68q36.72,0,62.63,20.88t25.91,53.15q0,32.28-25.91,53.16t-62.63,20.88q-37,0-62.78-20.73t-25.76-53.31q0-32.56,25.76-53.3t62.78-20.73m13.22,129.83a13.93,13.93,0,0,0,3.36-.42q18.06-4.14,3-60.71-13-50.46-31.52-50.47a14.56,14.56,0,0,0-3.43.42q-17.48,4.16-3.26,61,5.92,24.29,15.25,38.35,7.84,11.82,16.63,11.82m-13.22-158.7c-31.31,0-58.52,9.12-80.88,27.1-23.9,19.24-36.53,45.45-36.53,75.8s12.63,56.57,36.53,75.8c22.35,18,49.57,27.1,80.88,27.1,31.12,0,58.28-9.17,80.74-27.26,24-19.33,36.67-45.49,36.67-75.64s-12.68-56.31-36.66-75.63c-22.46-18.1-49.63-27.27-80.75-27.27Z"/><path class="cls-1" d="M1241.07,409.7c-3.73,0-7.86-.1-12.62-.31s-10.55-.68-17.33-1.4a82.31,82.31,0,0,1-20.07-4.37c-12.12-4.47-15.74-11.85-16.63-17.24l0-.15a23.91,23.91,0,0,1,5-18.51,48.45,48.45,0,0,1,9.27-9.27,14,14,0,0,0,3-4.2,13,13,0,0,0,1.46-6.37V260.82c0-8.43-.88-12.72-1.49-14.67a25.14,25.14,0,0,1-13.61-9.19,21,21,0,0,1-2.22-21.87c2.05-4.46,6.61-10.4,16.66-13.41l.34-.09c1.32-.36,4.21-1.23,10.49-3.33l10.66-3.55c1.62-.54,4.43-1.54,8.34-3,3.7-1.36,6.58-2.5,8.56-3.41,2.35-1.08,5.25-2.43,8.74-4.08,3.18-1.5,6.5-3.25,9.89-5.22l.28-.16c6.26-3.44,11.39-5,16.14-5a21.65,21.65,0,0,1,9.66,2.24,21.15,21.15,0,0,1,7.91,6.85,28.72,28.72,0,0,1,3.38,6.43,38.72,38.72,0,0,1,1.72,6.91c.37,2.16.62,4.2.75,6.05s.19,3.88.19,6.39v5.48c0,1.64,0,3.77-.16,6.49-.12,2.9-.13,4.32-.13,4.91v.3l0,.3c-.13,3.09-.28,26.65-.28,121.41a15.85,15.85,0,0,0,1.43,7.16c1.44,2.89,2.44,3.66,2.48,3.69a49.37,49.37,0,0,1,9.28,9.27,25.31,25.31,0,0,1,5.42,17.39l0,.42C1305.19,407.83,1272,409.7,1241.07,409.7Z"/><path class="cls-1" d="M1266,188.27a7.22,7.22,0,0,1,3.25.74,6.66,6.66,0,0,1,2.52,2.22,13.61,13.61,0,0,1,1.63,3.11,25.46,25.46,0,0,1,1,4.29c.29,1.78.49,3.36.59,4.74s.15,3.16.15,5.33v5.48q0,2.22-.15,5.92c-.1,2.47-.15,4.29-.15,5.48q-.3,7.11-.3,122a30,30,0,0,0,3,13.62,24.33,24.33,0,0,0,6.66,8.73,33.79,33.79,0,0,1,6.51,6.52,10.9,10.9,0,0,1,2.52,7.55q-1.18,11.26-52.12,11.25-5.33,0-12-.29t-16.44-1.33a69.25,69.25,0,0,1-16.58-3.56q-6.82-2.5-7.4-6.07a9.72,9.72,0,0,1,2.22-7.55,33.79,33.79,0,0,1,6.51-6.52,29,29,0,0,0,10.22-22.06V260.82q0-26.06-10.07-28.13-5.32-.9-7.85-4.3a6.7,6.7,0,0,1-.74-7.25q1.79-3.85,7.7-5.63,3.25-.88,11.25-3.55l10.67-3.56q2.65-.89,8.73-3.11c4-1.48,7.26-2.76,9.63-3.85s5.33-2.46,8.88-4.14,7.2-3.6,11-5.78q5.91-3.26,9.18-3.25m0-28.87c-7.28,0-14.62,2.17-23.09,6.83l-.29.15-.28.17c-3,1.76-6,3.32-8.79,4.63-3.63,1.72-6.43,3-8.57,4-1.17.53-3.39,1.47-7.55,3-4.69,1.72-6.91,2.49-7.94,2.84l-1.34.44-9.32,3.11c-6.52,2.17-9,2.89-9.73,3.09l-.35.09-.34.11c-16,4.79-22.91,15.32-25.62,21.17a35.58,35.58,0,0,0,3.71,36.49h0a38.75,38.75,0,0,0,12.18,10.76c.06,1.26.11,2.77.11,4.54v87a.25.25,0,0,0,0,.07A62.58,62.58,0,0,0,1167.89,359a38.63,38.63,0,0,0-7.76,29.45l0,.15,0,.15c1.24,7.51,6.26,21.19,25.89,28.43a96.49,96.49,0,0,0,23.53,5.17c7.17.76,13.12,1.24,18.19,1.47s9.34.32,13.28.32c19.21,0,33.8-1.13,44.59-3.46a59.58,59.58,0,0,0,19-7.19c10-6.17,16.06-15.56,17.21-26.44l0-.42,0-.43a39.55,39.55,0,0,0-8.31-27.18v0l0,0a63.06,63.06,0,0,0-10.2-10.58,7.33,7.33,0,0,1,0-.8c0-98.82.17-118.11.27-120.82l0-.6v-.59c0-.3,0-1.5.12-4.29.12-2.95.18-5.26.18-7.11V208.7c0-2.86-.08-5.27-.22-7.36v-.09c-.17-2.29-.47-4.77-.91-7.37a52.45,52.45,0,0,0-2.37-9.37l0-.07,0-.06a42.48,42.48,0,0,0-5-9.65l0-.07,0-.06a35.87,35.87,0,0,0-13.16-11.39l-.07,0-.07,0A35.92,35.92,0,0,0,1266,159.4Z"/><path class="cls-1" d="M1341.16,409.7c-3.54,0-7.49-.1-12.06-.31s-10.16-.69-16.75-1.41a77,77,0,0,1-19.63-4.44c-11.73-4.52-15.25-11.83-16.14-17.16l0-.28,0-.28c-1-7.67,1.92-15.21,8.14-21.22a82.15,82.15,0,0,0,8-9.28c.91-1.2,2.12-3.28,2.12-7.44v-30.2c0-8.41-.85-12.74-1.46-14.75a23.72,23.72,0,0,1-13.53-9.8,21.56,21.56,0,0,1-1.71-20.8c1.93-4.4,6.28-10.3,16-13.4,15.7-5.17,35.33-11,58.35-17.36l.34-.08a38.83,38.83,0,0,1,9.42-1.32,23.68,23.68,0,0,1,18.36,8.15,29.86,29.86,0,0,1,6.72,15.22,106.84,106.84,0,0,1,1,13.07,131.48,131.48,0,0,1-.44,13.86v57.12a17.21,17.21,0,0,0,1.41,7.41,11.39,11.39,0,0,0,2.29,3.63,43.62,43.62,0,0,1,9,9.71,26.14,26.14,0,0,1,4.69,16.76c-.59,7.45-5.24,17.17-24.09,21.43C1371.79,408.66,1358.69,409.7,1341.16,409.7Z"/><path class="cls-1" d="M1362.19,254.6a9.23,9.23,0,0,1,7.4,3.11,15.6,15.6,0,0,1,3.41,8,92.62,92.62,0,0,1,.89,11.25,113.88,113.88,0,0,1-.45,12.88v57.75a31.34,31.34,0,0,0,2.82,13.62,24,24,0,0,0,6.36,8.73,29.33,29.33,0,0,1,6.07,6.52,11.61,11.61,0,0,1,2.22,7.55q-.89,11.26-49.75,11.25c-3.36,0-7.15-.1-11.4-.29s-9.52-.64-15.84-1.33a63.92,63.92,0,0,1-16-3.56q-6.53-2.5-7.11-6.07c-.4-3.15.89-6.17,3.85-9a95.34,95.34,0,0,0,9.48-11,26,26,0,0,0,5-16.14v-30.2q0-26.06-9.77-28.14c-3.56-.59-6.07-2-7.55-4.29a7.09,7.09,0,0,1-.6-7.11q1.63-3.69,7.26-5.48,23.38-7.7,57.75-17.17a25.42,25.42,0,0,1,5.92-.89m0-28.87a53,53,0,0,0-12.93,1.75l-.34.09-.33.09c-23.22,6.41-43,12.31-59,17.54-15.61,5-22.23,15.51-24.79,21.34a35.76,35.76,0,0,0,2.86,34.5,37.28,37.28,0,0,0,12.5,11.84c.07,1.32.12,2.91.12,4.8v30a61.23,61.23,0,0,1-5.69,6.54c-9.58,9.26-14,21.12-12.44,33.41l.07.56.09.56c1.23,7.41,6.14,20.93,25.21,28.28a91.22,91.22,0,0,0,23.24,5.31c7,.77,12.74,1.25,17.62,1.48s9,.32,12.75.32c18.61,0,32.76-1.15,43.24-3.52a56.64,56.64,0,0,0,18.89-7.53c9.58-6.27,15.55-16,16.4-26.8v-.08a40.45,40.45,0,0,0-7.11-25.94l0,0,0,0a58.17,58.17,0,0,0-10.16-11.38,7.59,7.59,0,0,1-.08-1.24V291.07a143.54,143.54,0,0,0,.44-14.77,119.61,119.61,0,0,0-1.2-14.89,44.13,44.13,0,0,0-10-22.49,37.94,37.94,0,0,0-29.32-13.19Z"/><path class="cls-1" d="M1486,411.18c-27.94,0-52.1-8.05-71.83-23.92-20.67-16.62-31.15-38.34-31.15-64.55s10.48-47.92,31.15-64.55c19.73-15.87,43.9-23.92,71.83-23.92,27.74,0,51.86,8.1,71.69,24.07,20.76,16.74,31.29,38.4,31.29,64.4s-10.53,47.67-31.29,64.4C1537.83,403.08,1513.71,411.18,1486,411.18Zm-10.32-128.34c-.67,4.92-.68,16.61,5.67,42,3.55,14.56,8,25.93,13.28,33.87a25.85,25.85,0,0,0,3.11,4c.65-4.77.61-16.28-6.14-41.56l0-.11C1484.85,295.06,1478.67,285.94,1475.65,282.84Z"/><path class="cls-1" d="M1486,248.68q36.72,0,62.64,20.88t25.91,53.15q0,32.28-25.91,53.16T1486,396.75q-37,0-62.78-20.73t-25.76-53.31q0-32.56,25.76-53.3T1486,248.68m13.22,129.83a14.07,14.07,0,0,0,3.37-.42q18.06-4.14,3-60.71-13-50.46-31.52-50.47a14.56,14.56,0,0,0-3.43.42q-17.47,4.16-3.25,61,5.91,24.29,15.25,38.35,7.83,11.82,16.62,11.82M1486,219.81c-31.3,0-58.51,9.12-80.87,27.1-23.91,19.24-36.54,45.45-36.54,75.8s12.63,56.57,36.54,75.8c22.35,18,49.56,27.1,80.87,27.1,31.12,0,58.29-9.17,80.74-27.26,24-19.33,36.68-45.49,36.68-75.64s-12.68-56.31-36.67-75.63c-22.46-18.1-49.63-27.27-80.75-27.27Z"/><path class="cls-2" d="M1336.3,249.11A2.29,2.29,0,0,1,1332,249a49.62,49.62,0,0,0-33-33,2.29,2.29,0,0,1-.11-4.33,54.64,54.64,0,0,0,32.84-33.36,2.29,2.29,0,0,1,4.33,0,55.57,55.57,0,0,0,33.72,33.65,2.29,2.29,0,0,1,0,4.32,55.52,55.52,0,0,0-33.46,32.93Z"/><path class="cls-2" d="M958.86,198.93a10.49,10.49,0,0,0-9.48,6.36,29.72,29.72,0,0,0-3,13.18,49.31,49.31,0,0,0,3,16q3,8.59,12.29,17t23,9.33h12.73a6.08,6.08,0,0,1,5.92,5.92v6.81a6.08,6.08,0,0,1-5.92,5.93H972.48v68.4a29.2,29.2,0,0,0,3,13.48,24.69,24.69,0,0,0,6.67,8.58,30.69,30.69,0,0,1,6.36,6.52,11.23,11.23,0,0,1,2.37,7.55q-.89,11.26-53,11.25-5.34,0-12-.29t-16.73-1.33a69.82,69.82,0,0,1-16.88-3.56q-6.81-2.5-7.4-6.07c-.59-3.15.64-6.17,3.7-9a94.15,94.15,0,0,0,9.77-11,25.52,25.52,0,0,0,5.18-16.14v-68.4H886.6a6.08,6.08,0,0,1-5.92-5.93v-6.81a6.08,6.08,0,0,1,5.92-5.92h16q-7.71-15.39-7.7-27.84.29-21,17.62-32.72t47.23-12.88a116.88,116.88,0,0,1,35.83,4.14q16.59,4.74,23.4,13.33a26.71,26.71,0,0,1,4.29,15.69q-.45,8-8.14,13.63t-19.55,4.44q-10.07-1.19-15.55-7.7a29.65,29.65,0,0,1-6.81-13.77,37.83,37.83,0,0,0-4.73-12.88C966.21,200.51,963,198.73,958.86,198.93Z"/><path class="cls-2" d="M1095.09,248.68q36.71,0,62.63,20.87t25.91,53.16q0,32.28-25.91,53.16t-62.63,20.88q-37,0-62.78-20.73t-25.77-53.31q0-32.56,25.77-53.3T1095.09,248.68Zm16.58,129.41q18.06-4.14,3-60.71-14.22-55.08-34.94-50.05-17.48,4.16-3.26,61,5.92,24.29,15.25,38.35T1111.67,378.09Z"/><path class="cls-2" d="M1276.32,347.59a30.13,30.13,0,0,0,3,13.62,24.33,24.33,0,0,0,6.66,8.73,34.12,34.12,0,0,1,6.52,6.52A11,11,0,0,1,1295,384q-1.18,11.26-52.12,11.25c-3.56,0-7.55-.1-12-.29s-9.92-.64-16.43-1.33a69.23,69.23,0,0,1-16.59-3.56q-6.81-2.5-7.4-6.07a9.72,9.72,0,0,1,2.22-7.55,34.12,34.12,0,0,1,6.52-6.52,28.91,28.91,0,0,0,10.21-22.06V260.82q0-26.06-10.07-28.13-5.33-.9-7.84-4.3a6.68,6.68,0,0,1-.74-7.25q1.77-3.85,7.7-5.63,3.25-.88,11.25-3.55l10.66-3.56q2.67-.89,8.74-3.11t9.62-3.85q3.55-1.62,8.89-4.14t11-5.78q5.92-3.26,9.18-3.25a7.23,7.23,0,0,1,3.26.74,6.73,6.73,0,0,1,2.52,2.22,13.61,13.61,0,0,1,1.63,3.11,24.63,24.63,0,0,1,1,4.29c.3,1.78.49,3.36.59,4.74s.15,3.16.15,5.33v5.48q0,2.22-.15,5.92c-.1,2.47-.14,4.29-.14,5.48Q1276.32,232.69,1276.32,347.59Z"/><path class="cls-2" d="M1375.23,347.59a31.34,31.34,0,0,0,2.81,13.62,24,24,0,0,0,6.37,8.73,29.33,29.33,0,0,1,6.07,6.52,11.73,11.73,0,0,1,2.22,7.55q-.89,11.26-49.75,11.25-5,0-11.4-.29t-15.85-1.33a63.92,63.92,0,0,1-16-3.56q-6.51-2.5-7.1-6.07c-.4-3.15.88-6.17,3.85-9a95.35,95.35,0,0,0,9.47-11,26,26,0,0,0,5-16.14v-30.2q0-26.06-9.78-28.14-5.32-.89-7.55-4.29a7.07,7.07,0,0,1-.59-7.11q1.62-3.69,7.26-5.48,23.39-7.7,57.74-17.17a25.42,25.42,0,0,1,5.92-.89,9.26,9.26,0,0,1,7.41,3.11,15.59,15.59,0,0,1,3.4,8,90.65,90.65,0,0,1,.89,11.25,113.85,113.85,0,0,1-.44,12.88Z"/><path class="cls-2" d="M1487.76,248.68q36.72,0,62.63,20.87t25.91,53.16q0,32.28-25.91,53.16t-62.63,20.88q-37,0-62.78-20.73t-25.77-53.31q0-32.56,25.77-53.3T1487.76,248.68Zm16.58,129.41q18.06-4.14,3-60.71-14.21-55.08-34.94-50.05-17.47,4.16-3.26,61,5.93,24.29,15.25,38.35T1504.34,378.09Z"/></g></g></svg>