<svg xmlns="http://www.w3.org/2000/svg" viewBox="0 0 165.34 148.42"><defs><style>.cls-1{fill:#fff;}.cls-2{fill:none;stroke:#fff;stroke-linecap:round;stroke-linejoin:round;stroke-width:2.56px;}</style></defs><g id="Capa_2" data-name="Capa 2"><g id="Capa_3" data-name="Capa 3"><path class="cls-1" d="M137.48,42.42q-3.09-3.89-10.61-6a53.22,53.22,0,0,0-16.24-1.88q-13.55.54-21.4,5.84a17.21,17.21,0,0,0-8,14.83,20.67,20.67,0,0,0,.43,4.11c.71.64,1.4,1.31,2.07,2,5.53,6,8.63,14.25,9.2,24.46,0,.78.13,1.5.23,2.25.12.91.24,1.85.28,3s.13,1.87.22,2.81.15,1.64.22,2.63c.09,1.47.26,3.39.44,5.24.07.8.14,1.59.2,2.3a1.69,1.69,0,0,1,0,.23,15.06,15.06,0,0,0,1.24,5.86,12.38,12.38,0,0,0,2.73,3.65l.12.12a9.72,9.72,0,0,0,1.7,1.36A10.16,10.16,0,0,1,102.5,117c1.06,1.16,3.85,4.2,3.32,8.23a8.17,8.17,0,0,1-1.35,3.49c5.19,0,13.83-.09,18.66-.09a3.1,3.1,0,0,0,2.76-3.39,8.39,8.39,0,0,0-2.12-5.18c-1.08-1.34-1.33-1.07-3-2.81a16.41,16.41,0,0,1-3-3.89,13.29,13.29,0,0,1-1.34-6.11v-31h11.27a2.73,2.73,0,0,0,2.68-2.68V70.47a2.73,2.73,0,0,0-2.68-2.68h-5.77a16.61,16.61,0,0,1-10.4-4.23,19.11,19.11,0,0,1-5.57-7.72,22.16,22.16,0,0,1-1.34-7.25,13.4,13.4,0,0,1,1.34-6,4.74,4.74,0,0,1,4.29-2.88,4.58,4.58,0,0,1,4.37,2.41A17.3,17.3,0,0,1,116.74,48a13.43,13.43,0,0,0,3.09,6.24,10.31,10.31,0,0,0,7,3.49,12.41,12.41,0,0,0,8.86-2,8.05,8.05,0,0,0,3.69-6.18A12.06,12.06,0,0,0,137.48,42.42Z"/><path class="cls-1" d="M103.46,124.91a6.43,6.43,0,0,1-2,3.71h-5c-6.33,0-11.33,0-21.57-.2-1.1,0-5.74-.46-7.46-1.49s-3.69-2-5-3.73a16.59,16.59,0,0,1-2.69-5.67,35.47,35.47,0,0,1-1.28-6.44c-.23-2.48-.26-3.86-.29-7C58.09,97,58,88.16,57.9,80.65a10.51,10.51,0,0,1-2.68,3.69,33.84,33.84,0,0,1-4.91,3.14,44.33,44.33,0,0,0-4.83,2.91c-5.71,4.49-7.63,8.81-6.64,15.93a12.87,12.87,0,0,0,3.33,6.57c1.78,2.09,4.94,3,7.7,3.22,2.11.2,3.93.68,3.57,3.2-.56,3.93-5.82,6.93-6.06,7.06A17.1,17.1,0,0,1,39,128.62c-6.36,0-15.69,1.19-24.59-4.86A20.46,20.46,0,0,1,7.65,117,22.18,22.18,0,0,1,5,106.05a17.42,17.42,0,0,1,2.51-8.82,20.1,20.1,0,0,1,5-6.2c2.25-2,5.39-3.31,8.38-4.51s5.92-2.28,9.21-3.26,7.4-1.93,10.82-2.78L42.64,80c4.3-1.1,9-3,11.42-6.35s1.8-5.5.7-8.92c-2.07-2.66-4.42-4.14-7.84-4.16a8.13,8.13,0,0,0-5,1.79,14.07,14.07,0,0,0-3.49,4c-1,1.56-1.79,3.17-2.88,4.76a14.7,14.7,0,0,1-4.09,4.2,11.15,11.15,0,0,1-6.3,1.92c-3.23-.17-7.16-1.9-8.61-5.21-1.93-4.46,1.6-9.44,2.51-10.71,7-9.86,23-9.53,29.87-9.38,9.7.2,23.9,1.06,33,11,.41.45.81.91,1.2,1.39,4.22,5.24,6.86,12.32,7.37,21.58.11,1.85.44,3.28.52,5.16s.29,3.35.43,5.51.45,5.23.65,7.58A17.58,17.58,0,0,0,93.62,111,14.92,14.92,0,0,0,97,115.52c1.88,1.86,2.35,1.54,3.77,3.09C101.68,119.64,103.84,122,103.46,124.91Z"/><path class="cls-1" d="M100.74,118.61c-1.42-1.55-1.89-1.23-3.77-3.09A14.92,14.92,0,0,1,93.62,111a17.58,17.58,0,0,1-1.46-6.88c-.2-2.35-.51-5.44-.65-7.58s-.36-3.62-.43-5.51-.41-3.31-.52-5.16c-.51-9.26-3.15-16.34-7.37-21.58-.39-.48-.79-.94-1.2-1.39C72.87,53,58.67,52.16,49,52c-6.85-.15-22.87-.48-29.87,9.38-.91,1.27-4.44,6.25-2.51,10.71,1.45,3.31,5.38,5,8.61,5.21a11.15,11.15,0,0,0,6.3-1.92,14.7,14.7,0,0,0,4.09-4.2c1.09-1.59,1.89-3.2,2.88-4.76a14.07,14.07,0,0,1,3.49-4,8.13,8.13,0,0,1,5-1.79c3.42,0,5.77,1.5,7.84,4.16,1.1,3.42,1.71,5.56-.7,8.92S46.94,78.93,42.64,80l-1.79.45c-3.42.85-7.52,1.8-10.82,2.78s-6.23,2.06-9.21,3.26S14.69,89,12.44,91a20.1,20.1,0,0,0-5,6.2A17.42,17.42,0,0,0,5,106.05,22.18,22.18,0,0,0,7.65,117a20.46,20.46,0,0,0,6.75,6.77c8.9,6,18.23,4.86,24.59,4.86a17.1,17.1,0,0,0,8.39-2.25c.24-.13,5.5-3.13,6.06-7.06.36-2.52-1.46-3-3.57-3.2-2.76-.25-5.92-1.13-7.7-3.22a12.87,12.87,0,0,1-3.33-6.57c-1-7.12.93-11.44,6.64-15.93a44.33,44.33,0,0,1,4.83-2.91,33.84,33.84,0,0,0,4.91-3.14,10.51,10.51,0,0,0,2.68-3.69c.1,7.51.19,16.3.25,23.44,0,3.15.06,4.53.29,7a35.47,35.47,0,0,0,1.28,6.44,16.59,16.59,0,0,0,2.69,5.67c1.26,1.74,3.23,2.7,5,3.73s6.36,1.47,7.46,1.49c10.24.19,15.24.2,21.57.2h5a6.43,6.43,0,0,0,2-3.71C103.84,122,101.68,119.64,100.74,118.61Z"/><path class="cls-2" d="M18.86,40.42c3.12-4.93,20.33-31,54.06-37.7,4.38-.87,45-8.25,72.58,21.49,30.14,32.54,14.72,77.32,13.83,79.76-7.93,21.83-23.49,34.3-30.55,39.28"/><path class="cls-1" d="M9.19,60.29a.54.54,0,0,1-1,0,12,12,0,0,0-2.72-4.67A11.91,11.91,0,0,0,.38,52.45a.54.54,0,0,1,0-1,12.85,12.85,0,0,0,4.71-3,12.93,12.93,0,0,0,3.05-4.87.54.54,0,0,1,1,0,13.12,13.12,0,0,0,8,7.94.54.54,0,0,1,0,1,13.11,13.11,0,0,0-7.9,7.78Z"/><path class="cls-1" d="M59.27,148.38a1.14,1.14,0,0,1-.72-.21.83.83,0,0,1-.33-.55,1.49,1.49,0,0,1,.13-.77l4.93-10.92a1.73,1.73,0,0,1,.59-.77,1.4,1.4,0,0,1,1.57,0,1.8,1.8,0,0,1,.59.77L71,146.85a1.29,1.29,0,0,1,.15.78.8.8,0,0,1-.32.55,1.11,1.11,0,0,1-.69.2,1.17,1.17,0,0,1-.81-.25,2.2,2.2,0,0,1-.51-.78l-1.22-2.81,1,.65H60.71l1-.65-1.19,2.81a2.5,2.5,0,0,1-.5.79A1.09,1.09,0,0,1,59.27,148.38Zm5.36-10.71L62,143.88l-.48-.59h6.23l-.47.59-2.63-6.21Z"/><path class="cls-1" d="M76.22,148.42a3.71,3.71,0,0,1-3.51-2.23,5.86,5.86,0,0,1-.51-2.53,5.77,5.77,0,0,1,.51-2.53,3.74,3.74,0,0,1,3.51-2.21,3.46,3.46,0,0,1,2,.56A2.72,2.72,0,0,1,79.35,141h-.2V136.1a1.18,1.18,0,0,1,.29-.88,1.4,1.4,0,0,1,1.73,0,1.15,1.15,0,0,1,.31.88v11.09a1.2,1.2,0,0,1-.3.88,1.35,1.35,0,0,1-1.72,0,1.2,1.2,0,0,1-.3-.88v-1.46l.21.56a2.77,2.77,0,0,1-1.14,1.55A3.54,3.54,0,0,1,76.22,148.42Zm.65-1.78a2.07,2.07,0,0,0,2-1.33,4,4,0,0,0,.29-1.65,3.35,3.35,0,0,0-.63-2.23,2.11,2.11,0,0,0-1.68-.74,2.11,2.11,0,0,0-2,1.32,4.17,4.17,0,0,0-.29,1.65,3.43,3.43,0,0,0,.64,2.23A2.08,2.08,0,0,0,76.87,146.64Z"/><path class="cls-1" d="M85.1,148.38a1.19,1.19,0,0,1-.89-.31,1.21,1.21,0,0,1-.31-.88v-7.06a1.2,1.2,0,0,1,.3-.88,1.36,1.36,0,0,1,1.68,0,1.2,1.2,0,0,1,.3.88v1.18H86a2.86,2.86,0,0,1,1-1.7,3.81,3.81,0,0,1,2-.69.73.73,0,0,1,.62.19,1.08,1.08,0,0,1,.27.72,1,1,0,0,1-.21.76,1.11,1.11,0,0,1-.76.34l-.41,0a2.75,2.75,0,0,0-1.72.7,2.27,2.27,0,0,0-.58,1.65v3.87a1.2,1.2,0,0,1-.29.88A1.17,1.17,0,0,1,85.1,148.38Z"/><path class="cls-1" d="M92.38,148.36a1.09,1.09,0,0,1-.86-.33,1.38,1.38,0,0,1-.3-.94v-6.85a1.34,1.34,0,0,1,.3-.94,1.09,1.09,0,0,1,.86-.33,1.15,1.15,0,0,1,.87.33,1.34,1.34,0,0,1,.3.94v6.85a1.38,1.38,0,0,1-.3.94A1.1,1.1,0,0,1,92.38,148.36Z"/><path class="cls-1" d="M99,148.42a3.86,3.86,0,0,1-1.76-.39A3,3,0,0,1,96,147a2.55,2.55,0,0,1-.44-1.48,2.29,2.29,0,0,1,.52-1.59,3.13,3.13,0,0,1,1.7-.85,15.44,15.44,0,0,1,3.15-.26h.94v1.34H101a12.89,12.89,0,0,0-1.85.11,1.88,1.88,0,0,0-1,.39,1,1,0,0,0-.29.75,1.32,1.32,0,0,0,.42,1,1.73,1.73,0,0,0,1.2.39,2,2,0,0,0,1.09-.29,2.06,2.06,0,0,0,.76-.79,2.43,2.43,0,0,0,.28-1.16v-2.14a1.88,1.88,0,0,0-.41-1.35,1.94,1.94,0,0,0-1.38-.41,6.25,6.25,0,0,0-1.17.13,6.45,6.45,0,0,0-1.32.45.89.89,0,0,1-.62.09.72.72,0,0,1-.42-.3,1,1,0,0,1-.15-.52,1.14,1.14,0,0,1,.15-.55.93.93,0,0,1,.5-.4,8.11,8.11,0,0,1,1.65-.5,7.85,7.85,0,0,1,1.45-.15,5.22,5.22,0,0,1,2.21.41,2.75,2.75,0,0,1,1.3,1.24,4.73,4.73,0,0,1,.43,2.14v4.48a1.29,1.29,0,0,1-.28.88,1,1,0,0,1-.8.31,1.07,1.07,0,0,1-.82-.31,1.24,1.24,0,0,1-.29-.88v-.9h.15a2.44,2.44,0,0,1-.51,1.13,2.61,2.61,0,0,1-1,.74A3.29,3.29,0,0,1,99,148.42Z"/><path class="cls-1" d="M107.35,148.38a1.12,1.12,0,0,1-.86-.31,1.2,1.2,0,0,1-.3-.88v-7.06a1.2,1.2,0,0,1,.3-.88,1.36,1.36,0,0,1,1.68,0,1.2,1.2,0,0,1,.3.88v1.27l-.21-.47a3,3,0,0,1,1.28-1.5,3.81,3.81,0,0,1,2-.51,3.64,3.64,0,0,1,1.81.41,2.55,2.55,0,0,1,1.06,1.24,5.28,5.28,0,0,1,.36,2.1v4.52a1.2,1.2,0,0,1-.3.88,1.13,1.13,0,0,1-.86.31,1.17,1.17,0,0,1-.87-.31,1.21,1.21,0,0,1-.31-.88v-4.41a2.42,2.42,0,0,0-.4-1.55,1.53,1.53,0,0,0-1.24-.48,2.12,2.12,0,0,0-1.63.64,2.37,2.37,0,0,0-.61,1.71v4.09A1,1,0,0,1,107.35,148.38Z"/><path class="cls-1" d="M120.11,148.42a3.83,3.83,0,0,1-1.76-.39,3.09,3.09,0,0,1-1.22-1,2.62,2.62,0,0,1-.43-1.48,2.29,2.29,0,0,1,.52-1.59,3.09,3.09,0,0,1,1.7-.85,15.37,15.37,0,0,1,3.15-.26H123v1.34h-.91a12.79,12.79,0,0,0-1.85.11,1.92,1.92,0,0,0-1,.39,1,1,0,0,0-.29.75,1.33,1.33,0,0,0,.43,1,1.73,1.73,0,0,0,1.2.39,2,2,0,0,0,1.09-.29,2,2,0,0,0,.75-.79,2.32,2.32,0,0,0,.28-1.16v-2.14a1.83,1.83,0,0,0-.41-1.35,1.91,1.91,0,0,0-1.38-.41,6.15,6.15,0,0,0-1.16.13,6.45,6.45,0,0,0-1.32.45.92.92,0,0,1-.63.09.72.72,0,0,1-.42-.3,1,1,0,0,1-.14-.52,1.12,1.12,0,0,1,.14-.55.92.92,0,0,1,.51-.4,8.11,8.11,0,0,1,1.65-.5,7.85,7.85,0,0,1,1.45-.15,5.25,5.25,0,0,1,2.21.41,2.75,2.75,0,0,1,1.3,1.24,4.74,4.74,0,0,1,.42,2.14v4.48a1.24,1.24,0,0,1-.28.88,1,1,0,0,1-.8.31,1,1,0,0,1-.81-.31,1.24,1.24,0,0,1-.29-.88v-.9h.15a2.66,2.66,0,0,1-.51,1.13,2.69,2.69,0,0,1-1,.74A3.29,3.29,0,0,1,120.11,148.42Z"/><path class="cls-1" d="M92.83,137.21a.14.14,0,0,1-.26,0,3,3,0,0,0-2-2,.14.14,0,0,1,0-.26,3.34,3.34,0,0,0,1.2-.77,3.43,3.43,0,0,0,.78-1.24.14.14,0,0,1,.26,0,3.34,3.34,0,0,0,.79,1.24,3.18,3.18,0,0,0,1.24.78.15.15,0,0,1,0,.27,3.18,3.18,0,0,0-1.24.78A3.38,3.38,0,0,0,92.83,137.21Z"/></g></g></svg>