<svg xmlns="http://www.w3.org/2000/svg" viewBox="0 0 1788 2089.85"><defs><style>.cls-1{fill:#f4a276;}</style></defs><g id="Capa_2" data-name="Capa 2"><g id="Capa_2-2" data-name="Capa 2"><path class="cls-1" d="M1788,1056.81V110.18c-2.4-15.21-8.84-43.7-29.93-68.34-96.38-112.64-344.43,35.1-761,60-106.74,6.38-253.71,15.27-445-14C295,48.5,109.91-36.43,32.07,47.84,5.5,76.6.28,115.49,0,143.73v913.08Z"/><path class="cls-1" d="M0,1889.52a134.05,134.05,0,0,0,63.27,114A621.52,621.52,0,0,0,166,2054.81c269.8,104.57,399.2-68,749-58,289.28,8.23,379,131.3,688,81,29.87-4.86,57.54-10.65,82.68-16.76A134.18,134.18,0,0,0,1788,1930.6V1056.81H0Z"/></g></g></svg>