<svg xmlns="http://www.w3.org/2000/svg" viewBox="0 0 543.68 97.76"><defs><style>.cls-1{fill:#f4a276;}.cls-2{fill:#fff;}</style></defs><g id="Capa_2" data-name="Capa 2"><g id="Capa_3" data-name="Capa 3"><path class="cls-1" d="M111.12,91.77a25.29,25.29,0,0,1-8.72-1.51,24.9,24.9,0,0,1-8.29-5,47.38,47.38,0,0,1-5.71-6.11c-1.14-1.48-2.34-3.18-3.56-5.09A33.51,33.51,0,0,1,66,64.17,30.73,30.73,0,0,1,57.34,42c0-9.5,3.39-17.42,10.09-23.56a34.36,34.36,0,0,1,24-9.07,34.53,34.53,0,0,1,24,9.06c6.73,6.14,10.14,14.07,10.14,23.57a30.92,30.92,0,0,1-7.46,20.75l-.81.92a12.06,12.06,0,0,1,7.53,3.61,12.23,12.23,0,0,1,3.59,9.56V77a15.06,15.06,0,0,1-5.23,10.74,17.34,17.34,0,0,1-11,4ZM87.2,24.82l-.24,0-.13.05a2.83,2.83,0,0,0-.58,1.35,20.17,20.17,0,0,0-.36,7.21,73.46,73.46,0,0,0,1.94,10.09,41.55,41.55,0,0,0,5.45,12.94C94.54,58.32,95.56,59,96.09,59h.17a4,4,0,0,0,.58-1.27,19.61,19.61,0,0,0,.56-7.17,64.73,64.73,0,0,0-1.73-10,45.22,45.22,0,0,0-4.94-12.3C89.44,26.09,88.11,24.82,87.2,24.82Z"/><path class="cls-2" d="M91.39,14.36A29.54,29.54,0,0,1,112,22.13q8.52,7.76,8.51,19.88a26,26,0,0,1-6.25,17.51,28.16,28.16,0,0,1-16,9.34q3.87,6,7.36,6.18a3,3,0,0,0,1.9-.63,6.15,6.15,0,0,0,1.39-1.62,15.53,15.53,0,0,1,1.39-2,5.84,5.84,0,0,1,2.29-1.58,9.72,9.72,0,0,1,3.73-.63,7,7,0,0,1,5,2.21,7.31,7.31,0,0,1,2.1,5.79,10.1,10.1,0,0,1-3.49,7.29A12.52,12.52,0,0,1,112,86.77h-.87a19.95,19.95,0,0,1-13.67-5.24,42.87,42.87,0,0,1-5.11-5.47,75.79,75.79,0,0,1-4.51-6.65A28.87,28.87,0,0,1,69.61,60.7,25.78,25.78,0,0,1,62.32,42q0-12.12,8.48-19.88a29.36,29.36,0,0,1,20.59-7.77M96.09,64a6.16,6.16,0,0,0,1.4-.17q2.94-.7,4.12-4.67a24.4,24.4,0,0,0,.76-9,70.07,70.07,0,0,0-1.87-10.77A49.77,49.77,0,0,0,95,25.65q-3.52-5.82-7.8-5.82a5.71,5.71,0,0,0-1.67.24q-3.09.87-4.12,4.95a25.24,25.24,0,0,0-.47,9A78.44,78.44,0,0,0,83,44.78a46.16,46.16,0,0,0,6.18,14.54C91.31,62.41,93.62,64,96.09,64M91.39,4.39A39.2,39.2,0,0,0,64.06,14.77,36,36,0,0,0,52.35,42c0,10.09,3.4,18.72,10.1,25.63A38.17,38.17,0,0,0,81.82,78.52c.9,1.32,1.78,2.54,2.63,3.64a52,52,0,0,0,6.31,6.77,30,30,0,0,0,20.36,7.83l1.24,0a22.29,22.29,0,0,0,14-5.21,20,20,0,0,0,7-14.2v-.25a17.11,17.11,0,0,0-5.08-13.34,18.76,18.76,0,0,0-3-2.42A36.28,36.28,0,0,0,130.52,42a35.87,35.87,0,0,0-11.77-27.25A39.36,39.36,0,0,0,91.39,4.39Z"/><path class="cls-1" d="M141,73.65a19.81,19.81,0,0,1-12.15-3.8,16.49,16.49,0,0,1-6.81-13.74V47.24a16.07,16.07,0,0,0-.21-3,7.69,7.69,0,0,1-3.61-2.67,6.83,6.83,0,0,1-.71-7,7.87,7.87,0,0,1,5.16-4.19l.11,0c.28-.08,1-.29,2.75-.87l2.85-.95c.45-.15,1.19-.42,2.21-.79,1.19-.44,1.86-.72,2.21-.88l2.32-1.08c.82-.39,1.68-.84,2.56-1.35l.1-.06a10.15,10.15,0,0,1,4.86-1.49,6.83,6.83,0,0,1,5.62,2.91,9.4,9.4,0,0,1,1,2,11.58,11.58,0,0,1,.51,2.05c0,.23.07.45.1.66l.44-.13c.28-.08,1-.29,2.75-.87l2.85-.95c.45-.15,1.18-.41,2.2-.79,1.19-.43,1.86-.72,2.21-.88.63-.28,1.4-.64,2.33-1.08s1.68-.84,2.56-1.35l.1-.06a10.12,10.12,0,0,1,4.85-1.49,6.84,6.84,0,0,1,3.09.72,6.76,6.76,0,0,1,2.53,2.19,8.36,8.36,0,0,1,1,2,11.55,11.55,0,0,1,.52,2.05c.1.62.17,1.2.21,1.73s.05,1.06.05,1.79v1.46c0,.45,0,1,0,1.78,0,.58,0,1,0,1.27V38c0,2.46-.07,8.36-.07,17.56a3.29,3.29,0,0,0,.26,1.41,3.6,3.6,0,0,0,.33.55,13.09,13.09,0,0,1,2.7,2.66,7.84,7.84,0,0,1,1.68,5.42v.13c-.72,7-10.13,7.57-18.9,7.57A13.35,13.35,0,0,1,154,69.81a19.76,19.76,0,0,1-9.38,3.61A29.76,29.76,0,0,1,141,73.65Z"/><path class="cls-2" d="M170.21,27.91a1.92,1.92,0,0,1,.87.2,1.82,1.82,0,0,1,.68.59,3.64,3.64,0,0,1,.43.83,6.45,6.45,0,0,1,.28,1.15c.08.48.13.9.16,1.27s0,.85,0,1.43v1.46c0,.4,0,.93,0,1.59s0,1.14,0,1.46c-.05,2.54-.08,8.42-.08,17.67a8,8,0,0,0,.79,3.64,6.19,6.19,0,0,0,1.78,2.3,8.28,8.28,0,0,1,1.75,1.7,2.93,2.93,0,0,1,.67,2q-.31,3.09-13.94,3.09-7.29,0-8.56-7.21a13.62,13.62,0,0,1-11,7.37,24,24,0,0,1-3,.2,14.93,14.93,0,0,1-9.17-2.82A11.48,11.48,0,0,1,127,56.11V47.24q0-6.9-2.69-7.45a3.12,3.12,0,0,1-2.1-1.15,1.78,1.78,0,0,1-.2-1.94,3.05,3.05,0,0,1,2.06-1.5c.58-.16,1.58-.48,3-1l2.85-1q.72-.24,2.34-.84c1.08-.39,1.94-.73,2.57-1l2.38-1.11c1-.45,1.93-1,2.93-1.55a5.7,5.7,0,0,1,2.46-.87,2,2,0,0,1,.87.2,1.87,1.87,0,0,1,.67.59,4.14,4.14,0,0,1,.44.83,7.6,7.6,0,0,1,.27,1.15,11.88,11.88,0,0,1,.16,1.27c0,.37,0,.85,0,1.43v1.46c0,.4,0,.93,0,1.59s0,1.14,0,1.46V50q0,7.37.71,9.35a3.25,3.25,0,0,0,2.86,2.22,4.67,4.67,0,0,0,4.2-2.62,15.14,15.14,0,0,0,1.82-6.34V47.24q0-6.9-2.7-7.45a3.12,3.12,0,0,1-2.1-1.15,1.8,1.8,0,0,1-.19-1.94,3,3,0,0,1,2.06-1.5c.58-.16,1.58-.48,3-1l2.85-1,2.34-.84c1.08-.39,1.94-.73,2.57-1l2.38-1.11c.95-.45,1.92-1,2.93-1.55a5.67,5.67,0,0,1,2.45-.87m0-10A14.87,14.87,0,0,0,163,20l-.1.06-.1,0c-.75.44-1.49.83-2.17,1.15-.92.44-1.67.79-2.27,1.06-.24.11-.77.34-1.86.74l-2.07.74-1.23.41c-.24-.43-.49-.84-.77-1.25l0,0v0A11.83,11.83,0,0,0,148,19.2l0,0h0a11.78,11.78,0,0,0-5.29-1.23,14.84,14.84,0,0,0-7.26,2.1l-.1.06-.1,0c-.76.44-1.49.83-2.18,1.16l-2.27,1.05c-.23.11-.76.34-1.86.74-1.25.46-1.81.65-2.07.74l-2.84.95c-1.74.57-2.35.75-2.49.79l-.12,0-.11,0A12.88,12.88,0,0,0,113,32.51a11.75,11.75,0,0,0,1.23,12.07,12.45,12.45,0,0,0,2.84,2.77v8.76a21.34,21.34,0,0,0,8.81,17.75A24.78,24.78,0,0,0,141,78.64a33,33,0,0,0,4.27-.28,25.89,25.89,0,0,0,8.51-2.54,19.42,19.42,0,0,0,9.78,2.46,59.55,59.55,0,0,0,12.45-1c9.49-2.1,11.14-8.41,11.41-11V66a12.81,12.81,0,0,0-2.66-8.8,18.29,18.29,0,0,0-2.3-2.5c0-8.66,0-14.23.08-16.58v-.21c0-.23,0-.58,0-1.06,0-.85,0-1.48,0-2V33.38c0-.81,0-1.49-.06-2.11s-.15-1.46-.27-2.23a15.92,15.92,0,0,0-.74-2.9A14,14,0,0,0,179.94,23v0l0,0a11.76,11.76,0,0,0-9.7-5Z"/><path class="cls-1" d="M194.21,73.3c-1,0-2,0-3.27-.09s-2.75-.18-4.55-.38a21.25,21.25,0,0,1-5.54-1.26c-3.63-1.4-4.74-3.74-5-5.46l0-.19a7.78,7.78,0,0,1,2.51-6.62,20.85,20.85,0,0,0,2-2.36,1.93,1.93,0,0,0,.33-1.3V47.55a18.11,18.11,0,0,0-.21-3.07,7.29,7.29,0,0,1-3.61-2.88A6.85,6.85,0,0,1,176.3,35a7.67,7.67,0,0,1,5-4.21L183,30.2l-.53-.41a12.49,12.49,0,0,1-5-10,12.33,12.33,0,0,1,5-9.88,17.59,17.59,0,0,1,21.27,0,12.34,12.34,0,0,1,5,9.88,12.15,12.15,0,0,1-3.26,8.35l.07.09a9.05,9.05,0,0,1,2.06,4.63,29.53,29.53,0,0,1,.29,3.64,34.43,34.43,0,0,1-.12,3.79V55.56a3.69,3.69,0,0,0,.27,1.5,2.6,2.6,0,0,0,.36.61,13.23,13.23,0,0,1,2.59,2.8,8.13,8.13,0,0,1,1.44,5.21C211.89,73.3,200.83,73.3,194.21,73.3Z"/><path class="cls-2" d="M193.18,11.35a11.67,11.67,0,0,1,7.49,2.5,7.43,7.43,0,0,1,3.13,6,7.53,7.53,0,0,1-3.09,6.06,11.63,11.63,0,0,1-7.53,2.5,11.79,11.79,0,0,1-7.56-2.5,7.35,7.35,0,0,1,0-12,11.79,11.79,0,0,1,7.56-2.5m6.66,19.33a2.49,2.49,0,0,1,2,.83,4.22,4.22,0,0,1,.91,2.14,25.18,25.18,0,0,1,.24,3,33.34,33.34,0,0,1-.12,3.45V55.56a8.43,8.43,0,0,0,.75,3.64,6.44,6.44,0,0,0,1.7,2.34,7.69,7.69,0,0,1,1.63,1.74,3.11,3.11,0,0,1,.59,2q-.24,3-13.31,3c-.89,0-1.91,0-3.05-.08s-2.54-.17-4.23-.36a16.9,16.9,0,0,1-4.28-1c-1.16-.44-1.8-1-1.9-1.62a2.84,2.84,0,0,1,1-2.42A25.15,25.15,0,0,0,184.31,60a6.92,6.92,0,0,0,1.35-4.31V47.55q0-7-2.61-7.52a2.78,2.78,0,0,1-2-1.15,1.88,1.88,0,0,1-.16-1.9,2.9,2.9,0,0,1,1.94-1.47q6.25-2.05,15.44-4.59a6.81,6.81,0,0,1,1.59-.24m-6.66-29.3A21.86,21.86,0,0,0,179.4,6.05a17.43,17.43,0,0,0-6.88,13.78A17,17,0,0,0,175,28.65,12.13,12.13,0,0,0,171.73,33a11.8,11.8,0,0,0,1,11.37,12.11,12.11,0,0,0,3,3.17v7.28a10.76,10.76,0,0,1-.84.92,12.84,12.84,0,0,0-4,10.84l0,.19,0,.19c.33,2,1.78,6.84,8.15,9.3a26.49,26.49,0,0,0,6.79,1.56c1.9.21,3.49.34,4.85.4s2.47.09,3.51.09a56.2,56.2,0,0,0,12.07-1c9.47-2.14,11-8.54,11.18-11.2a13,13,0,0,0-2.27-8.39,17.81,17.81,0,0,0-2.37-2.81V40.53a40.07,40.07,0,0,0,.12-4.09,33.21,33.21,0,0,0-.35-4.27,14.84,14.84,0,0,0-1.09-3.78,17,17,0,0,0,2.27-8.56,17.45,17.45,0,0,0-6.88-13.78,21.77,21.77,0,0,0-13.71-4.67Z"/><path class="cls-1" d="M231.92,73.69a28.88,28.88,0,0,1-19.27-6.81,22.83,22.83,0,0,1-8.37-18.14A23,23,0,0,1,212.06,31a28.43,28.43,0,0,1,18.29-7.22c.93,0,1.84-.07,2.72-.07,6.61,0,11.71,1.19,15.6,3.64,4.75,3,7.51,6.8,8.22,11.34a14,14,0,0,1-1.21,8.38,7.54,7.54,0,0,1,1.57,1.32A6.87,6.87,0,0,1,258.74,55a23.7,23.7,0,0,1-10,13.65A29.5,29.5,0,0,1,231.92,73.69Zm-.49-35.32a9.88,9.88,0,0,0-.32,3.21c0,.25,0,.5.07.75a8.55,8.55,0,0,0,.35-2.85A8,8,0,0,0,231.43,38.37Z"/><path class="cls-2" d="M233.07,28.72q8.38,0,13,2.87c3.49,2.2,5.47,4.82,5.94,7.89a9,9,0,0,1-1,5.86,10.26,10.26,0,0,1-4.2,4.08A24.72,24.72,0,0,1,241,51.63a25.62,25.62,0,0,1-6.18.76,13.14,13.14,0,0,1-5.54-1,14.13,14.13,0,0,0,5,4.87,10.7,10.7,0,0,0,5.42,1.49c.27,0,.53,0,.8,0A11.54,11.54,0,0,0,245.86,56a13.27,13.27,0,0,0,4.28-4.12A1.81,1.81,0,0,1,251.8,51a2.3,2.3,0,0,1,1.75.79,1.91,1.91,0,0,1,.39,1.9,18.83,18.83,0,0,1-8,10.9,24.49,24.49,0,0,1-14.06,4.16,23.94,23.94,0,0,1-16-5.63,18,18,0,0,1-6.62-14.34,18.09,18.09,0,0,1,6.14-14,23.49,23.49,0,0,1,15.17-5.94c.86,0,1.7-.06,2.5-.06m-3.45,20.1a6.12,6.12,0,0,0,5-2.49,10.54,10.54,0,0,0,1.9-6.93A12,12,0,0,0,235,33.65c-.9-1.57-2-2.35-3.38-2.35a2.42,2.42,0,0,0-.38,0c-1.69.15-3,1.4-3.92,3.72a15.44,15.44,0,0,0-1.15,6.89,20.51,20.51,0,0,0,1.58,6.73,16,16,0,0,0,1.9.16m3.45-30.07c-.95,0-1.95,0-3,.07a33.24,33.24,0,0,0-21.39,8.5,28.11,28.11,0,0,0-9.43,21.42,28,28,0,0,0,10.13,21.94,33.72,33.72,0,0,0,22.5,8,34.34,34.34,0,0,0,19.65-5.88,28.61,28.61,0,0,0,12-16.5,11.94,11.94,0,0,0-2.09-10.61,19.64,19.64,0,0,0,.36-7.66V38c-.65-4.15-3-10.08-10.49-14.8-4.72-3-10.69-4.4-18.26-4.4Z"/><path class="cls-1" d="M296.8,73.3a14.76,14.76,0,0,1-7.28-1.71,11.52,11.52,0,0,1-2.92-2.35c-3.31,4.06-11.7,4.06-17.13,4.06-1,0-2.13,0-3.43-.09s-2.87-.18-4.7-.38a23.11,23.11,0,0,1-5.64-1.23c-3.75-1.38-4.88-3.74-5.17-5.48a7.54,7.54,0,0,1,1.54-5.86,14.28,14.28,0,0,1,2.69-2.69h0a3.89,3.89,0,0,0,.52-.77,2.29,2.29,0,0,0,.25-1.16V47.55a17.28,17.28,0,0,0-.21-3,8,8,0,0,1-3.61-2.71,6.75,6.75,0,0,1-.68-7,7.85,7.85,0,0,1,5-4.06,68.86,68.86,0,0,0,7.07-2.65,32.16,32.16,0,0,0,5-3.12l.13-.09a9.44,9.44,0,0,1,5.35-1.9,7,7,0,0,1,3.37.85,7.13,7.13,0,0,1,2.6,2.47l.37.59a20.23,20.23,0,0,1,8.12-2.83,28.45,28.45,0,0,1,3.46-.22,20.21,20.21,0,0,1,12.34,3.85,16.5,16.5,0,0,1,6.8,13.75q0,5.09-.08,14.14a3.07,3.07,0,0,0,.27,1.37,3,3,0,0,0,.4.65A13.43,13.43,0,0,1,314,60.26a7.88,7.88,0,0,1,1.68,5.41C315,73.3,303.62,73.3,296.8,73.3Z"/><path class="cls-2" d="M273.67,28a2,2,0,0,1,1,.24,2.28,2.28,0,0,1,.79.79c.24.37.45.73.63,1.07a6.21,6.21,0,0,1,.52,1.5c.16.66.27,1.18.35,1.55s.21,1,.4,1.78.3,1.39.36,1.7A13.8,13.8,0,0,1,288.8,29a22.44,22.44,0,0,1,2.79-.17A15.26,15.26,0,0,1,301,31.71a11.51,11.51,0,0,1,4.79,9.75q0,5.07-.08,14.1a8,8,0,0,0,.79,3.64,6.54,6.54,0,0,0,1.78,2.34A9.3,9.3,0,0,1,310,63.28a2.93,2.93,0,0,1,.67,2q-.24,3-13.86,3A9.82,9.82,0,0,1,292,67.24a6.32,6.32,0,0,1-2.77-3.09,15.89,15.89,0,0,1-1.15-4,33.43,33.43,0,0,1-.27-4.55V46.45c0-1.69,0-3,0-3.89a23.52,23.52,0,0,0-.36-3.16,5.32,5.32,0,0,0-1.07-2.66,2.59,2.59,0,0,0-2-.83A4.8,4.8,0,0,0,279.77,39a18.15,18.15,0,0,0-1.67,7.25v9.27a8.15,8.15,0,0,0,.79,3.64,6.55,6.55,0,0,0,1.79,2.34,8.24,8.24,0,0,1,1.7,1.74,3,3,0,0,1,.63,2q-.24,3-13.54,3c-1,0-2,0-3.21-.08s-2.65-.17-4.4-.36a18.2,18.2,0,0,1-4.43-1c-1.22-.44-1.88-1-2-1.62a2.59,2.59,0,0,1,.59-2,9,9,0,0,1,1.74-1.74,7.25,7.25,0,0,0,1.86-2.34,7.17,7.17,0,0,0,.88-3.56V47.55q0-7-2.7-7.44a3.4,3.4,0,0,1-2.1-1.23,1.72,1.72,0,0,1-.19-1.9,3.09,3.09,0,0,1,2.06-1.47,70.41,70.41,0,0,0,7.68-2.89,36,36,0,0,0,5.86-3.6,4.78,4.78,0,0,1,2.54-1m0-10a14.41,14.41,0,0,0-8.17,2.77l-.13.09-.13.09A26.84,26.84,0,0,1,261,23.6,62.67,62.67,0,0,1,254.57,26a12.92,12.92,0,0,0-8,6.65,11.65,11.65,0,0,0,1.17,12.16,12.47,12.47,0,0,0,2.83,2.78v7a19.84,19.84,0,0,0-2.44,2.66,12.55,12.55,0,0,0-2.51,9.58v.11c.41,2.49,2,7,8.37,9.34a27.86,27.86,0,0,0,6.83,1.51c2,.21,3.6.34,5,.4s2.57.09,3.66.09a58.13,58.13,0,0,0,12.2-1,18.74,18.74,0,0,0,4.8-1.71l.6.35a19.63,19.63,0,0,0,9.73,2.35,60.59,60.59,0,0,0,12.39-1c9.66-2.1,11.2-8.54,11.41-11.21a12.83,12.83,0,0,0-2.67-8.84,19.42,19.42,0,0,0-2.28-2.51c.05-5.75.07-10.1.07-13.28a21.34,21.34,0,0,0-8.81-17.75,25.07,25.07,0,0,0-15.32-4.83,33.64,33.64,0,0,0-4,.24h-.16a27.18,27.18,0,0,0-6.21,1.58,10.76,10.76,0,0,0-1.82-1.23A12.06,12.06,0,0,0,273.67,18Z"/><path class="cls-1" d="M351.05,74.11a39.16,39.16,0,0,1-15.15-2.67c-5.55-2.33-8.78-5.65-9.61-9.88a10.27,10.27,0,0,1,1.58-8.25A10.64,10.64,0,0,1,331.7,50a15.3,15.3,0,0,1-2.49-4.12,14.25,14.25,0,0,1-.81-7.92c.59-3.66,2.83-8.72,10.12-11.76a39.92,39.92,0,0,1,15.36-2.72c.69,0,1.39,0,2.1,0,6,.19,10.72,1.26,14.32,3.3,4.37,2.46,6.73,5.56,7,9.19a8.94,8.94,0,0,1-2.91,7.42l-.23.2c5.3,4.22,6.44,8.91,6.32,12.46-.11,4.05-1.78,9.77-9.15,13.75-4.93,2.67-11.22,4.11-18.69,4.29Z"/><path class="cls-2" d="M353.88,28.43l1.93,0q7.77.24,12,2.66c2.85,1.61,4.36,3.36,4.52,5.27a3.87,3.87,0,0,1-1.31,3.32,4.78,4.78,0,0,1-3.38,1.15,7,7,0,0,1-.78,0,5.87,5.87,0,0,1-2.77-1,7.67,7.67,0,0,1-1.71-1.46,15.06,15.06,0,0,1-1.26-2.18c-.51-1-.81-1.59-.91-1.75a6.17,6.17,0,0,0-5.76-3.32h-.18a5.4,5.4,0,0,0-3.45,1.11,2.82,2.82,0,0,0-1,2.06c0,1.63,1.21,3,3.64,4.12q.24.15,5.51,2.61t7.41,3.56q9.35,4.52,9.11,11.25-.17,6.1-6.54,9.55T352.56,69.1c-.51,0-1,0-1.51,0a34.08,34.08,0,0,1-13.22-2.28q-5.94-2.49-6.66-6.29a5.33,5.33,0,0,1,.8-4.4,6.29,6.29,0,0,1,4.19-2.5,7.83,7.83,0,0,1,1.41-.14q4.31,0,6.83,5.61A26.52,26.52,0,0,0,346,62.17a9,9,0,0,0,6.33,3.76,12.12,12.12,0,0,0,1.84.14,7.19,7.19,0,0,0,3.55-.81,3.4,3.4,0,0,0,2.06-3,2.75,2.75,0,0,0-.51-1.55,6.44,6.44,0,0,0-1.19-1.3,14.85,14.85,0,0,0-1.82-1.23q-1.15-.68-1.83-1c-.45-.21-1.07-.48-1.86-.79s-1.24-.5-1.34-.56-1.13-.56-3.21-1.54-3.61-1.68-4.56-2.1a33.3,33.3,0,0,1-3.17-1.66A29.67,29.67,0,0,1,336.76,48a10.17,10.17,0,0,1-2.93-4,9.35,9.35,0,0,1-.52-5.19q.87-5.38,7.13-8a34.89,34.89,0,0,1,13.44-2.33m0-10a44.75,44.75,0,0,0-17.28,3.1c-7.32,3.06-12,8.58-13.12,15.56a19.14,19.14,0,0,0,1.12,10.62c.15.37.31.73.48,1.09a16.19,16.19,0,0,0-1.31,1.64,15.35,15.35,0,0,0-2.36,12.1C322.24,66.7,325.1,72.31,334,76a44,44,0,0,0,17.08,3c.59,0,1.18,0,1.78,0,8.23-.19,15.28-1.84,20.91-4.88,7.37-4,11.55-10.38,11.76-18a19.1,19.1,0,0,0-4.66-13.07,13.87,13.87,0,0,0,1.47-7.51c-.31-3.74-2.22-9-9.55-13.16C368.43,20,363,18.71,356.12,18.5c-.73,0-1.5,0-2.24,0Z"/><path class="cls-1" d="M402.78,73.69a30.94,30.94,0,0,1-19.92-6.64,22.37,22.37,0,0,1-8.75-18.15,22.35,22.35,0,0,1,8.75-18.14,33,33,0,0,1,39.81,0,22.33,22.33,0,0,1,8.79,18.1A22.33,22.33,0,0,1,422.67,67,30.84,30.84,0,0,1,402.78,73.69Zm-1.43-30.76a63,63,0,0,0,1.28,6.27,37.19,37.19,0,0,0,2,6,56.61,56.61,0,0,0-1.4-6.47A46.92,46.92,0,0,0,401.35,42.93Z"/><path class="cls-2" d="M402.78,29.1a25.89,25.89,0,0,1,16.76,5.58,17.5,17.5,0,0,1,6.93,14.22,17.47,17.47,0,0,1-6.93,14.22,28,28,0,0,1-33.55,0A17.5,17.5,0,0,1,379.1,48.9,17.5,17.5,0,0,1,386,34.64a26,26,0,0,1,16.79-5.54m3.54,34.73a4,4,0,0,0,.9-.11q4.83-1.11.79-16.24Q404.53,34,399.58,34a3.67,3.67,0,0,0-.92.11q-4.67,1.11-.87,16.32a32.94,32.94,0,0,0,4.08,10.26c1.4,2.1,2.88,3.16,4.45,3.16m-3.54-44.7a35.77,35.77,0,0,0-23,7.74,27.47,27.47,0,0,0-10.61,22,27.44,27.44,0,0,0,10.61,22,38,38,0,0,0,46.05,0,27.46,27.46,0,0,0,10.65-22,27.43,27.43,0,0,0-10.65-22,35.69,35.69,0,0,0-23-7.79Z"/><path class="cls-1" d="M442.13,89.78c-9.87,0-14.79-4.77-17.19-8.84a10.85,10.85,0,0,1,8.3-16.72,14.32,14.32,0,0,1,1.47-.08,11.13,11.13,0,0,1,4.94,1.11c-.74-1.87-1.59-3.83-2.55-5.85-1.26-2.65-2.37-4.95-3.31-6.89s-1.84-3.71-2.71-5.38l-1-1.94-.12-.12-.35-.73a9.19,9.19,0,0,0-2.11-2.79c-1.5-1.36-2.64-2.47-3.49-3.41A8.13,8.13,0,0,1,422.05,31c1.44-7.22,12.17-7.22,17.33-7.22,9.52,0,16.21.82,19,4.51,2.88-4.43,10.39-4.43,13.53-4.43a22.9,22.9,0,0,1,6.5,1c5.69,1.66,6.12,5.83,6.09,7.29a8.06,8.06,0,0,1-2.28,5.43,16,16,0,0,1-3.14,2.63,10.48,10.48,0,0,0-1.73,1.57A7.37,7.37,0,0,0,476,44l-5.64,13.1c-1.46,3.55-2.7,6.49-3.66,8.67s-2.12,4.66-3.42,7.3a48.69,48.69,0,0,1-3.92,6.74,42.1,42.1,0,0,1-4.07,4.75,17.5,17.5,0,0,1-5.9,4,19.37,19.37,0,0,1-6.43,1.29Zm16.92-45.63c.83-2.3,1.29-3.55,1.36-3.76a10.89,10.89,0,0,0,.36-1.24c-.28-.35-.6-.73-1-1.13a10.58,10.58,0,0,1-1.16-1.46,8.31,8.31,0,0,1-.57.84,14.14,14.14,0,0,0-1,1.52,8.09,8.09,0,0,0,.37,1.31Z"/><path class="cls-2" d="M439.38,28.78q14.42,0,15.37,3.17a2.61,2.61,0,0,1-.67,2.46,18.6,18.6,0,0,0-1.79,2.85q-.71,1.43.48,4.75l6.41,15.53q1.59-3.57,3.73-9.43l2.22-6.1c.79-2.32.92-3.91.39-4.75a17.6,17.6,0,0,0-2.1-2.66A3.35,3.35,0,0,1,462.27,32q.41-3.09,9.67-3.09a18.22,18.22,0,0,1,5.11.75c1.71.51,2.54,1.31,2.49,2.42a3.12,3.12,0,0,1-1,2.14A11.39,11.39,0,0,1,476.41,36a14.69,14.69,0,0,0-2.69,2.38A12.34,12.34,0,0,0,471.38,42l-5.62,13.07q-2.22,5.39-3.64,8.64c-1,2.16-2.06,4.52-3.33,7.08a42,42,0,0,1-3.49,6A33.79,33.79,0,0,1,451.74,81a12.52,12.52,0,0,1-4.2,2.86,14.29,14.29,0,0,1-4.75,1h-.66q-9.22,0-13-6.5a5.88,5.88,0,0,1,4.6-9.11c.32,0,.64-.05.95-.05a5.72,5.72,0,0,1,3.84,1.32,8,8,0,0,1,2.53,3.68A18.22,18.22,0,0,0,442.83,78a3,3,0,0,0,2.49,1.79,1,1,0,0,0,.4-.08,2.69,2.69,0,0,0,1.9-2.54,13.76,13.76,0,0,0-.56-5.42c-.58-2.2-1.32-4.49-2.21-6.9s-2-4.93-3.25-7.6-2.38-5-3.33-6.93-1.87-3.79-2.77-5.51-1.37-2.6-1.43-2.65a13.94,13.94,0,0,0-3.24-4.32,43,43,0,0,1-3.13-3.05,3.14,3.14,0,0,1-.76-2.85q.65-3.16,12.44-3.17m0-10a47.65,47.65,0,0,0-11.47,1.1c-8,2-10.17,7.19-10.75,10.09v.08a13.19,13.19,0,0,0,3.14,11.4,52.38,52.38,0,0,0,3.85,3.77,4.14,4.14,0,0,1,1,1.26l.7,1.45.18.19.68,1.3c.86,1.63,1.75,3.4,2.64,5.24.69,1.4,1.45,3,2.28,4.72a15.83,15.83,0,0,0-10.87,24.17c4.3,7.22,11.9,11.19,21.42,11.19h1a24,24,0,0,0,8.08-1.63A22.39,22.39,0,0,0,458.79,88a46.81,46.81,0,0,0,4.58-5.35,52.24,52.24,0,0,0,4.36-7.46c1.33-2.7,2.52-5.22,3.52-7.5s2.22-5.17,3.7-8.78l5.59-13,0,0v0a2.66,2.66,0,0,1,.47-.75,8.33,8.33,0,0,1,.82-.8,20.87,20.87,0,0,0,4.06-3.41,13,13,0,0,0,3.59-8.73c.09-4.34-2.37-10-9.66-12.16a28.51,28.51,0,0,0-7.91-1.15,33.14,33.14,0,0,0-10.09,1.24,16.55,16.55,0,0,0-3.68,1.68,20.68,20.68,0,0,0-5.73-2,66.13,66.13,0,0,0-13.06-1Z"/><path class="cls-1" d="M508.53,69.8a10.87,10.87,0,0,1-7.71-2.86c-2.81-2.68-3.79-6.68-2.93-11.89a44.42,44.42,0,0,1,5.18-14.6,11.26,11.26,0,0,1-5.71,1.4,15.5,15.5,0,0,1-2.12-.14,14.37,14.37,0,0,1-8.35-3.51c-3.39-3.16-4.62-8.34-3.31-13.84C486.77,11.05,500.36,5,511.63,5h.89a32.4,32.4,0,0,1,7.11,1,26.81,26.81,0,0,1,14.58,9,19.91,19.91,0,0,1,3.72,17.87c-1.65,5.4-5.54,9.1-9,12.37a40.81,40.81,0,0,0-4.76,5,16.66,16.66,0,0,0-3.06,7.32l-.12.88a25.67,25.67,0,0,1-.48,2.77,11,11,0,0,1-1.95,4.2,11.69,11.69,0,0,1-7.6,4.19A14.89,14.89,0,0,1,508.53,69.8Zm2.17-42.16a2.76,2.76,0,0,0-1.49.36c-.75.52-1.35,2.05-1.59,4.08l0,.34c-.06.52-.13,1.13-.26,1.8.58-.71,1.18-1.4,1.81-2.07.26-.29.53-.57.8-.85a16.08,16.08,0,0,0,2.14-2.56,2.5,2.5,0,0,0,.3-.75,3.21,3.21,0,0,0-.95-.3A4.43,4.43,0,0,0,510.7,27.64Z"/><path class="cls-2" d="M511.63,10h.76a28.51,28.51,0,0,1,6,.82,21.83,21.83,0,0,1,11.88,7.25,14.94,14.94,0,0,1,2.87,13.32c-2,6.6-8.86,10.35-13,15.9a21.69,21.69,0,0,0-4,9.52c-.17,1.06-.27,2.18-.53,3.22a6.09,6.09,0,0,1-1.05,2.35,6.94,6.94,0,0,1-4.47,2.31,10,10,0,0,1-1.65.14,6,6,0,0,1-4.27-1.48c-1.91-1.82-1.88-4.86-1.45-7.47a39.55,39.55,0,0,1,10-20.32,25.09,25.09,0,0,0,3.61-4.31,6,6,0,0,0,.57-5.39,6.16,6.16,0,0,0-4.77-3.07,9.26,9.26,0,0,0-1.49-.12,7.58,7.58,0,0,0-4.33,1.25c-2.38,1.66-3.35,4.71-3.7,7.59a7.75,7.75,0,0,1-.95,3.6,5.08,5.08,0,0,1-4.36,1.78,12.46,12.46,0,0,1-1.5-.1,9.87,9.87,0,0,1-5.57-2.21c-2.35-2.2-2.61-5.9-1.86-9C490.9,15.21,501.71,10,511.63,10m0-10h0c-13.17,0-29.08,7.26-32.9,23.2-1.73,7.27,0,14.24,4.75,18.64a19.23,19.23,0,0,0,11.13,4.82l.24,0A49.48,49.48,0,0,0,493,54.23c-1.43,8.65,1.61,13.65,4.4,16.32a16,16,0,0,0,11.16,4.23,20.34,20.34,0,0,0,3.28-.27,16.61,16.61,0,0,0,10.75-6.07,15.87,15.87,0,0,0,2.83-6A31.27,31.27,0,0,0,526,59.1c0-.26.07-.52.11-.78a11.68,11.68,0,0,1,2.14-5.12,36.92,36.92,0,0,1,4.19-4.39c3.68-3.51,8.26-7.87,10.29-14.51a25,25,0,0,0-4.58-22.43A31.82,31.82,0,0,0,520.85,1.13,38.11,38.11,0,0,0,512.66,0Z"/><path class="cls-1" d="M509.1,91a6.27,6.27,0,0,1-5.66-3.55A6.43,6.43,0,0,0,502.39,86a6.3,6.3,0,0,0-1.82-1.32,6.28,6.28,0,0,1-.08-11.29,6.31,6.31,0,0,0,1.61-1.13,6.59,6.59,0,0,0,1.34-1.84,6.27,6.27,0,0,1,11.28,0,7.44,7.44,0,0,0,.9,1.38,6.86,6.86,0,0,0,2.07,1.62,6.27,6.27,0,0,1-.2,11.27,5.5,5.5,0,0,0-.81.47,5.76,5.76,0,0,0-1.91,2.31A6.23,6.23,0,0,1,509.1,91Z"/><path class="cls-2" d="M509.07,71.84a1.28,1.28,0,0,1,1.17.73,11.6,11.6,0,0,0,5.19,5.25,1.29,1.29,0,0,1,0,2.31,10.48,10.48,0,0,0-5.11,5.15,1.28,1.28,0,0,1-1.17.75,1.3,1.3,0,0,1-1.18-.75A11.41,11.41,0,0,0,506,82.53a11.16,11.16,0,0,0-3.28-2.39,1.3,1.3,0,0,1,0-2.34,11.42,11.42,0,0,0,2.84-2,11.56,11.56,0,0,0,2.36-3.25,1.27,1.27,0,0,1,1.15-.72m0-10A11.18,11.18,0,0,0,499,68.18a1.35,1.35,0,0,1-.31.43,1.65,1.65,0,0,1-.38.27,11.27,11.27,0,0,0,.14,20.25,1,1,0,0,1,.35.25,1,1,0,0,1,.2.28,11.28,11.28,0,0,0,20.32-.09.92.92,0,0,1,.25-.36l.07,0A11.26,11.26,0,0,0,520,68.94a1.89,1.89,0,0,1-.53-.41,2.07,2.07,0,0,1-.22-.35,11.21,11.21,0,0,0-10.13-6.31Z"/><path class="cls-1" d="M32,92.78l-.89,0a32.56,32.56,0,0,1-7.11-1,26.79,26.79,0,0,1-14.58-9A19.94,19.94,0,0,1,5.74,64.93c1.65-5.4,5.54-9.1,9-12.36a42.38,42.38,0,0,0,4.76-5,16.65,16.65,0,0,0,3.05-7.32c.05-.29.09-.59.13-.88a25.11,25.11,0,0,1,.48-2.76,11,11,0,0,1,1.94-4.21,11.72,11.72,0,0,1,7.61-4.19,14.87,14.87,0,0,1,2.47-.2,10.9,10.9,0,0,1,7.71,2.85c2.8,2.68,3.79,6.68,2.93,11.89a44.67,44.67,0,0,1-5.19,14.6,11.31,11.31,0,0,1,5.71-1.4,15.65,15.65,0,0,1,2.13.14,14.4,14.4,0,0,1,8.35,3.51c3.38,3.17,4.62,8.34,3.3,13.84C56.91,86.71,43.32,92.78,32,92.78Zm-.73-23a3.11,3.11,0,0,0,.95.3,4.37,4.37,0,0,0,.72.06,2.69,2.69,0,0,0,1.48-.37c.76-.52,1.35-2.05,1.59-4.08l0-.34c.06-.52.13-1.13.26-1.8-.58.71-1.18,1.4-1.8,2.08l-.8.84A15.68,15.68,0,0,0,31.6,69,2.43,2.43,0,0,0,31.31,69.77Z"/><path class="cls-2" d="M35.15,33a6.07,6.07,0,0,1,4.26,1.48c1.92,1.82,1.89,4.86,1.46,7.47a39.57,39.57,0,0,1-10,20.32,25.56,25.56,0,0,0-3.61,4.31,6,6,0,0,0-.56,5.39A6.19,6.19,0,0,0,31.48,75a10.7,10.7,0,0,0,1.5.11,7.6,7.6,0,0,0,4.33-1.25c2.38-1.65,3.35-4.71,3.7-7.59a7.64,7.64,0,0,1,1-3.6,5.07,5.07,0,0,1,4.35-1.78,12.19,12.19,0,0,1,1.5.1,9.81,9.81,0,0,1,5.57,2.21c2.36,2.2,2.61,5.9,1.86,9C52.77,82.55,42,87.79,32,87.79h-.75a28.43,28.43,0,0,1-6-.82,21.83,21.83,0,0,1-11.88-7.25,14.91,14.91,0,0,1-2.87-13.32c2-6.6,8.86-10.35,13-15.9a21.65,21.65,0,0,0,4-9.52c.17-1.06.27-2.17.52-3.22A6.18,6.18,0,0,1,29,35.4a6.92,6.92,0,0,1,4.46-2.31A10.14,10.14,0,0,1,35.15,33m0-10h0a20.25,20.25,0,0,0-3.28.27,16.58,16.58,0,0,0-10.75,6.07,16,16,0,0,0-2.83,6.06,28.5,28.5,0,0,0-.58,3.29c0,.26-.07.52-.11.78a11.69,11.69,0,0,1-2.14,5.11A38.57,38.57,0,0,1,11.27,49C7.59,52.46,3,56.82,1,63.47A25,25,0,0,0,5.55,85.89,31.79,31.79,0,0,0,22.83,96.63,38,38,0,0,0,31,97.75h1c13.17,0,29.09-7.26,32.9-23.2,1.74-7.27,0-14.24-4.75-18.64A19.17,19.17,0,0,0,49.07,51.1l-.25,0a49.22,49.22,0,0,0,1.89-7.54c1.42-8.65-1.61-13.64-4.41-16.31A16,16,0,0,0,35.15,23Z"/><path class="cls-1" d="M34.6,30.91A6.23,6.23,0,0,1,29,27.39a6.72,6.72,0,0,0-3-3,6.28,6.28,0,0,1,.2-11.27,5.31,5.31,0,0,0,.81-.46,5.74,5.74,0,0,0,1.91-2.31,6.29,6.29,0,0,1,11.34-.05,6.15,6.15,0,0,0,1,1.52,6.39,6.39,0,0,0,1.81,1.32,6.28,6.28,0,0,1,.08,11.29,7,7,0,0,0-1.61,1.13,6.59,6.59,0,0,0-1.34,1.84,6.23,6.23,0,0,1-5.63,3.52Z"/><path class="cls-2" d="M34.57,11.73a1.31,1.31,0,0,1,1.19.75A11,11,0,0,0,41,17.62,1.3,1.3,0,0,1,41,20a11.21,11.21,0,0,0-2.84,2,11.52,11.52,0,0,0-2.36,3.24,1.3,1.3,0,0,1-2.33,0,11.3,11.3,0,0,0-1.58-2.41,11.7,11.7,0,0,0-3.6-2.84,1.29,1.29,0,0,1,0-2.31,10.53,10.53,0,0,0,5.12-5.15,1.27,1.27,0,0,1,1.16-.75m0-10A11.32,11.32,0,0,0,24.4,8.2a.89.89,0,0,1-.25.35l-.08,0a11.26,11.26,0,0,0-.35,20.22,1.74,1.74,0,0,1,.53.41,1.63,1.63,0,0,1,.23.35,11.26,11.26,0,0,0,20.23,0,1.78,1.78,0,0,1,.32-.44,1.53,1.53,0,0,1,.38-.27,11.27,11.27,0,0,0-.15-20.25,1,1,0,0,1-.35-.25.92.92,0,0,1-.19-.28A11.24,11.24,0,0,0,34.57,1.76Z"/><path class="cls-1" d="M116.35,68.63a7,7,0,0,1,5,2.21,7.31,7.31,0,0,1,2.1,5.79,10.06,10.06,0,0,1-3.49,7.28A12.47,12.47,0,0,1,112,86.77a20.52,20.52,0,0,1-7.88-1.19,20.22,20.22,0,0,1-6.66-4,42.87,42.87,0,0,1-5.11-5.47,75.79,75.79,0,0,1-4.51-6.65A28.87,28.87,0,0,1,69.61,60.7,25.78,25.78,0,0,1,62.32,42q0-12.12,8.48-19.88a29.36,29.36,0,0,1,20.59-7.77A29.54,29.54,0,0,1,112,22.13q8.52,7.76,8.51,19.88a26,26,0,0,1-6.25,17.51,28.16,28.16,0,0,1-16,9.34q3.87,6,7.36,6.18a2.94,2.94,0,0,0,1.9-.63,6,6,0,0,0,1.39-1.63,16.2,16.2,0,0,1,1.39-1.94,5.84,5.84,0,0,1,2.29-1.58A9.72,9.72,0,0,1,116.35,68.63ZM85.53,20.07q-3.09.87-4.12,4.95a25.24,25.24,0,0,0-.47,9A78.44,78.44,0,0,0,83,44.78a46.16,46.16,0,0,0,6.18,14.54q3.79,5.51,8.31,4.47,2.94-.7,4.12-4.67a24.4,24.4,0,0,0,.76-9,70.07,70.07,0,0,0-1.87-10.77A49.77,49.77,0,0,0,95,25.65q-3.52-5.82-7.8-5.82A5.71,5.71,0,0,0,85.53,20.07Z"/><path class="cls-1" d="M172.51,55.56a8,8,0,0,0,.79,3.64,6.19,6.19,0,0,0,1.78,2.3,8.28,8.28,0,0,1,1.75,1.7,2.93,2.93,0,0,1,.67,2q-.31,3.09-13.94,3.09-7.29,0-8.56-7.21a13.62,13.62,0,0,1-11,7.37q-7.37.94-12.16-2.62A11.48,11.48,0,0,1,127,56.11V47.24q0-6.9-2.69-7.45a3.12,3.12,0,0,1-2.1-1.15,1.78,1.78,0,0,1-.2-1.94,3.05,3.05,0,0,1,2.06-1.5c.58-.16,1.58-.48,3-1l2.85-1q.72-.24,2.34-.84c1.08-.39,1.94-.73,2.57-1l2.38-1.11c1-.45,1.93-1,2.93-1.55a5.7,5.7,0,0,1,2.46-.87,2,2,0,0,1,.87.2,1.87,1.87,0,0,1,.67.59,4.14,4.14,0,0,1,.44.83,7.6,7.6,0,0,1,.27,1.15c.08.48.13.9.16,1.27s0,.85,0,1.43v1.46c0,.4,0,.93,0,1.59s0,1.14,0,1.46V50q0,7.37.71,9.35a3.25,3.25,0,0,0,2.86,2.22,4.67,4.67,0,0,0,4.2-2.62,15.14,15.14,0,0,0,1.82-6.34V47.24q0-6.9-2.7-7.45a3.12,3.12,0,0,1-2.1-1.15,1.8,1.8,0,0,1-.19-1.94,3,3,0,0,1,2.06-1.5c.58-.16,1.58-.48,3-1l2.85-1,2.34-.84c1.08-.39,1.94-.73,2.57-1l2.38-1.11c.95-.45,1.92-1,2.93-1.55a5.67,5.67,0,0,1,2.45-.87,1.92,1.92,0,0,1,.87.2,1.82,1.82,0,0,1,.68.59,3.64,3.64,0,0,1,.43.83,6.45,6.45,0,0,1,.28,1.15c.08.48.13.9.16,1.27s0,.85,0,1.43v1.46c0,.4,0,.93,0,1.59s0,1.14,0,1.46Q172.52,41.7,172.51,55.56Z"/><path class="cls-1" d="M202.85,55.56a8.43,8.43,0,0,0,.75,3.64,6.44,6.44,0,0,0,1.7,2.34,7.69,7.69,0,0,1,1.63,1.74,3.11,3.11,0,0,1,.59,2q-.24,3-13.31,3c-.89,0-1.91,0-3.05-.08s-2.54-.17-4.23-.36a16.9,16.9,0,0,1-4.28-1c-1.16-.44-1.8-1-1.9-1.62a2.84,2.84,0,0,1,1-2.42A25.15,25.15,0,0,0,184.31,60a6.92,6.92,0,0,0,1.35-4.31V47.55q0-7-2.61-7.52a2.78,2.78,0,0,1-2-1.15,1.88,1.88,0,0,1-.16-1.9,2.9,2.9,0,0,1,1.94-1.47q6.25-2.05,15.44-4.59a6.81,6.81,0,0,1,1.59-.24,2.49,2.49,0,0,1,2,.83,4.22,4.22,0,0,1,.91,2.14,25.18,25.18,0,0,1,.24,3,33.34,33.34,0,0,1-.12,3.45Zm-2.14-29.67a11.63,11.63,0,0,1-7.53,2.5,11.79,11.79,0,0,1-7.56-2.5,7.35,7.35,0,0,1,0-12,11.79,11.79,0,0,1,7.56-2.5,11.67,11.67,0,0,1,7.49,2.5,7.43,7.43,0,0,1,3.13,6A7.53,7.53,0,0,1,200.71,25.89Z"/><path class="cls-1" d="M250.14,51.91A1.81,1.81,0,0,1,251.8,51a2.3,2.3,0,0,1,1.75.79,1.91,1.91,0,0,1,.39,1.9,18.83,18.83,0,0,1-8,10.9,24.49,24.49,0,0,1-14.06,4.16,23.94,23.94,0,0,1-16-5.63,18,18,0,0,1-6.62-14.34,18.09,18.09,0,0,1,6.14-14,23.49,23.49,0,0,1,15.17-5.94Q240.8,28.3,246,31.59c3.49,2.2,5.47,4.82,5.94,7.89a9,9,0,0,1-1,5.86,10.26,10.26,0,0,1-4.2,4.08A24.72,24.72,0,0,1,241,51.63a25.62,25.62,0,0,1-6.18.76,13.14,13.14,0,0,1-5.54-1,14.13,14.13,0,0,0,5,4.87,10.71,10.71,0,0,0,6.22,1.46A11.54,11.54,0,0,0,245.86,56,13.27,13.27,0,0,0,250.14,51.91ZM231.21,31.32c-1.69.15-3,1.4-3.92,3.72a15.44,15.44,0,0,0-1.15,6.89,20.51,20.51,0,0,0,1.58,6.73,16,16,0,0,0,1.9.16,6.12,6.12,0,0,0,5-2.49,10.54,10.54,0,0,0,1.9-6.93A12,12,0,0,0,235,33.65Q233.5,31.09,231.21,31.32Z"/><path class="cls-1" d="M305.67,55.56a8,8,0,0,0,.79,3.64,6.54,6.54,0,0,0,1.78,2.34A9.3,9.3,0,0,1,310,63.28a2.93,2.93,0,0,1,.67,2q-.24,3-13.86,3A9.82,9.82,0,0,1,292,67.24a6.32,6.32,0,0,1-2.77-3.09,15.89,15.89,0,0,1-1.15-4,33.43,33.43,0,0,1-.27-4.55V46.45c0-1.69,0-3,0-3.89a23.52,23.52,0,0,0-.36-3.16,5.32,5.32,0,0,0-1.07-2.66,2.59,2.59,0,0,0-2-.83A4.8,4.8,0,0,0,279.77,39a18.15,18.15,0,0,0-1.67,7.25v9.27a8.15,8.15,0,0,0,.79,3.64,6.55,6.55,0,0,0,1.79,2.34,8.24,8.24,0,0,1,1.7,1.74,3,3,0,0,1,.63,2q-.24,3-13.54,3c-1,0-2,0-3.21-.08s-2.65-.17-4.4-.36a18.2,18.2,0,0,1-4.43-1c-1.22-.44-1.88-1-2-1.62a2.59,2.59,0,0,1,.59-2,9,9,0,0,1,1.74-1.74,7.25,7.25,0,0,0,1.86-2.34,7.17,7.17,0,0,0,.88-3.56V47.55q0-7-2.7-7.44a3.4,3.4,0,0,1-2.1-1.23,1.72,1.72,0,0,1-.19-1.9,3.09,3.09,0,0,1,2.06-1.47,70.41,70.41,0,0,0,7.68-2.89,36,36,0,0,0,5.86-3.6,4.78,4.78,0,0,1,2.54-1,2,2,0,0,1,1,.24,2.28,2.28,0,0,1,.79.79c.24.37.45.73.63,1.07a6.21,6.21,0,0,1,.52,1.5c.16.66.27,1.18.35,1.55s.21,1,.4,1.78.3,1.39.36,1.7A13.8,13.8,0,0,1,288.8,29q7.36-.87,12.16,2.69a11.51,11.51,0,0,1,4.79,9.75Q305.75,46.53,305.67,55.56Z"/><path class="cls-1" d="M366.43,44.62q9.35,4.52,9.1,11.25-.15,6.1-6.53,9.55T352.56,69.1q-8.79.24-14.73-2.26t-6.66-6.29a5.33,5.33,0,0,1,.8-4.4,6.29,6.29,0,0,1,4.2-2.5q5.29-1,8.23,5.47A26.52,26.52,0,0,0,346,62.17a9.89,9.89,0,0,0,11.72,3.09,3.4,3.4,0,0,0,2.06-3,2.75,2.75,0,0,0-.51-1.55,6.44,6.44,0,0,0-1.19-1.3,14.85,14.85,0,0,0-1.82-1.23q-1.15-.68-1.83-1c-.45-.21-1.07-.48-1.86-.79s-1.24-.5-1.34-.56-1.13-.56-3.21-1.54-3.61-1.68-4.56-2.1a33.3,33.3,0,0,1-3.17-1.66A29.67,29.67,0,0,1,336.76,48a10.17,10.17,0,0,1-2.93-4,9.35,9.35,0,0,1-.52-5.19q.87-5.38,7.13-8t15.37-2.3q7.77.24,12,2.66c2.85,1.61,4.36,3.36,4.52,5.27a3.87,3.87,0,0,1-1.31,3.32,5.2,5.2,0,0,1-4.16,1.11,5.87,5.87,0,0,1-2.77-1,7.41,7.41,0,0,1-1.71-1.46,15.06,15.06,0,0,1-1.26-2.18c-.51-1-.81-1.59-.91-1.75a6.19,6.19,0,0,0-5.94-3.32,5.4,5.4,0,0,0-3.45,1.11,2.82,2.82,0,0,0-1,2.06c0,1.63,1.21,3,3.64,4.12q.24.15,5.51,2.61T366.43,44.62Z"/><path class="cls-1" d="M402.78,29.1a25.89,25.89,0,0,1,16.76,5.58,17.5,17.5,0,0,1,6.93,14.22,17.47,17.47,0,0,1-6.93,14.22,28,28,0,0,1-33.55,0A17.5,17.5,0,0,1,379.1,48.9,17.5,17.5,0,0,1,386,34.64,26,26,0,0,1,402.78,29.1Zm4.44,34.62q4.83-1.11.79-16.24-3.79-14.74-9.35-13.39-4.67,1.11-.87,16.32a32.94,32.94,0,0,0,4.08,10.26Q404.38,64.42,407.22,63.72Z"/><path class="cls-1" d="M471.94,28.86a18.22,18.22,0,0,1,5.11.75c1.71.51,2.54,1.31,2.49,2.42a3.12,3.12,0,0,1-1,2.14A11.39,11.39,0,0,1,476.41,36a14.69,14.69,0,0,0-2.69,2.38A12.34,12.34,0,0,0,471.38,42l-5.62,13.07q-2.22,5.39-3.64,8.64c-1,2.16-2.06,4.52-3.33,7.08a42,42,0,0,1-3.49,6A33.79,33.79,0,0,1,451.74,81a12.52,12.52,0,0,1-4.2,2.86,14.29,14.29,0,0,1-4.75,1q-9.75.22-13.63-6.5a5.88,5.88,0,0,1,4.6-9.11,6.06,6.06,0,0,1,4.79,1.27,8,8,0,0,1,2.53,3.68A18.22,18.22,0,0,0,442.83,78a3,3,0,0,0,2.49,1.79,1,1,0,0,0,.4-.08,2.69,2.69,0,0,0,1.9-2.54,13.92,13.92,0,0,0-.55-5.42c-.59-2.2-1.33-4.49-2.22-6.9s-2-4.93-3.25-7.6-2.38-5-3.33-6.93-1.87-3.79-2.77-5.51-1.37-2.6-1.43-2.65a13.94,13.94,0,0,0-3.24-4.32,43,43,0,0,1-3.13-3.05,3.14,3.14,0,0,1-.76-2.85q.65-3.16,12.44-3.17,14.42,0,15.37,3.17a2.61,2.61,0,0,1-.67,2.46,18.6,18.6,0,0,0-1.79,2.85q-.71,1.43.48,4.75l6.41,15.53q1.59-3.57,3.73-9.43l2.22-6.1c.79-2.32.92-3.91.39-4.75a17.6,17.6,0,0,0-2.1-2.66A3.35,3.35,0,0,1,462.27,32Q462.68,28.86,471.94,28.86Z"/><path class="cls-1" d="M515.7,60a6.09,6.09,0,0,1-1.05,2.35,6.94,6.94,0,0,1-4.47,2.31c-2.07.34-4.4.11-5.92-1.34-1.91-1.82-1.88-4.86-1.45-7.47a39.55,39.55,0,0,1,10-20.32,25.09,25.09,0,0,0,3.61-4.31,6,6,0,0,0,.57-5.39,6.16,6.16,0,0,0-4.77-3.07,8.06,8.06,0,0,0-5.82,1.13c-2.38,1.66-3.35,4.71-3.7,7.59a7.75,7.75,0,0,1-.95,3.6c-1.22,1.76-3.73,1.95-5.86,1.68a9.87,9.87,0,0,1-5.57-2.21c-2.35-2.2-2.61-5.9-1.86-9C491,15,502.26,9.71,512.39,10a28.51,28.51,0,0,1,6,.82,21.83,21.83,0,0,1,11.88,7.25,14.94,14.94,0,0,1,2.87,13.32c-2,6.6-8.86,10.35-13,15.9a21.69,21.69,0,0,0-4,9.52C516.06,57.85,516,59,515.7,60Z"/><path class="cls-1" d="M510.24,72.57a1.29,1.29,0,0,0-2.32,0,11.56,11.56,0,0,1-2.36,3.25,11.42,11.42,0,0,1-2.84,2,1.3,1.3,0,0,0,0,2.34A11.16,11.16,0,0,1,506,82.53a11.41,11.41,0,0,1,1.91,2.75,1.3,1.3,0,0,0,2.35,0,10.48,10.48,0,0,1,5.11-5.15,1.29,1.29,0,0,0,0-2.31,11.6,11.6,0,0,1-5.19-5.25Z"/><path class="cls-1" d="M28,37.75A6.18,6.18,0,0,1,29,35.4a6.92,6.92,0,0,1,4.46-2.31c2.07-.34,4.41-.11,5.92,1.34,1.92,1.82,1.89,4.86,1.46,7.47a39.57,39.57,0,0,1-10,20.32,25.56,25.56,0,0,0-3.61,4.31,6,6,0,0,0-.56,5.39A6.19,6.19,0,0,0,31.48,75a8.14,8.14,0,0,0,5.83-1.14c2.38-1.65,3.35-4.71,3.7-7.59a7.64,7.64,0,0,1,1-3.6c1.22-1.75,3.73-2,5.85-1.68a9.81,9.81,0,0,1,5.57,2.21c2.36,2.2,2.61,5.9,1.86,9-2.53,10.57-13.82,15.81-24,15.54a28.43,28.43,0,0,1-6-.82,21.83,21.83,0,0,1-11.88-7.25,14.91,14.91,0,0,1-2.87-13.32c2-6.6,8.86-10.35,13-15.9a21.65,21.65,0,0,0,4-9.52C27.62,39.91,27.72,38.8,28,37.75Z"/><path class="cls-1" d="M33.43,25.19a1.3,1.3,0,0,0,2.33,0A11.51,11.51,0,0,1,41,20a1.3,1.3,0,0,0,0-2.34,11,11,0,0,1-5.19-5.14,1.3,1.3,0,0,0-2.35,0,10.53,10.53,0,0,1-5.12,5.15,1.29,1.29,0,0,0,0,2.31,11.7,11.7,0,0,1,3.6,2.84A11.3,11.3,0,0,1,33.43,25.19Z"/></g></g></svg>