<svg xmlns="http://www.w3.org/2000/svg" viewBox="0 0 854.4 459.31"><defs><style>.cls-1{fill:#fff;}</style></defs><g id="Capa_2" data-name="Capa 2"><g id="Capa_3" data-name="Capa 3"><path class="cls-1" d="M111.32,6.39q78.65,0,89.8,4.78,9.3,4,9.3,30.55v1.86c0,3.55,0,6.42-.14,8.64a68.33,68.33,0,0,1-1.06,8.63A16.72,16.72,0,0,1,205.9,69a7.68,7.68,0,0,1-6.11,2.79q-4.51,0-8-7.44A97.93,97.93,0,0,1,186,47.7,43.36,43.36,0,0,0,177.34,31a19.64,19.64,0,0,0-15.81-7.57h-25Q122.48,25,122.48,49.16V91.4h1.33a26.91,26.91,0,0,0,12.88-2.79,19.67,19.67,0,0,0,7.71-6.91,64.58,64.58,0,0,0,4.25-8.1,24.41,24.41,0,0,1,4.25-6.77A8.07,8.07,0,0,1,159.14,64a9.65,9.65,0,0,1,3.72.66,5.48,5.48,0,0,1,2.53,2.13c.61,1,1.15,1.86,1.59,2.65a9,9,0,0,1,.8,3.72c.08,1.69.13,2.93.13,3.72v45.7c0,.79,0,2-.13,3.72a9,9,0,0,1-.8,3.72c-.44.79-1,1.68-1.59,2.65a5.37,5.37,0,0,1-2.53,2.13,9.65,9.65,0,0,1-3.72.66,8.07,8.07,0,0,1-6.24-2.79,24.41,24.41,0,0,1-4.25-6.77,57.64,57.64,0,0,0-4.25-8,20.12,20.12,0,0,0-7.71-6.78,26.91,26.91,0,0,0-12.88-2.79h-1.33v31.88a27,27,0,0,0,2.66,12.22,21.82,21.82,0,0,0,6,7.84,30.82,30.82,0,0,1,5.84,5.85,9.83,9.83,0,0,1,2.26,6.77q-1.07,10.09-47.82,10.1c-3,0-6.64-.14-10.89-.4s-9.35-.71-15.28-1.33a69.76,69.76,0,0,1-15.14-3.06c-4.17-1.41-6.42-3.18-6.78-5.31q-.8-4.25,3.32-8.23a95.12,95.12,0,0,0,8.77-10,22.86,22.86,0,0,0,4.65-14.48V49.16A22.88,22.88,0,0,0,55.4,34.68a96,96,0,0,0-8.77-10q-4.11-4-3.32-8.24Q43.85,13.3,53,11A135.13,135.13,0,0,1,75.33,7.85q13.14-.93,21.78-1.2t14.21-.26m0-6.39c-3.73,0-8.44.09-14.4.27s-13.23.59-22,1.21a142,142,0,0,0-23.4,3.35C45.33,6.35,38.15,8.92,37,15.36c-.63,3.49-.24,8.72,5.17,14a89,89,0,0,1,8.17,9.3,16.52,16.52,0,0,1,3.3,10.55v91.12a16.55,16.55,0,0,1-3.3,10.56,91.08,91.08,0,0,1-8.17,9.3c-5.41,5.23-5.81,10.46-5.17,13.94.8,4.58,4.5,8,11,10.24a75.69,75.69,0,0,0,16.54,3.36c5.91.62,11.14,1.08,15.54,1.35s8.16.41,11.29.41c16.18,0,28.17-.87,36.65-2.66,4.08-.86,16.5-3.48,17.52-13.15v-.19a16.07,16.07,0,0,0-3.54-11.11,37.22,37.22,0,0,0-7.06-7.07,16.09,16.09,0,0,1-4.14-5.61,20.88,20.88,0,0,1-2-9.37V115.21a16.52,16.52,0,0,1,4.8,1.61,14,14,0,0,1,5.33,4.57,52,52,0,0,1,3.79,7.09,30.57,30.57,0,0,0,5.38,8.52,14.41,14.41,0,0,0,11,4.89,16,16,0,0,0,6.19-1.16,11.77,11.77,0,0,0,5.44-4.58c.67-1.06,1.28-2.06,1.79-3a14.74,14.74,0,0,0,1.6-6.49c.09-1.88.14-3.16.14-4.06V76.92c0-.89-.05-2.18-.14-4a14.78,14.78,0,0,0-1.58-6.47c-.52-.93-1.1-1.9-1.8-3a11.84,11.84,0,0,0-5.45-4.6,16.13,16.13,0,0,0-6.19-1.16,14.46,14.46,0,0,0-11,4.89,30.93,30.93,0,0,0-5.37,8.52A60.76,60.76,0,0,1,139,78.37,13.6,13.6,0,0,1,133.67,83a16.22,16.22,0,0,1-4.8,1.6V49.16c0-17.56,5.72-19.07,8.07-19.38h24.59A13.25,13.25,0,0,1,172.41,35a37,37,0,0,1,7.38,14.28A105.19,105.19,0,0,0,186,67c3.42,7.38,8.05,11.13,13.76,11.13a14,14,0,0,0,11-5c2.37-2.77,3.93-6.42,4.76-11.15a74.19,74.19,0,0,0,1.16-9.48c.09-2.34.14-5.33.14-8.9V41.72c0-21-4.19-32.57-13.17-36.42C197.88,2.83,182.18,0,111.32,0Z"/><path class="cls-1" d="M287.2,51.82q32.93,0,56.18,18.73t23.25,47.68q0,29-23.25,47.69T287.2,184.65q-33.22,0-56.33-18.6t-23.11-47.82q0-29.22,23.11-47.82T287.2,51.82m11.86,116.47a12.06,12.06,0,0,0,3-.38q16.2-3.72,2.66-54.46Q293,68.18,276.45,68.18a13.07,13.07,0,0,0-3.07.37q-15.67,3.74-2.92,54.73,5.31,21.79,13.68,34.4,7,10.62,14.92,10.61M287.2,45.43c-23.53,0-43.83,6.73-60.33,20-16.92,13.61-25.5,31.37-25.5,52.79s8.58,39.19,25.5,52.8c16.5,13.28,36.79,20,60.33,20,23.35,0,43.6-6.78,60.19-20.14,17-13.71,25.63-31.42,25.63-52.67s-8.62-39-25.63-52.66C330.8,52.21,310.55,45.43,287.2,45.43ZM299.06,161.9c-3.68,0-7.25-4.21-9.6-7.75-5.14-7.75-9.45-18.65-12.79-32.38-8.24-32.94-5.28-42.83-3.62-45.55a2.68,2.68,0,0,1,1.81-1.45,6.65,6.65,0,0,1,1.59-.2c3.93,0,7.58,4.52,9.95,8.31,4.34,7,8.43,17.78,12.14,32.17v0c8.65,32.42,5.76,42.28,4.11,45a2.94,2.94,0,0,1-2,1.58h-.12a5.86,5.86,0,0,1-1.46.19Z"/><path class="cls-1" d="M446.86,10.91a7.45,7.45,0,0,1,5,1.85A6.09,6.09,0,0,1,454,17.55V62.71h21.78A5.45,5.45,0,0,1,481.13,68v6.11a5.47,5.47,0,0,1-5.32,5.32H454v43.3c0,1.24,0,3.76-.13,7.57s-.09,6.51,0,8.1.22,3.9.4,6.91a22.1,22.1,0,0,0,1.19,6.78q.93,2.25,2.26,5a8.16,8.16,0,0,0,3.72,4,15.16,15.16,0,0,0,5.58,1.46,9.21,9.21,0,0,0,3.72-.53,7.66,7.66,0,0,1,2.2-.34,6.12,6.12,0,0,1,5.1,2.86q2.79,3.85-.13,7.31-10.63,12-30.55,13.81-4.59.42-8.85.42-19.82,0-32.06-9.18-14.88-11.16-15.15-33.48v-64H378.58a5.45,5.45,0,0,1-5.31-5.32V68a5.43,5.43,0,0,1,5.31-5.31Q407.53,60.85,441,13.83a6.83,6.83,0,0,1,5.85-2.92m0-6.39a13.27,13.27,0,0,0-11,5.55l0,0,0,0c-21,29.47-40.32,45-57.48,46.2A11.84,11.84,0,0,0,366.88,68v6.11a11.83,11.83,0,0,0,11.7,11.71h6.36v57.71c.2,16.89,6.16,29.85,17.7,38.51,9.26,6.94,21.34,10.46,35.9,10.46,3,0,6.19-.15,9.43-.45,14.9-1.39,26.58-6.75,34.74-15.93l.06-.06,0-.05c3.86-4.56,4-10.23.44-15.18A12.55,12.55,0,0,0,473,155.34a14.06,14.06,0,0,0-4,.6l-.56.16-.11.06c-.18,0-.49,0-1,.05a8.53,8.53,0,0,1-3-.79c-.1,0-.42-.21-.8-1q-1.25-2.61-2.12-4.73a16.06,16.06,0,0,1-.73-4.72c-.17-3-.31-5.3-.39-6.89-.06-1-.1-3.09,0-7.6.1-4,.14-6.47.14-7.72V85.84h15.39a11.85,11.85,0,0,0,11.71-11.71V68a11.85,11.85,0,0,0-11.71-11.7H460.42V17.55A12.41,12.41,0,0,0,456.12,8a13.87,13.87,0,0,0-9.26-3.44Z"/><path class="cls-1" d="M564.81,51.82q32.94,0,56.19,18.73t23.24,47.68q0,29-23.24,47.69t-56.19,18.73q-33.21,0-56.32-18.6t-23.11-47.82q0-29.22,23.11-47.82t56.32-18.59m11.86,116.47a12.13,12.13,0,0,0,3-.38q16.2-3.72,2.65-54.46-11.69-45.27-28.27-45.27a13,13,0,0,0-3.07.37q-15.69,3.74-2.93,54.73,5.31,21.79,13.68,34.4,7,10.62,14.92,10.61M564.81,45.43c-23.53,0-43.82,6.73-60.33,20C487.57,79.05,479,96.81,479,118.23s8.58,39.19,25.49,52.8c16.5,13.28,36.8,20,60.33,20,23.35,0,43.6-6.78,60.2-20.14,17-13.71,25.62-31.42,25.62-52.67S642,79.27,625,65.57c-16.6-13.36-36.85-20.14-60.2-20.14ZM576.67,161.9c-3.68,0-7.25-4.21-9.59-7.75-5.15-7.75-9.45-18.65-12.8-32.38-8.23-32.94-5.27-42.83-3.62-45.55a2.7,2.7,0,0,1,1.81-1.45,6.67,6.67,0,0,1,1.6-.2c3.93,0,7.57,4.52,9.94,8.31,4.35,7,8.43,17.78,12.15,32.17v0c8.66,32.42,5.76,42.28,4.12,45a3,3,0,0,1-2,1.58h-.12a5.88,5.88,0,0,1-1.47.19Z"/><path class="cls-1" d="M181.18,258.81q-1.59,6.65-11.29,13.95t-29.62,8.63q16.2,7.17,25.64,18.6a39.09,39.09,0,0,1,9.43,25.5q0,20.73-19.26,35.07t-49,17.53h-.26a6.49,6.49,0,0,0-.93.13,4.89,4.89,0,0,1-.93.14q-25,2.13-26.3,8.76c-.53,1.78.13,3.19,2,4.26s4.38,1.41,7.57,1.06a221.2,221.2,0,0,0,22.45-3.59,189.93,189.93,0,0,1,28-3.59q19.38-.79,29.75,7A23,23,0,0,1,178,413.16q-.81,11.16-9.7,20.32A61.47,61.47,0,0,1,146,447.83a171.58,171.58,0,0,1-26.83,8,161.63,161.63,0,0,1-25.9,3.32,206,206,0,0,1-48.75-3.85q-25.11-4.92-37.59-16.61Q0,430.95,0,422.86t6.38-14.35a21.53,21.53,0,0,1,15.67-6.24,24.53,24.53,0,0,1,14,4.38,58.05,58.05,0,0,1,11.82,10.63q5.31,6.24,11.29,12.35a49.14,49.14,0,0,0,15.14,10.23,44.67,44.67,0,0,0,20.59,3.59,26.69,26.69,0,0,0,12.62-4q6.24-3.72,6.51-10.1.8-14.07-30.82-16.47-40.38-2.13-40.38-18.06,0-13,25-17.8-26.83-4.78-43.83-18.6t-17-32.94q0-23.37,24.57-38.39t59.64-15h3.46a2.12,2.12,0,0,0,.79-.26c1.07,0,3.63.13,7.71.39s7.12.4,9.16.4a39.94,39.94,0,0,0,7.71-.93,24.47,24.47,0,0,0,8.1-3.05,24,24,0,0,0,7-5.45,24.57,24.57,0,0,0,3.85-7.3,36.94,36.94,0,0,1,2.92-6.65q7.71-13,21.79-12.75,10.36,0,15.14,6.51T181.18,258.81Zm-74.12,106.8q13.81-3.72-.26-44.9-3.73-10.62-6.64-17.4a49.21,49.21,0,0,0-8.11-12.75q-5.17-6-10.76-6a16.82,16.82,0,0,0-4.78,1.06q-5.85,2.13-6.91,9.56a44,44,0,0,0,.67,15.55,201,201,0,0,0,6,20.85Q82.09,349.67,89.66,359T107.06,365.61Z"/><path class="cls-1" d="M267.52,360.82A26.83,26.83,0,0,0,270.18,373a21.92,21.92,0,0,0,6,7.84,27.57,27.57,0,0,1,5.72,5.85A10.08,10.08,0,0,1,284,393.5q-.8,10.1-45.43,10.1c-3.18,0-6.77-.1-10.76-.27s-8.9-.58-14.74-1.2A62.1,62.1,0,0,1,198.18,399q-6.1-2.26-6.64-5.45a8.72,8.72,0,0,1,2-6.77,33.42,33.42,0,0,1,5.85-6,26.38,26.38,0,0,0,6.24-8,24.38,24.38,0,0,0,2.92-12V334q0-23.37-9-25.24-4.78-.79-7-3.85a5.77,5.77,0,0,1-.66-6.37q1.59-3.33,6.9-4.92a240.15,240.15,0,0,0,25.77-9.7,121.71,121.71,0,0,0,19.66-12.08c3.36-2.3,6.2-3.46,8.5-3.46q8,0,12,20.72,12.75-29.74,40.65-51.14t69.6-24.3q15.4-1.07,24.44,5.18t9,16.07a18.36,18.36,0,0,1-6.64,14.88q-6.92,6.1-17.53,4.51-4.53-.53-12.75-3.72a42.44,42.44,0,0,0-15.15-3.19,66.72,66.72,0,0,0-11.42,1.07,84.36,84.36,0,0,0-25.5,8.63,103.18,103.18,0,0,0-23.91,17.54q-11.43,11-19,28.82a118.74,118.74,0,0,0-8.9,39.58Zm179.59,0A26.83,26.83,0,0,0,449.77,373a21.81,21.81,0,0,0,6,7.84,27.57,27.57,0,0,1,5.72,5.85,10.08,10.08,0,0,1,2.12,6.77q-.79,10.1-46.49,10.1a32.22,32.22,0,0,1-13.68-2.66,23.65,23.65,0,0,1-8.77-6.51,28.18,28.18,0,0,1-4.78-10A65.24,65.24,0,0,1,387.6,373q-.54-5.31-.53-12.22V319.38h-.27a18.37,18.37,0,0,1-4.91,6.51,55,55,0,0,1-8.77,5.58,77.81,77.81,0,0,0-8.63,5.18q-15.15,10.1-11.69,27.63a23.52,23.52,0,0,0,5.84,11.55q4.78,5.46,13.82,5.72,7.69.52,6.64,6.64-1.59,7.44-12.22,12.48a38.83,38.83,0,0,1-14.88,4q-25,2.11-42.37-9.3T293.29,364A32.43,32.43,0,0,1,296,352.19a58.25,58.25,0,0,1,4.91-9.17q2.52-3.7,8.9-7.43t9.83-5.58q3.45-1.86,12.75-4.65t12.89-3.72q3.58-.93,14.48-3.59,15.14-3.72,20.19-11.16A14.32,14.32,0,0,0,381,291.48q-4.51-7.43-13.82-7.43a15.24,15.24,0,0,0-10.49,4.65,32.49,32.49,0,0,0-6.77,9.69,29.4,29.4,0,0,1-7.71,10,21.72,21.72,0,0,1-13.28,5.19q-10.63.52-15.41-9t2.66-18.86q12.48-15.13,53.66-16.74,69.6-2.64,74.65,59.78Q445,333.72,447.11,360.82Z"/><path class="cls-1" d="M658.31,360.82A26.83,26.83,0,0,0,661,373a23.76,23.76,0,0,0,5.71,7.84,31.26,31.26,0,0,1,5.44,5.85,10.09,10.09,0,0,1,2.13,6.77q-.79,10.1-44.63,10.1c-3,0-6.42-.1-10.23-.27s-8.55-.58-14.21-1.2A57.41,57.41,0,0,1,590.83,399c-3.9-1.51-6-3.32-6.37-5.45a8.93,8.93,0,0,1,1.86-6.77,32.18,32.18,0,0,1,5.57-6,25.9,25.9,0,0,0,6-8,25.33,25.33,0,0,0,2.79-12V324.69q0-13.54-1.59-19t-7.44-6H555.5v61.1A27,27,0,0,0,558.15,373a21.93,21.93,0,0,0,6,7.84,27.52,27.52,0,0,1,5.71,5.85A10.09,10.09,0,0,1,572,393.5q-.79,10.1-47.55,10.1c-3.19,0-6.82-.1-10.9-.27s-9.08-.58-15-1.2a62.41,62.41,0,0,1-15-3.18q-6.11-2.26-6.64-5.45-.8-4.25,3.32-8.24a93.91,93.91,0,0,0,8.77-10,22.86,22.86,0,0,0,4.65-14.48v-61.1H478.46a5.45,5.45,0,0,1-5.32-5.31V288.3a5.47,5.47,0,0,1,5.32-5.32h13q-6.9-13.8-6.9-25a42.88,42.88,0,0,1,5.64-21.68,43.43,43.43,0,0,1,8.57-10.07c15-13.33,33.83-14.27,35.82-14.34,3.71-.14,19.44-.71,33.25,8.63,6.88,4.66,9.54,9.23,17.26,10.71,9.13,1.74,17.34-2.4,17.28-2.66s-8.6,3.08-21.95,3.62a158,158,0,0,1-26.68-.95c-.86-.13-9.55-1.42-14.91,1.37a17.52,17.52,0,0,0-4.74,3.72,13.73,13.73,0,0,0-3.32,8.37,23.22,23.22,0,0,0,2.39,12.09,42.84,42.84,0,0,0,9.7,12.62q6.78,6.38,20.72,10.22T596.41,283H643.7a28.31,28.31,0,0,1,5,.4,8.91,8.91,0,0,1,3.72,1.6c1.06.79,2,1.5,2.79,2.12a6.22,6.22,0,0,1,1.86,3.19c.44,1.51.79,2.66,1.06,3.45a19,19,0,0,1,.53,4.39c.09,2.12.13,3.67.13,4.65s0,2.79-.13,5.44-.13,4.52-.13,5.58Q658.31,326.55,658.31,360.82Z"/><path class="cls-1" d="M837.9,360.82A26.83,26.83,0,0,0,840.56,373a21.81,21.81,0,0,0,6,7.84,27.52,27.52,0,0,1,5.71,5.85,10.09,10.09,0,0,1,2.13,6.77q-.79,10.1-46.49,10.1a32.22,32.22,0,0,1-13.68-2.66,23.57,23.57,0,0,1-8.77-6.51,28.18,28.18,0,0,1-4.78-10,65.67,65.67,0,0,1-2.26-11.29,118.55,118.55,0,0,1-.53-12.09l-.53-41.71a16,16,0,0,1-4.65,6.51,55,55,0,0,1-8.77,5.58,76.87,76.87,0,0,0-8.63,5.18q-15.15,10.1-11.69,27.89a23.47,23.47,0,0,0,5.84,11.56q4.79,5.44,13.82,5.71,6.9.27,6.37,5.58-.52,6.92-10.62,12.49a42.14,42.14,0,0,1-16.21,4.78q-25,2.11-42.5-9.3T683.81,364a34.33,34.33,0,0,1,4.52-15.54A42.2,42.2,0,0,1,697,337.71q4.65-4,14.88-8T728.05,324q6-1.72,19.26-4.92l3.18-.79q15.15-3.72,20.33-11.29t.93-15.55a15.47,15.47,0,0,0-13.82-7.43,15.1,15.1,0,0,0-8.76,3.18,24.54,24.54,0,0,0-6.11,7q-2.4,4.13-5,8.37a25.8,25.8,0,0,1-7.17,7.44,20.37,20.37,0,0,1-11.16,3.46q-10.63.52-15.54-9t2.52-18.59q12.75-15.41,53.66-17,69.87-2.64,74.92,59.78.27,4.51.67,9c.26,3,.53,6.2.79,9.56S837.37,355.16,837.9,360.82Z"/><path class="cls-1" d="M622.09,189.91a46.86,46.86,0,0,1-42.77,42.22,45.53,45.53,0,0,1,42.77,43c.24-3,2.12-23,19.18-34.84a44.56,44.56,0,0,1,23.23-7.75c-3.79-.45-19.58-2.74-31.34-16.59A48.48,48.48,0,0,1,622.09,189.91Z"/></g></g></svg>