<svg xmlns="http://www.w3.org/2000/svg" viewBox="0 0 847.79 422.25"><defs><style>.cls-1{fill:#fff;}.cls-2{fill:#f4a276;stroke:#fff;stroke-miterlimit:10;stroke-width:4.6px;}</style></defs><g id="Capa_2" data-name="Capa 2"><g id="Capa_3" data-name="Capa 3"><path class="cls-1" d="M176.77,144.77q1.74,28-24,42.5T85.52,199.52q-31.76-1.76-53.25-13.13T6.52,159.52q-3-10.5,1.75-18.88t15.5-10.12q13.25-2.25,21.87,4.62T57,156.77q5.49,29.76,36.5,29.75,10.5,0,16.75-4.63t7-11.37a16.38,16.38,0,0,0-1.25-8.38,26.43,26.43,0,0,0-4.25-7,35.28,35.28,0,0,0-7-5.87q-4.5-3-7.38-4.63t-7.5-3.75c-3.08-1.41-5-2.29-5.62-2.62q-2.25-1-15-7.38L51.52,122q-44.25-21-39-54.5,3.24-20,26-32.38T97,25q27.49,2,44.88,12.62t21.37,24.13a19.65,19.65,0,0,1-3.37,18.5q-6.37,8.25-19.38,5.75a29.35,29.35,0,0,1-6.62-2.25,18.47,18.47,0,0,1-5.5-4,55.9,55.9,0,0,1-4-4.63,28.18,28.18,0,0,1-3.26-5.87l-2.37-5.5Q118,62,116.64,57.89c-.91-2.75-1.46-4.37-1.62-4.87q-5.25-15.75-23.25-16.5-8.51-.26-14.25,3.62a14.81,14.81,0,0,0-6.75,10.38A15.21,15.21,0,0,0,74,62.89Q78.26,68,87.52,73.52q11,7.24,45.5,25,7,3.75,11.38,6.25t11,7.25A69.49,69.49,0,0,1,166,121.14a49.5,49.5,0,0,1,7.25,10.63A30.33,30.33,0,0,1,176.77,144.77Z"/><path class="cls-1" d="M264.27,71.77q31,0,52.87,17.62T339,134.27q0,27.25-21.88,44.87t-52.87,17.63q-31.26,0-53-17.5t-21.75-45q0-27.5,21.75-45T264.27,71.77Zm14,109.25q15.24-3.5,2.5-51.25-12-46.5-29.5-42.25Q236.51,91,248.52,139q5,20.5,12.87,32.37T278.27,181Z"/><path class="cls-1" d="M478,143.77a5.68,5.68,0,0,1,5.25-3,7.12,7.12,0,0,1,5.5,2.5,6,6,0,0,1,1.25,6q-5.76,21.25-25.13,34.37t-44.37,13.13q-29.76,0-50.63-17.75T349,133.77q0-26.75,19.25-44.13t48-18.87q17.75-1,31.5,2.5t21,9.5a54.59,54.59,0,0,1,10.87,11.5,23.53,23.53,0,0,1,4.13,10.25q1.25,11.25-6.25,18.25t-21,6.75q-12.51-.26-18.25-6.75a28.06,28.06,0,0,1-6.75-16.25,40.94,40.94,0,0,1-.13-8.5,68.41,68.41,0,0,0,.25-8.13,31.4,31.4,0,0,0-.87-6.75,6.46,6.46,0,0,0-3.38-4.25q-2.62-1.36-7.12-.62-9.25,1.5-13.13,12.12A52.83,52.83,0,0,0,404,112.27q1.26,21.75,14.51,36.5t30.25,13.5Q466.77,161.28,478,143.77Z"/><path class="cls-1" d="M565.52,155.27a26.52,26.52,0,0,0,2.37,11.5,20.23,20.23,0,0,0,5.38,7.37,25,25,0,0,1,5.12,5.5,9.88,9.88,0,0,1,1.88,6.38q-.75,9.51-42,9.5c-2.84,0-6-.09-9.63-.25s-8-.54-13.37-1.13a53.71,53.71,0,0,1-13.5-3q-5.5-2.12-6-5.12c-.34-2.66.75-5.21,3.25-7.63a80.14,80.14,0,0,0,8-9.25,21.94,21.94,0,0,0,4.25-13.62V130q0-22-8.25-23.75-4.5-.75-6.38-3.63a6,6,0,0,1-.5-6c.91-2.08,3-3.62,6.13-4.62Q522,85.53,551,77.52a21.31,21.31,0,0,1,5-.75,7.8,7.8,0,0,1,6.25,2.62,13.17,13.17,0,0,1,2.87,6.75,74.66,74.66,0,0,1,.75,9.5,97.12,97.12,0,0,1-.37,10.88Z"/><path class="cls-1" d="M734.52,155.27a25.31,25.31,0,0,0,2.5,11.5,20.53,20.53,0,0,0,5.62,7.37,26.2,26.2,0,0,1,5.38,5.5,9.57,9.57,0,0,1,2,6.38q-.75,9.51-43.75,9.5a30.44,30.44,0,0,1-12.88-2.5,22.06,22.06,0,0,1-8.25-6.13,26.31,26.31,0,0,1-4.5-9.37,62,62,0,0,1-2.12-10.63,110.92,110.92,0,0,1-.5-11.37l-.5-39.25a15,15,0,0,1-4.38,6.12,50.68,50.68,0,0,1-8.25,5.25,73.16,73.16,0,0,0-8.12,4.88q-14.26,9.49-11,26.25a22.17,22.17,0,0,0,5.51,10.87q4.5,5.13,13,5.38,6.5.25,6,5.25-.51,6.51-10,11.75a39.53,39.53,0,0,1-15.26,4.5q-23.49,2-40-8.75t-15.5-29.5a32.36,32.36,0,0,1,4.25-14.63,39.57,39.57,0,0,1,8.13-10.12q4.36-3.75,14-7.5t15.25-5.38q5.63-1.62,18.13-4.62l3-.75q14.25-3.49,19.12-10.63T672.27,90a14.53,14.53,0,0,0-13-7A14.3,14.3,0,0,0,651,86a23.09,23.09,0,0,0-5.74,6.62q-2.25,3.89-4.76,7.88a24.21,24.21,0,0,1-6.75,7,19.14,19.14,0,0,1-10.5,3.25q-10,.49-14.62-8.5T611,84.77q12-14.51,50.51-16Q727.27,66.26,732,125c.16,2.83.37,5.67.62,8.5s.5,5.83.75,9S734,149.94,734.52,155.27Z"/><path class="cls-1" d="M832,155.27a25.31,25.31,0,0,0,2.5,11.5,20.53,20.53,0,0,0,5.62,7.37,28.94,28.94,0,0,1,5.5,5.5,9.31,9.31,0,0,1,2.13,6.38q-1,9.51-44,9.5c-3,0-6.38-.09-10.13-.25s-8.37-.54-13.87-1.13a58.22,58.22,0,0,1-14-3Q760,189,759.52,186a8.24,8.24,0,0,1,1.87-6.38,28.65,28.65,0,0,1,5.5-5.5,24.42,24.42,0,0,0,8.63-18.62V82q0-22-8.5-23.75a9.81,9.81,0,0,1-6.63-3.63,5.64,5.64,0,0,1-.62-6.12c1-2.17,3.16-3.75,6.5-4.75q2.75-.75,9.5-3l9-3c1.5-.5,4-1.38,7.37-2.63s6.13-2.33,8.13-3.25,4.5-2.08,7.5-3.5,6.08-3,9.25-4.87c3.33-1.84,5.91-2.75,7.75-2.75a6.17,6.17,0,0,1,2.75.62,5.66,5.66,0,0,1,2.12,1.88A11.75,11.75,0,0,1,831,25.89a21.59,21.59,0,0,1,.87,3.63c.25,1.5.42,2.83.5,4s.13,2.67.13,4.5v4.62c0,1.25,0,2.92-.13,5s-.12,3.63-.12,4.63Q832,58.27,832,155.27Z"/><path class="cls-1" d="M534.53,0a40.17,40.17,0,0,1-12,24.73,40.15,40.15,0,0,1-24.11,10.89,38.4,38.4,0,0,1,36.08,36.23c.2-2.54,1.79-19.39,16.18-29.39a37.63,37.63,0,0,1,19.6-6.53c-3.2-.38-16.52-2.32-26.44-14A40.85,40.85,0,0,1,534.53,0Z"/><path class="cls-1" d="M64,287.27q7.24,0,11.75,22a14.63,14.63,0,0,0,.5,2.25q9.75-18.24,31.25-21a83.61,83.61,0,0,1,10-.64,53.79,53.79,0,0,1,21.37,4Q152,299.52,156.77,312q9-19.25,30-21.5a78.56,78.56,0,0,1,8.25-.45q17.74,0,30,9.08,15,11.13,15,30.63v44.5a25.37,25.37,0,0,0,2.5,11.5,20.63,20.63,0,0,0,5.63,7.37,26.15,26.15,0,0,1,5.37,5.5,9.5,9.5,0,0,1,2,6.38q-.75,9.5-43.75,9.5A30.4,30.4,0,0,1,198.9,412a22.16,22.16,0,0,1-8.25-6.13,26.4,26.4,0,0,1-4.5-9.37A62.22,62.22,0,0,1,184,385.9q-.5-4.87-.5-11.37V349q0-23.25-2.25-29.51-3-7-9-7.25-12.75.25-13.25,31.26v30.75a25.37,25.37,0,0,0,2.5,11.5,21.42,21.42,0,0,0,5.5,7.37,31.16,31.16,0,0,1,5.38,5.5,9.23,9.23,0,0,1,2.12,6.38q-.75,9.5-43.75,9.5A30.4,30.4,0,0,1,117.9,412a22.29,22.29,0,0,1-8.26-6.13,26.74,26.74,0,0,1-4.5-9.37A63.11,63.11,0,0,1,103,385.9a111.06,111.06,0,0,1-.5-11.37V346.28q0-8-.25-12.38c-.17-2.91-.54-6.33-1.13-10.25s-1.71-6.79-3.37-8.63a8.4,8.4,0,0,0-6.5-2.75Q79,312.52,78,342v32.25a25.37,25.37,0,0,0,2.5,11.5,20.62,20.62,0,0,0,5.62,7.37,26,26,0,0,1,5.38,5.5,9.55,9.55,0,0,1,2,6.38q-.75,9.5-42.75,9.5c-3,0-6.38-.09-10.13-.25s-8.37-.55-13.87-1.13a58.22,58.22,0,0,1-14-3Q7,408,6.52,405a8.23,8.23,0,0,1,1.87-6.38,29.23,29.23,0,0,1,5.5-5.5,23.06,23.06,0,0,0,5.88-7.37,23,23,0,0,0,2.75-11.25V349q0-22-8.5-23.5a10.78,10.78,0,0,1-6.63-3.88,5.45,5.45,0,0,1-.62-6c1-2.08,3.16-3.63,6.5-4.63a227,227,0,0,0,24.25-9.12A115.16,115.16,0,0,0,56,290.52c3.16-2.16,5.83-3.25,8-3.25m0-6.13c-3.46,0-7.21,1.41-11.46,4.32l-.08.06-.08.05a109.33,109.33,0,0,1-17.49,10.78,221.44,221.44,0,0,1-23.48,8.82c-5,1.52-8.43,4.15-10.19,7.83a11.5,11.5,0,0,0,1.22,12.3,16.73,16.73,0,0,0,10.23,6.22l.13,0,.13,0c.68.12,3.43,3.6,3.43,17.46v25.5a16.78,16.78,0,0,1-2,8.29,17.07,17.07,0,0,1-4.21,5.45,34.83,34.83,0,0,0-6.67,6.67,14.22,14.22,0,0,0-3,11V406c.72,4.33,4.14,7.65,10.18,9.88a64.79,64.79,0,0,0,15.47,3.34c5.59.59,10.38,1,14.25,1.16s7.34.25,10.4.25c14.58,0,25.38-.82,33-2.52,3.74-.83,15.11-3.36,15.85-12.63a15.56,15.56,0,0,0-3.14-10.44,32.41,32.41,0,0,0-6.64-6.8A15,15,0,0,1,86,383a19.47,19.47,0,0,1-1.86-8.76V342.13c.31-8.94,1.42-15.6,3.28-19.8,1.68-3.75,3.19-3.9,3.9-3.92a2.23,2.23,0,0,1,1.9.74c.37.41,1.3,1.77,1.85,5.41s.91,7,1.07,9.69.24,6.88.24,12v28.25a117.09,117.09,0,0,0,.53,12,68.86,68.86,0,0,0,2.32,11.67,32.68,32.68,0,0,0,5.6,11.52,28.28,28.28,0,0,0,10.47,7.87,36.52,36.52,0,0,0,15.46,3.07c14.91,0,25.95-.82,33.74-2.51,3.81-.83,15.39-3.34,16.13-12.64a15.26,15.26,0,0,0-3.36-10.57,37,37,0,0,0-6.45-6.6A15.43,15.43,0,0,1,167,383a19.47,19.47,0,0,1-1.85-8.76v-30.7c.15-9.47,1.19-16.52,3.07-21,1.62-3.82,3.18-4.16,4-4.2s2,.36,3.35,3.35c.71,2.13,1.84,8.47,1.84,27.27v25.5a120,120,0,0,0,.53,12,69.85,69.85,0,0,0,2.32,11.67,32.86,32.86,0,0,0,5.6,11.52,28.28,28.28,0,0,0,10.47,7.87,36.52,36.52,0,0,0,15.46,3.07c14.91,0,25.95-.82,33.74-2.51,3.81-.83,15.39-3.34,16.13-12.64a15.5,15.5,0,0,0-3.14-10.44,32.16,32.16,0,0,0-6.64-6.8A15,15,0,0,1,248,383a19.47,19.47,0,0,1-1.85-8.76v-44.5c0-15-5.88-26.95-17.48-35.56-9.21-6.83-20.54-10.29-33.66-10.29a85.42,85.42,0,0,0-8.9.49C173.75,285.75,164,291,157,300a39.1,39.1,0,0,0-15.65-11.69,60.19,60.19,0,0,0-23.78-4.51,87.89,87.89,0,0,0-10.76.69c-11.32,1.45-20.58,5.78-27.69,12.93-2.83-8.82-7.26-16.23-15.06-16.23Z"/><path class="cls-1" d="M337.17,289.58q26.43,0,40.85,9.07,16.5,10.38,18.76,24.87A28.51,28.51,0,0,1,393.65,342,32.36,32.36,0,0,1,380.4,354.9a77.15,77.15,0,0,1-18.38,7,81.8,81.8,0,0,1-19.5,2.38q-11.25,0-17.5-3a44.49,44.49,0,0,0,15.63,15.37,33.89,33.89,0,0,0,17.12,4.72c.83,0,1.67,0,2.5-.09a37,37,0,0,0,17.25-5.5,42,42,0,0,0,13.5-13,5.7,5.7,0,0,1,5.25-3,7.14,7.14,0,0,1,5.51,2.5,6,6,0,0,1,1.24,6q-5.75,21.24-25.12,34.37t-44.38,13.13q-29.75,0-50.62-17.75T262,352.78q0-26.76,19.38-44.26t47.87-18.75c2.72-.12,5.35-.19,7.9-.19M326.27,353q9.51,0,15.75-7.88t6-21.87a37.94,37.94,0,0,0-4.87-18.13q-4.25-7.44-10.67-7.44c-.4,0-.8,0-1.21.06q-8,.75-12.37,11.75a49.09,49.09,0,0,0-3.63,21.76,65.08,65.08,0,0,0,5,21.25,54,54,0,0,0,6,.5m10.9-69.58c-2.63,0-5.39.07-8.18.2-20.36.89-37.76,7.73-51.7,20.32-14.2,12.83-21.4,29.25-21.4,48.81,0,20.13,7.75,36.93,23,49.92,15,12.75,33.36,19.21,54.6,19.21,17.84,0,33.93-4.77,47.82-14.18,14.1-9.55,23.38-22.27,27.6-37.82a12.1,12.1,0,0,0-2.6-11.74,13.28,13.28,0,0,0-10.07-4.53,12.6,12.6,0,0,0-4.81.92A38.27,38.27,0,0,0,399,345a34.55,34.55,0,0,0,3.85-22.39v-.06c-1.78-11.45-9-21.25-21.55-29.12-10.56-6.64-25.41-10-44.12-10Zm-12.54,63.37a60.28,60.28,0,0,1-3.24-15.95,43.34,43.34,0,0,1,3.21-19.08c3-7.51,6.19-7.81,7.25-7.91h0l.58,0c.78,0,2.86,0,5.34,4.34a31.68,31.68,0,0,1,4.07,15.24c.14,7.78-1.43,13.83-4.67,17.91-3,3.79-6.49,5.55-11,5.55-.35,0-.87,0-1.64-.07Zm17.89,23.59a88.7,88.7,0,0,0,21-2.55,84.3,84.3,0,0,0,19.82-7.55c1.16-.62,2.27-1.29,3.34-2-.29.38-.56.78-.82,1.2a36.13,36.13,0,0,1-11.47,11,30.57,30.57,0,0,1-14.41,4.62h-.11c-.69,0-1.38.07-2.06.07a27.63,27.63,0,0,1-14.07-3.9c-.51-.29-1-.6-1.51-.92Z"/><path class="cls-1" d="M553,239.77q6.26,0,7.38,10.63a92.09,92.09,0,0,1-.13,20.87V374.53a24.55,24.55,0,0,0,2.5,11.37,20.82,20.82,0,0,0,5.63,7.25,26.15,26.15,0,0,1,5.37,5.5,9.5,9.5,0,0,1,2,6.38q-.75,9.5-43.75,9.5-23,0-27-22.5-10.5,22.5-32.75,24c-1,.05-2,.08-3,.08q-20.61,0-36.34-16Q416,383,413.77,353.53q-2.25-30.25,15.63-47.38,16.43-15.75,36.78-15.75c1.19,0,2.38,0,3.59.12q22.75,1.5,34,21.5V300.77q0-21.75-8.75-23.5c-3-.5-5.17-1.7-6.5-3.62a5.82,5.82,0,0,1-.5-6.13c1-2.16,3.17-3.75,6.5-4.75q2.75-.75,9.5-3l9-3q2.25-.75,7.38-2.62t8.12-3.25c2-.92,4.5-2.08,7.5-3.5s6.08-3,9.25-4.88c3.33-1.83,5.92-2.75,7.75-2.75M495,382.06a9.5,9.5,0,0,0,2.29-.28q7-1.75,8.63-12.88t-2.38-25.62q-3.75-15-10.12-23.88Q488.08,312,482.31,312a9.5,9.5,0,0,0-2.29.28q-7,1.75-8.62,12.88t2.12,25.63q4,15,10.38,23.87,5.33,7.41,11.08,7.41m58-148.42c-2.95,0-6.35,1.11-10.7,3.51l-.06,0-.06,0c-3,1.74-6,3.3-8.79,4.63-3.11,1.47-5.54,2.6-7.44,3.47s-4.41,1.87-7.68,3.07-5.78,2.09-7.21,2.57l-4.5,1.49-4.5,1.5c-4.36,1.46-7.44,2.43-9.18,2.91l-.07,0-.07,0c-5.07,1.52-8.54,4.23-10.31,8.05a11.89,11.89,0,0,0,1,12.21c2.27,3.27,5.76,5.34,10.37,6.14.9.24,2.91,2.79,3.57,11.41-7.42-6.15-16.53-9.6-27.26-10.31-1.33-.09-2.67-.13-4-.13-15.14,0-28.94,5.87-41,17.45C411.9,314.41,406,332,407.65,354c1.61,21.08,8.63,38,20.88,50.48,11.63,11.8,25.32,17.79,40.71,17.79,1.11,0,2.24,0,3.37-.1h.07c12.79-.86,23.13-6.22,30.87-16,5.55,9.53,15.19,14.49,28.47,14.49,14.91,0,26-.82,33.74-2.51,3.81-.83,15.4-3.34,16.13-12.64a15.5,15.5,0,0,0-3.14-10.44,32.36,32.36,0,0,0-6.63-6.8,15.31,15.31,0,0,1-3.89-5.16,18.74,18.74,0,0,1-1.82-8.58V271.64a98.84,98.84,0,0,0,.09-21.89c-1.49-14-9.08-16.11-13.48-16.11ZM495,375.93c-1.68,0-3.85-1.72-6.1-4.86-3.8-5.28-7-12.64-9.43-21.87-2.27-8.79-2.94-16.6-2-23.16.47-3.22,1.55-7.19,4-7.81a3.27,3.27,0,0,1,.8-.11c1.68,0,3.85,1.73,6.1,4.86,3.78,5.26,6.86,12.59,9.16,21.78l0,.07,0,.07c2.42,8.81,3.17,16.58,2.22,23.11-.48,3.22-1.56,7.19-4.05,7.81a2.85,2.85,0,0,1-.8.11Z"/><path class="cls-1" d="M646.52,295.77a7.79,7.79,0,0,1,6.25,2.63,13.18,13.18,0,0,1,2.88,6.75,78.52,78.52,0,0,1,.75,9.5,97.15,97.15,0,0,1-.38,10.88v48.75a26.44,26.44,0,0,0,2.38,11.5,20.31,20.31,0,0,0,5.37,7.37,25,25,0,0,1,5.13,5.5,9.85,9.85,0,0,1,1.87,6.38q-.75,9.5-42,9.5c-2.83,0-6-.09-9.62-.25s-8-.55-13.38-1.13a53.71,53.71,0,0,1-13.5-3q-5.5-2.11-6-5.12c-.34-2.67.75-5.21,3.25-7.63a80.14,80.14,0,0,0,8-9.25,22,22,0,0,0,4.25-13.62V349q0-22-8.25-23.75-4.5-.75-6.37-3.63a6,6,0,0,1-.5-6c.91-2.08,3-3.63,6.12-4.63q19.74-6.5,48.75-14.5a21.39,21.39,0,0,1,5-.75m0-6.13a27.52,27.52,0,0,0-6.49.93l-.07,0-.07,0c-19.35,5.34-35.84,10.24-49,14.58-4.89,1.55-8.21,4.24-9.85,8A12.08,12.08,0,0,0,582,325c1.5,2.31,4.5,5.25,10.25,6.28.22.14,3.38,2.47,3.38,17.75v25.5a15.83,15.83,0,0,1-3,9.92,74.52,74.52,0,0,1-7.36,8.54c-4.93,4.77-5.48,9.59-5.08,12.8l0,.12,0,.12c.71,4.29,4,7.6,9.84,9.85a60.55,60.55,0,0,0,15.05,3.37c5.42.59,10,1,13.75,1.15s7,.26,9.91.26c14.34,0,25-.82,32.48-2.52,9.89-2.24,15.15-6.49,15.64-12.63a15.92,15.92,0,0,0-2.91-10.3,31.14,31.14,0,0,0-6.4-6.87,14.24,14.24,0,0,1-3.64-5.19,20.61,20.61,0,0,1-1.78-8.87V325.8a104.54,104.54,0,0,0,.37-11.29,82.9,82.9,0,0,0-.82-10.27,19.21,19.21,0,0,0-4.28-9.83,13.81,13.81,0,0,0-10.91-4.77Z"/><path class="cls-1" d="M757.28,287.67q60.69,0,65.24,56.36.26,4.25.63,8.5t.75,9q.38,4.74,1.12,12.75a25.37,25.37,0,0,0,2.5,11.5,20.63,20.63,0,0,0,5.63,7.37,26.15,26.15,0,0,1,5.37,5.5,9.5,9.5,0,0,1,2,6.38q-.75,9.5-43.75,9.5A30.4,30.4,0,0,1,783.9,412a22.16,22.16,0,0,1-8.25-6.13,26.4,26.4,0,0,1-4.5-9.37A62.22,62.22,0,0,1,769,385.9a111.06,111.06,0,0,1-.5-11.37l-.5-39.25a15,15,0,0,1-4.37,6.12,50.68,50.68,0,0,1-8.25,5.25,72,72,0,0,0-8.13,4.88q-14.25,9.5-11,26.25a22.11,22.11,0,0,0,5.5,10.87q4.5,5.13,13,5.38,6.5.24,6,5.25-.51,6.5-10,11.75a39.54,39.54,0,0,1-15.25,4.5c-2.46.21-4.85.31-7.2.31q-18.89,0-32.8-9.06Q679,396,680,377.28a32.23,32.23,0,0,1,4.25-14.63,39.76,39.76,0,0,1,8.12-10.12q4.38-3.75,14-7.5t15.26-5.38q5.63-1.62,18.12-4.62l3-.75q14.25-3.51,19.13-10.63a13.21,13.21,0,0,0,.87-14.63,14.55,14.55,0,0,0-13-7,14.25,14.25,0,0,0-8.25,3,23.14,23.14,0,0,0-5.75,6.63q-2.25,3.89-4.75,7.87a24.35,24.35,0,0,1-6.75,7,19.11,19.11,0,0,1-10.5,3.26l-1,0q-9.21,0-13.59-8.53-4.62-9,2.38-17.5,12-14.49,50.5-16c1.78-.06,3.54-.1,5.26-.1m0-6.13h0c-1.79,0-3.64,0-5.49.1-27.76,1.09-45.74,7-55,18.22-6.27,7.62-7.34,16-3.1,24.22,4,7.76,10.57,11.86,19,11.86h.51q-4,1.43-9.07,3.38c-7.14,2.78-12.29,5.58-15.77,8.56A46,46,0,0,0,679,359.54a38.43,38.43,0,0,0-5.08,17.37c-.8,14.83,5.35,26.59,18.27,35,10.25,6.67,22.41,10.05,36.15,10.05,2.51,0,5.1-.11,7.72-.33a46,46,0,0,0,17.63-5.21h0l0,0c7.23-4,11.52-8.82,12.8-14.34a29.52,29.52,0,0,0,4.3,7.66,28.28,28.28,0,0,0,10.47,7.87,36.52,36.52,0,0,0,15.46,3.07c14.91,0,26-.82,33.74-2.51,3.81-.83,15.39-3.34,16.13-12.64a15.56,15.56,0,0,0-3.14-10.44,32.16,32.16,0,0,0-6.64-6.8A15,15,0,0,1,833,383a19.47,19.47,0,0,1-1.85-8.76V374l0-.29c-.49-5.27-.87-9.53-1.12-12.66s-.5-6.21-.75-9.05-.46-5.63-.61-8.32v-.14c-1.65-20.36-8.61-36-20.69-46.41s-29-15.58-50.66-15.58Zm-29.74,50.18.26-.18a30.65,30.65,0,0,0,8.41-8.76c1.73-2.78,3.37-5.48,4.86-8a16.8,16.8,0,0,1,4.23-4.88,8.11,8.11,0,0,1,4.63-1.69,8.41,8.41,0,0,1,7.53,4c1.48,2.9,1.28,5.25-.64,8.06-2.32,3.39-7.69,6.2-15.52,8.13l-3,.75c-4.12,1-7.72,1.87-10.76,2.65Zm36,59.1A13.39,13.39,0,0,0,755,387.9H755c-3.92-.11-6.73-1.19-8.57-3.29a16,16,0,0,1-4.06-7.87l0-.06v-.06c-1.68-8.69,1-15,8.38-20l.11-.07.1-.07a66,66,0,0,1,7.41-4.43c1.37-.73,2.63-1.44,3.78-2.14l.32,24.65a119.17,119.17,0,0,0,.53,12q.21,2.07.6,4.29Z"/><path class="cls-2" d="M624.44,214a.86.86,0,0,0-1.68,0,46.72,46.72,0,0,1-36,36.07.86.86,0,0,0,0,1.68,45.27,45.27,0,0,1,36,36,.87.87,0,0,0,1.7,0c1.62-7.6,6-20.24,18.25-28.72A43.62,43.62,0,0,1,660.16,252a.86.86,0,0,0,.06-1.69,48.57,48.57,0,0,1-25.58-15.54A47.94,47.94,0,0,1,624.44,214Z"/></g></g></svg>