<svg xmlns="http://www.w3.org/2000/svg" viewBox="0 0 1047.98 467.97"><defs><style>.cls-1,.cls-3{fill:#fff;}.cls-2{fill:#f4a276;}.cls-3{stroke:#fff;stroke-miterlimit:10;stroke-width:0.67px;}</style></defs><g id="Capa_2" data-name="Capa 2"><g id="Capa_3" data-name="Capa 3"><path class="cls-1" d="M127.23,230.44c-1.43,0-2.87,0-4.33,0-29.09-.38-54.19-10-74.51-28.44C27.54,183,17,158.31,17,128.59c0-28.35,9.86-52.29,29.31-71.15C65.3,39,89,28.86,116.76,27.3c3.84-.26,7.64-.39,11.32-.39a134.49,134.49,0,0,1,25.86,2.4c11.92,2.34,21.43,5.62,29.09,10a87.85,87.85,0,0,1,19,14.47c5.67,5.78,9.67,11.25,12.22,16.73a43.56,43.56,0,0,1,4.39,16.16c.62,11.09-2.42,20.88-8.67,28.35,14.48,5.17,17.51,14.85,18,20.54a28.28,28.28,0,0,1-4.12,16.67,59.94,59.94,0,0,1-6.68,9.25,14.15,14.15,0,0,0-2,3.68,13,13,0,0,0-.89,5.09v15.63l0,.42c-.62,12.25-6.64,22.29-17,28.27-17.81,10.51-41.36,15.84-70,15.84ZM109.77,106.21a115.13,115.13,0,0,0,2.54,23.68c4.5-11.25,17.46-14.37,22-15.47,1.53-.37,3-.7,4.52-1-4.78-6.87-7.34-15.57-7.34-25.77v-.25c.1-6.34-1.11-9.75-2.26-10.82-.38-.35-1.1-1-3.55-1a19.59,19.59,0,0,0-3.36.34l-.12,0c-1,.17-3.83.67-7.41,6.38C111.51,87.53,109.77,95.8,109.77,106.21Z"/><path class="cls-1" d="M128.08,43.88A117.32,117.32,0,0,1,150.66,46q15,2.94,23.91,8.09A70.76,70.76,0,0,1,189.89,65.7q6.38,6.49,9,12a27.41,27.41,0,0,1,2.82,9.94q.74,13.23-8.33,19.86-8.75,6.38-17.27,6.38h-.63q-27-1.47-27-26.23.26-16.19-7.72-23.54-6-5.52-15.06-5.52a35.51,35.51,0,0,0-6.39.61q-11.28,2-18.88,14.1t-7.61,33q.25,28,10.43,49.41T128.35,186a16.46,16.46,0,0,0,7.35,2q5.4,0,7.61-5.27A22.06,22.06,0,0,0,145,172l-.49-5.39a21.09,21.09,0,0,0-2.82-10.91,24,24,0,0,0-6.13-7.24,33,33,0,0,1-5.76-5.39,7.5,7.5,0,0,1-2-6.13q.73-3.68,10.42-6a103.94,103.94,0,0,1,17.65-2.82q8-.48,14.35-.49,40,0,40.7,9.32a11.56,11.56,0,0,1-1.84,6.74,42.38,42.38,0,0,1-4.78,6.62,30.43,30.43,0,0,0-4.9,8.34,29.93,29.93,0,0,0-2.21,11.65v15.2q-.5,9.81-8.58,14.47-22.86,13.52-61.44,13.52c-1.33,0-2.67,0-4,0q-37.51-.5-63.39-24T34,128.59Q34,93,58.1,69.62t59.7-25.38q5.27-.36,10.28-.36m0-33.94h0c-4,0-8.18.14-12.37.42-31.9,1.81-59.23,13.55-81.24,34.89a111.59,111.59,0,0,0-25.9,38A119.07,119.07,0,0,0,0,128.59a119.85,119.85,0,0,0,9.17,47.13A111.06,111.06,0,0,0,37,214.51c23.46,21.35,52.3,32.41,85.71,32.87,1.52,0,3,0,4.55,0,31.68,0,58.11-6.11,78.56-18.16,15.22-8.84,24.46-24.16,25.36-42.07l0-.86V171.14a76.1,76.1,0,0,0,7.23-10.29,45.48,45.48,0,0,0,6.41-26.48v-.12A38.79,38.79,0,0,0,232.55,109a60.36,60.36,0,0,0-3-45.66c-3.38-7.25-8.44-14.26-15.47-21.43a105,105,0,0,0-22.63-17.3c-9.31-5.35-20.52-9.27-34.29-12a151.5,151.5,0,0,0-29.13-2.71Z"/><path class="cls-1" d="M263.21,227.22c-3.14,0-6.63-.09-10.67-.26s-8.86-.57-14.65-1.18a73.29,73.29,0,0,1-17.84-3.91c-12.3-4.53-16-12.38-17-18.17l0-.17a25.13,25.13,0,0,1,5.1-19.13,48.3,48.3,0,0,1,8.23-8.44,12.07,12.07,0,0,0,1.56-2.34,5.51,5.51,0,0,0,.6-2.85V146a56.1,56.1,0,0,0-.51-8.31,25.36,25.36,0,0,1-11-8.46,22.35,22.35,0,0,1-2.26-23.3c2.14-4.45,6.74-10.37,16.56-13.38A205.13,205.13,0,0,0,243,84.42a97,97,0,0,0,15.35-9.49l.21-.16.23-.15c6.05-4.14,11.75-6.15,17.43-6.15a22.91,22.91,0,0,1,10.84,2.82,142.92,142.92,0,0,1,27.38-27.4C334.2,28.74,358.89,20,387.81,18c1.78-.13,3.52-.19,5.19-.19,11.09,0,20.58,2.67,28.2,7.93,10,6.94,15.58,17.07,15.66,28.55A33.68,33.68,0,0,1,425,81a34.93,34.93,0,0,1-23.52,8.73,43.64,43.64,0,0,1-6.17-.45,68.45,68.45,0,0,1-15.64-4.43,22.9,22.9,0,0,0-7.85-1.8,45.87,45.87,0,0,0-7.64.73l-.16,0a61.41,61.41,0,0,0-18.44,6.27,78.79,78.79,0,0,0-18.12,13.34c-5.35,5.17-10,12.24-13.7,21a93.14,93.14,0,0,0-6.86,30.42v15.9a8.51,8.51,0,0,0,.65,3.68,12.67,12.67,0,0,0,.91,1.55,42.64,42.64,0,0,1,8.48,8.76,26.21,26.21,0,0,1,5.11,17.45c-.51,6.46-4.31,17.88-24.09,22.28C289.69,226.33,278.32,227.22,263.21,227.22Z"/><path class="cls-1" d="M393,34.79q11.43,0,18.56,4.92,8.32,5.76,8.33,14.83a16.91,16.91,0,0,1-6.13,13.73,17.84,17.84,0,0,1-12.27,4.48,25.48,25.48,0,0,1-3.91-.31A52.42,52.42,0,0,1,385.81,69a39.06,39.06,0,0,0-14-2.94,62.08,62.08,0,0,0-10.54,1,77.78,77.78,0,0,0-23.54,8A95.45,95.45,0,0,0,315.68,91.2q-10.55,10.18-17.53,26.6a109.65,109.65,0,0,0-8.21,36.54v16.43a24.83,24.83,0,0,0,2.45,11.28,20.12,20.12,0,0,0,5.52,7.23,25.44,25.44,0,0,1,5.27,5.4,9.33,9.33,0,0,1,2,6.25q-.74,9.31-41.93,9.32c-2.94,0-6.25-.09-9.93-.25s-8.22-.53-13.61-1.1a56.86,56.86,0,0,1-13.73-3c-3.76-1.38-5.81-3.06-6.13-5a8,8,0,0,1,1.84-6.25,30.93,30.93,0,0,1,5.39-5.52,24.29,24.29,0,0,0,5.76-7.36,22.47,22.47,0,0,0,2.7-11V146q0-21.57-8.33-23.29a9.6,9.6,0,0,1-6.5-3.56,5.35,5.35,0,0,1-.62-5.88c1-2,3.11-3.56,6.38-4.54a221,221,0,0,0,23.78-9,112.88,112.88,0,0,0,18.15-11.15q4.65-3.19,7.85-3.19,7.35,0,11,19.12Q299,77.11,324.75,57.36T389,34.93c1.37-.1,2.71-.14,4-.14M393,.84c-2.05,0-4.18.07-6.32.22-32.35,2.27-60.11,12.15-82.57,29.36a163.26,163.26,0,0,0-23,21.37,39.31,39.31,0,0,0-4.87-.3c-9.09,0-18.17,3.07-27,9.12l-.44.3-.43.32a78.57,78.57,0,0,1-12.53,7.82c-2.81,1.32-8.47,3.65-19.64,7.33C204,80.17,194.52,88,189.45,98.57a39.12,39.12,0,0,0,3.93,40.78h0a41.36,41.36,0,0,0,8.17,8.28v18.75a65.33,65.33,0,0,0-6.94,7.75,41.94,41.94,0,0,0-8.36,32l0,.17,0,.18c1.12,6.74,6.07,23.29,27.88,31.32a89,89,0,0,0,21.9,4.85c6.13.65,11.25,1.07,15.66,1.26s8,.28,11.45.28c16.37,0,28.94-1,38.44-3.14a57.3,57.3,0,0,0,19-7.51A39.31,39.31,0,0,0,339,203.59v-.08a43,43,0,0,0-8.25-28.65,59,59,0,0,0-6.86-7.93V155.45a75.71,75.71,0,0,1,5.51-24.36c2.84-6.69,6.16-11.89,9.87-15.47a62,62,0,0,1,14.19-10.5,43.57,43.57,0,0,1,13.32-4.57l.16,0,.16,0a30,30,0,0,1,4.41-.47,12.78,12.78,0,0,1,2.06.65A84.63,84.63,0,0,0,393,106.09a61,61,0,0,0,8.45.6,51.65,51.65,0,0,0,34.77-13A50.87,50.87,0,0,0,453.84,54c-.16-17.11-8.3-32.1-23-42.25C420.34,4.52,407.61.84,393,.84h0Z"/><path class="cls-1" d="M360.86,228.51c-15.65,0-29.57-3.93-41.37-11.68-15.82-10.37-23.67-25.56-22.72-43.92A46.7,46.7,0,0,1,300.63,156a69.66,69.66,0,0,1,6-11.18c3-4.44,7.5-8.36,13.69-12l.65-.38a35,35,0,0,1-3.83-6.06c-5.89-11.78-4.3-24.76,4.37-35.6l.16-.2c11-13.36,31.28-20.42,62-21.61,2-.08,3.91-.11,5.8-.11,48.26,0,76.9,25.09,80.66,70.67.23,2.21.75,7.92,2.47,29.91l.06.66v.67a8.51,8.51,0,0,0,.65,3.68,10.38,10.38,0,0,0,.91,1.55,42.54,42.54,0,0,1,8.47,8.75,26.26,26.26,0,0,1,5.12,17.46c-.63,7.92-5.36,18.16-24.42,22.29-8.42,1.83-20,2.72-35.42,2.72a46.71,46.71,0,0,1-19.77-4,42,42,0,0,1-9.78-6.22,46.49,46.49,0,0,1-9.36,5.84,52.9,52.9,0,0,1-19.87,5.34C366.38,228.39,363.57,228.51,360.86,228.51Z"/><path class="cls-1" d="M389.48,85.83q59.28,0,63.76,55.27.5,4.67,2.45,29.67a24.83,24.83,0,0,0,2.46,11.28,20.21,20.21,0,0,0,5.51,7.23,25.44,25.44,0,0,1,5.27,5.4,9.34,9.34,0,0,1,2,6.25q-.75,9.31-42.92,9.32a29.62,29.62,0,0,1-12.62-2.46,21.64,21.64,0,0,1-8.09-6,25.87,25.87,0,0,1-4.42-9.2,61,61,0,0,1-2.08-10.54q-.5-4.91-.49-11.28V132.52H400a17,17,0,0,1-4.53,6,49.49,49.49,0,0,1-8.1,5.15,73.89,73.89,0,0,0-8,4.78q-14,9.33-10.78,25.51A21.72,21.72,0,0,0,374,184.62q4.41,5,12.75,5.27,7.11.5,6.13,6.13-1.47,6.87-11.28,11.53a35.85,35.85,0,0,1-13.73,3.68q-3.62.3-7.05.3-18.53,0-32.06-8.89-16.07-10.53-15.08-28.93a30,30,0,0,1,2.45-10.91,52.78,52.78,0,0,1,4.54-8.46c1.55-2.29,4.29-4.57,8.21-6.87s6.95-4,9.08-5.14a71.13,71.13,0,0,1,11.77-4.3q8.58-2.57,11.89-3.43T375,131.29q14-3.43,18.64-10.3a13.22,13.22,0,0,0,1-14.22q-4.17-6.85-12.75-6.87a14.15,14.15,0,0,0-9.69,4.3,29.88,29.88,0,0,0-6.25,9,27.12,27.12,0,0,1-7.11,9.19,20,20,0,0,1-12.26,4.78l-1,0q-9,0-13.2-8.36-4.42-8.83,2.45-17.41,11.52-14,49.53-15.45c1.74-.07,3.46-.1,5.14-.1m0-33.95c-2.1,0-4.27,0-6.43.13-15.84.61-29,2.61-40.21,6.11C328.22,62.68,316.71,70,308.62,79.78l-.16.2-.16.2c-11.24,14-14.43,31.29-9,47.26a48.76,48.76,0,0,0-6.65,7.84,86.65,86.65,0,0,0-7.53,13.87,64,64,0,0,0-5.28,23c-1.23,24.34,9.55,45.25,30.37,58.92,14.61,9.59,31.66,14.45,50.68,14.45,3.14,0,6.39-.14,9.65-.41a69.59,69.59,0,0,0,26-7c.6-.28,1.19-.58,1.77-.87.91.48,1.85.94,2.81,1.39a63.55,63.55,0,0,0,26.91,5.6c16.65,0,29.41-1,39-3.1a58.44,58.44,0,0,0,19-7.36c10.92-6.88,17.74-17.86,18.71-30.13v-.1a43,43,0,0,0-8.24-28.64,59,59,0,0,0-7.08-8.14c-1.59-20.3-2.12-26.24-2.38-28.76-2.29-27.32-12.29-48.84-29.74-64-16.93-14.68-39.75-22.12-67.82-22.12Z"/><path class="cls-1" d="M545.19,228.44c-23.51,0-43.92-7.21-60.65-21.45-17.55-14.92-26.45-34.2-26.45-57.31,0-22.41,8.24-41.21,24.48-55.88,15.5-14,34.86-21.67,57.57-22.86,2.81-.16,5.67-.24,8.42-.24a112,112,0,0,1,27.54,3.19c11.57,3,20.47,7.1,27.23,12.69a69.77,69.77,0,0,1,14,15,39.83,39.83,0,0,1,6.75,17.61,37.7,37.7,0,0,1-4.77,23.91,24.92,24.92,0,0,1,5.41,4.53,22.76,22.76,0,0,1,5,21.77c-4.85,17.82-15.44,32.37-31.49,43.24C582.76,223.13,564.91,228.44,545.19,228.44Z"/><path class="cls-1" d="M548.56,87.67a94.84,94.84,0,0,1,23.36,2.67q13.49,3.43,20.59,9.32a53.6,53.6,0,0,1,10.67,11.28,23.11,23.11,0,0,1,4.05,10q1.21,11-6.13,17.9-7.11,6.63-19.69,6.63h-.91q-12.27-.24-17.9-6.62A27.58,27.58,0,0,1,556,123a40,40,0,0,1-.12-8.33,67.87,67.87,0,0,0,.24-8,30.25,30.25,0,0,0-.86-6.62,6.3,6.3,0,0,0-3.31-4.17,8.79,8.79,0,0,0-4.1-.87,16.73,16.73,0,0,0-2.88.26q-9.08,1.47-12.88,11.89A51.94,51.94,0,0,0,529,128.59q1.22,21.35,14.22,35.8,12,13.35,27.08,13.34c.85,0,1.72,0,2.59-.1q17.65-1,28.69-18.14a5.57,5.57,0,0,1,5.15-2.94,7,7,0,0,1,5.39,2.45,5.86,5.86,0,0,1,1.23,5.88q-5.65,20.85-24.65,33.72t-43.52,12.87q-29.18,0-49.65-17.41t-20.48-44.38q0-26.24,18.88-43.28T541,87.89c2.58-.14,5.09-.22,7.54-.22m0-33.94h0c-3,0-6.2.09-9.38.27-26.66,1.4-49.53,10.55-68,27.2-19.68,17.77-30.08,41.45-30.08,68.48,0,27.92,11.21,52.21,32.43,70.25,19.88,16.91,44,25.49,71.64,25.49,23.18,0,44.23-6.3,62.56-18.72,19.49-13.2,32.38-31,38.33-52.79a40,40,0,0,0-6.66-35.14A57.64,57.64,0,0,0,641,117.32a56.55,56.55,0,0,0-9.43-25,86.35,86.35,0,0,0-17.38-18.77C605.42,66.28,594.34,61,580.3,57.45a129.06,129.06,0,0,0-31.74-3.72Z"/><path class="cls-1" d="M657.49,103.64c-13,0-24.49-3.85-34-11.43-10.51-8.38-16.07-19.46-16.07-32,0-8.65,2.79-21.19,16.08-31.78C633,20.82,644.44,17,657.49,17c12.89,0,24.24,3.85,33.75,11.43,13.29,10.6,16.08,23.13,16.08,31.78,0,12.53-5.49,23.58-15.87,32C682,99.77,670.58,103.64,657.49,103.64Z"/><path class="cls-1" d="M657.49,34q13.49,0,23.17,7.72t9.69,18.51q0,11-9.56,18.76t-23.3,7.72q-13.74,0-23.42-7.72t-9.68-18.76q0-10.78,9.68-18.51T657.49,34m0-33.95c-16.76,0-32.18,5.23-44.59,15.13-14.47,11.54-22.46,27.55-22.46,45.05,0,17.66,8,33.75,22.48,45.3,12.4,9.9,27.81,15.13,44.57,15.13s32.26-5.28,44.62-15.26c14.31-11.56,22.18-27.6,22.18-45.17s-8-33.49-22.46-45A70.28,70.28,0,0,0,657.49,0Z"/><path class="cls-1" d="M660.68,227.22c-3,0-6.34-.09-10.21-.26s-8.56-.58-14.19-1.19a68.65,68.65,0,0,1-17.53-4c-11.92-4.59-15.55-12.36-16.5-18.08l0-.32,0-.33c-1-8,1.91-15.7,8.22-21.8a62.22,62.22,0,0,0,6.11-7.11c.2-.26.73-1,.73-3.13V146a58.06,58.06,0,0,0-.5-8.42,24.2,24.2,0,0,1-11.09-9.16,22.79,22.79,0,0,1-1.8-22c2-4.58,6.48-10.71,16.32-13.85,13.07-4.3,29.39-9.15,48.52-14.43l.39-.1a37,37,0,0,1,9-1.25,24.58,24.58,0,0,1,19,8.5,29.61,29.61,0,0,1,6.72,15.12,93.23,93.23,0,0,1,.92,11.46,111.33,111.33,0,0,1-.36,11.81v47.08a9.62,9.62,0,0,0,.68,4,12.34,12.34,0,0,0,.83,1.5,41.15,41.15,0,0,1,8.17,8.86,26.63,26.63,0,0,1,4.74,17.09c-.51,6.45-4.28,17.84-23.85,22.26C686.78,226.32,675.57,227.22,660.68,227.22Z"/><path class="cls-1" d="M678.09,93.78a7.63,7.63,0,0,1,6.13,2.57A12.92,12.92,0,0,1,687,103a75.82,75.82,0,0,1,.73,9.32,95.57,95.57,0,0,1-.36,10.66v47.82a26,26,0,0,0,2.32,11.28,20,20,0,0,0,5.28,7.23,24.27,24.27,0,0,1,5,5.4,9.64,9.64,0,0,1,1.84,6.25q-.74,9.31-41.19,9.32c-2.78,0-5.93-.09-9.44-.25s-7.89-.53-13.12-1.1a52.46,52.46,0,0,1-13.24-3c-3.6-1.38-5.56-3.06-5.89-5-.32-2.61.74-5.11,3.19-7.48a79.44,79.44,0,0,0,7.85-9.07A21.53,21.53,0,0,0,634.2,171V146q0-21.57-8.09-23.29c-3-.49-5-1.68-6.26-3.56a5.86,5.86,0,0,1-.49-5.88c.9-2,2.9-3.56,6-4.54q19.36-6.37,47.81-14.22a21,21,0,0,1,4.91-.73m0-33.95A53.7,53.7,0,0,0,665,61.58l-.4.1-.4.11c-19.36,5.34-35.92,10.27-49.24,14.65-12.35,4-21.8,12.19-26.63,23.18a40,40,0,0,0,3.16,38.1,40.42,40.42,0,0,0,8.81,9.67v19.87c-.76.88-1.31,1.44-1.64,1.77-10.12,9.79-15,22.95-13.29,36.15l.08.65.11.66c1.1,6.64,6,23,27.16,31.14a85.29,85.29,0,0,0,21.77,5c6,.66,10.95,1.07,15.21,1.27s7.76.28,11,.28c16.39,0,28.47-1,38-3.16a56.92,56.92,0,0,0,18.94-7.63,39.34,39.34,0,0,0,18.08-29.8v-.12a43.46,43.46,0,0,0-7.58-27.85l0,0,0,0a58.65,58.65,0,0,0-6.74-8.17v-43a126,126,0,0,0,.36-12.86,107.06,107.06,0,0,0-1.11-13.6A47,47,0,0,0,710,74.26a41.34,41.34,0,0,0-31.91-14.43Z"/><path class="cls-1" d="M758.32,228.51c-15.64,0-29.58-3.92-41.44-11.64-16-10.4-23.87-25.63-22.89-44.07v-.11a48.7,48.7,0,0,1,6.48-21.93A56,56,0,0,1,712,136.55a43.53,43.53,0,0,1,6.16-4.37,35.44,35.44,0,0,1-3.6-5.64c-6.12-11.91-4.55-24.93,4.33-35.71,11.2-13.53,31.46-20.67,62-21.86,2-.08,3.93-.11,5.82-.11,48.48,0,77.21,25.17,80.91,70.87l0,.39c.15,2.49.34,5.13.58,7.83s.5,5.82.75,9c.23,3,.59,7.09,1.08,12.25l.07.79v.8a8.35,8.35,0,0,0,.66,3.68,10.38,10.38,0,0,0,.91,1.55,42.29,42.29,0,0,1,8.47,8.75,26.26,26.26,0,0,1,5.12,17.46c-.63,7.91-5.37,18.16-24.42,22.29-8.42,1.83-20,2.72-35.42,2.72a46.75,46.75,0,0,1-19.78-4,41.63,41.63,0,0,1-9.92-6.35,47.77,47.77,0,0,1-7.21,4.83l-.19.1a55.71,55.71,0,0,1-21.44,6.36Q762.46,228.51,758.32,228.51Z"/><path class="cls-1" d="M786.72,85.83q59.52,0,64,55.27c.16,2.78.37,5.56.61,8.34s.49,5.72.74,8.82.61,7.28,1.1,12.51a25,25,0,0,0,2.45,11.28,20.12,20.12,0,0,0,5.52,7.23,25.44,25.44,0,0,1,5.27,5.4,9.33,9.33,0,0,1,2,6.25q-.74,9.31-42.91,9.32a29.7,29.7,0,0,1-12.63-2.46,21.81,21.81,0,0,1-8.09-6,26,26,0,0,1-4.41-9.2,61.33,61.33,0,0,1-2.09-10.42c-.32-3.19-.49-6.9-.49-11.16l-.49-38.49a14.67,14.67,0,0,1-4.29,6,49.34,49.34,0,0,1-8.09,5.15,72.9,72.9,0,0,0-8,4.78q-14,9.33-10.79,25.75a21.69,21.69,0,0,0,5.4,10.67q4.41,5,12.75,5.27,6.38.24,5.88,5.15-.5,6.38-9.81,11.52a38.58,38.58,0,0,1-15,4.42q-3.61.3-7.06.3-18.52,0-32.17-8.89Q710,192.11,710.94,173.71a31.67,31.67,0,0,1,4.17-14.34,38.81,38.81,0,0,1,8-9.93q4.29-3.69,13.73-7.36t15-5.27q5.52-1.59,17.78-4.54l2.94-.73q14-3.43,18.76-10.42t.85-14.35a14.26,14.26,0,0,0-12.75-6.87,14,14,0,0,0-8.09,2.95,22.56,22.56,0,0,0-5.64,6.5q-2.21,3.8-4.66,7.72a23.79,23.79,0,0,1-6.62,6.86,18.66,18.66,0,0,1-10.29,3.19l-1,0q-9,0-13.32-8.36Q725.16,110,732,101.62q11.78-14.22,49.53-15.69c1.75-.07,3.47-.1,5.16-.1m0-33.95c-2.11,0-4.28,0-6.45.13-35.63,1.39-60,10.53-74.39,28l0,0,0,0c-11.6,14.09-14.82,31.48-9.14,47.69a76.64,76.64,0,0,0-10.83,14.42,65.42,65.42,0,0,0-8.79,29.52v.23c-1.31,24.47,9.54,45.5,30.57,59.19,14.66,9.55,31.72,14.39,50.7,14.39,3.24,0,6.58-.15,9.93-.43h.2a72.65,72.65,0,0,0,27.15-7.89c1,.5,1.94,1,2.94,1.45a63.52,63.52,0,0,0,26.91,5.6c16.64,0,29.4-1,39-3.1a58.53,58.53,0,0,0,19-7.36c10.92-6.88,17.74-17.87,18.7-30.14v-.09A43,43,0,0,0,894,174.85a60.49,60.49,0,0,0-7.09-8.15c-.43-4.63-.76-8.36-1-11.1-.25-3.13-.51-6.2-.77-9.14-.22-2.58-.4-5-.53-7.31l0-.4,0-.39c-2.23-27.53-12.28-49.2-29.88-64.4-16.95-14.65-39.81-22.08-67.94-22.08Z"/><path class="cls-1" d="M938.24,229.74c-18.3,0-34.28-2.82-47.52-8.38-17.65-7.42-28-18.08-30.64-31.7a33.28,33.28,0,0,1,5.13-26.73A34.1,34.1,0,0,1,876,153a49.2,49.2,0,0,1-6.76-11.72A45.46,45.46,0,0,1,866.58,116c1.93-11.85,9.11-28,32.26-37.64,13.55-5.66,29.74-8.53,48.14-8.53,2.14,0,4.35,0,6.56.12,18.92.58,33.67,4,45,10.4,14,7.89,21.56,17.88,22.55,29.67a29,29,0,0,1-8.88,23.64c15.65,13.11,19.11,27.58,18.74,38.6-.36,13.09-5.72,31.32-29.13,44-15.48,8.36-35.17,12.88-58.55,13.44-1.66,0-3.38.07-5.06.07Z"/><path class="cls-1" d="M947,86.8q2.94,0,6,.11,24,.74,37.27,8.21t14,16.31a12,12,0,0,1-4,10.3q-3.87,3.54-10.46,3.54c-.78,0-1.58,0-2.42-.11a18.49,18.49,0,0,1-8.58-2.94,22,22,0,0,1-5.27-4.54,44.23,44.23,0,0,1-3.92-6.74q-2.34-4.65-2.82-5.4-5.76-10.29-17.84-10.3h-.55q-7.6.5-10.67,3.43a8.72,8.72,0,0,0-3.06,6.37q0,7.61,11.27,12.75.74.49,17,8.1t22.92,11q28.94,14,28.2,34.82-.5,18.88-20.23,29.55T942.9,212.7c-1.58,0-3.13.06-4.66.06q-24.15,0-41-7Q878.9,198,876.7,186.22a16.47,16.47,0,0,1,2.45-13.61q4.17-6,13-7.73a22.73,22.73,0,0,1,4.35-.43q13.31,0,21.15,17.35a84.91,84.91,0,0,0,4.9,9.44,26.48,26.48,0,0,0,7.48,7.24,25.6,25.6,0,0,0,12.14,4.41,39.83,39.83,0,0,0,5.69.43,22.33,22.33,0,0,0,11-2.51q6.38-3.56,6.38-9.2a8.4,8.4,0,0,0-1.6-4.78,19.54,19.54,0,0,0-3.68-4.05,44.87,44.87,0,0,0-5.64-3.8c-2.37-1.38-4.25-2.41-5.63-3.06s-3.32-1.47-5.77-2.45-3.84-1.56-4.17-1.72q-.24-.24-9.93-4.78t-14.1-6.5a93.25,93.25,0,0,1-9.8-5.15,87.58,87.58,0,0,1-10.92-8,31.73,31.73,0,0,1-9.07-12.5,28.78,28.78,0,0,1-1.59-16.06Q886,102.11,905.39,94,922.67,86.81,947,86.8m0-33.94h0c-20.66,0-39.05,3.31-54.68,9.84-23.66,9.88-38.73,27.81-42.46,50.49a62.26,62.26,0,0,0,3.67,34.55c.23.56.46,1.11.71,1.66-1.12,1.32-2.1,2.62-3,3.86a50.48,50.48,0,0,0-7.8,39.84c2.7,13.51,12,31.86,40.69,43.91,15.33,6.43,33.53,9.7,54.09,9.7,1.8,0,3.66,0,5.51-.08,26-.62,48.32-5.82,66.17-15.47,23.82-12.87,37.32-33.59,38-58.36a61.94,61.94,0,0,0-13.84-41.05,46.12,46.12,0,0,0,3.94-23v-.13c-1-12.19-7.24-29.55-31.1-43-13.81-7.8-31.1-11.91-52.87-12.59-2.38-.08-4.77-.12-7.08-.12Z"/><path class="cls-2" d="M170.28,127.61q-6.39,0-14.35.49a103.78,103.78,0,0,0-17.65,2.82q-9.69,2.34-10.42,6a7.5,7.5,0,0,0,2,6.13,33.08,33.08,0,0,0,5.76,5.4,23.86,23.86,0,0,1,6.13,7.23,21.09,21.09,0,0,1,2.82,10.91L145,172a22,22,0,0,1-1.71,10.66q-2.22,5.28-7.61,5.27a16.46,16.46,0,0,1-7.35-2q-15-8.82-25.14-30.28T92.79,106.28q0-20.84,7.61-33t18.88-14.1q13.47-2.45,21.45,4.91t7.72,23.54q0,24.76,27,26.23,8.82.25,17.9-6.37t8.33-19.86a27.31,27.31,0,0,0-2.82-9.93q-2.57-5.52-9-12a71.07,71.07,0,0,0-15.32-11.65q-9-5.14-23.91-8.09a126.14,126.14,0,0,0-32.86-1.72q-35.55,2-59.7,25.38T34,128.59q0,37.28,25.86,60.81t63.39,24q41.43.73,65.47-13.48,8.09-4.65,8.58-14.47v-15.2a29.75,29.75,0,0,1,2.21-11.65,30.43,30.43,0,0,1,4.9-8.34,41.92,41.92,0,0,0,4.78-6.62,11.56,11.56,0,0,0,1.84-6.74Q210.25,127.62,170.28,127.61Z"/><path class="cls-2" d="M463.66,189.28a20.34,20.34,0,0,1-5.52-7.23,25,25,0,0,1-2.45-11.28q-2-25-2.45-29.67-4.67-57.61-68.9-55.17-38,1.47-49.53,15.45-6.87,8.58-2.45,17.41t14.22,8.33a20,20,0,0,0,12.26-4.78,27.12,27.12,0,0,0,7.11-9.19,29.88,29.88,0,0,1,6.25-9,14.1,14.1,0,0,1,9.69-4.29q8.58,0,12.75,6.86a13.22,13.22,0,0,1-1,14.22Q389,127.86,375,131.29q-10,2.46-13.36,3.31T349.76,138a71.86,71.86,0,0,0-11.77,4.3q-3.18,1.71-9.07,5.15t-8.21,6.86a52.78,52.78,0,0,0-4.54,8.46,30,30,0,0,0-2.45,10.91q-1,18.39,15.08,28.94t39.11,8.58a35.85,35.85,0,0,0,13.73-3.68q9.81-4.65,11.28-11.53,1-5.62-6.13-6.13-8.34-.24-12.75-5.27A21.72,21.72,0,0,1,368.65,174q-3.19-16.19,10.78-25.5a73.66,73.66,0,0,1,8-4.79,49.62,49.62,0,0,0,8.09-5.14,17,17,0,0,0,4.54-6h.25v38.25q0,6.38.49,11.28a61,61,0,0,0,2.08,10.54,26,26,0,0,0,4.41,9.2,21.89,21.89,0,0,0,8.1,6A29.78,29.78,0,0,0,428,210.25q42.18,0,42.91-9.32a9.28,9.28,0,0,0-2-6.25A25.44,25.44,0,0,0,463.66,189.28Z"/><path class="cls-2" d="M297.9,189.28a20.21,20.21,0,0,1-5.51-7.23,24.83,24.83,0,0,1-2.45-11.28V154.34a109.54,109.54,0,0,1,8.21-36.53q7-16.43,17.53-26.61A95.53,95.53,0,0,1,337.75,75a77.78,77.78,0,0,1,23.54-8,62.08,62.08,0,0,1,10.54-1,39.06,39.06,0,0,1,14,2.94,52.27,52.27,0,0,0,11.77,3.43q9.81,1.47,16.18-4.17a16.91,16.91,0,0,0,6.13-13.73q0-9.06-8.33-14.83T389,34.93q-38.5,2.7-64.25,22.43t-37.51,47.2q-3.67-19.12-11-19.12c-2.12,0-4.74,1.06-7.84,3.19a112.88,112.88,0,0,1-18.15,11.15,221,221,0,0,1-23.78,9c-3.27,1-5.4,2.5-6.38,4.54a5.35,5.35,0,0,0,.62,5.88,9.56,9.56,0,0,0,6.49,3.56q8.34,1.71,8.34,23.29v24.77a22.44,22.44,0,0,1-2.7,11,24.29,24.29,0,0,1-5.76,7.36,30.93,30.93,0,0,0-5.39,5.52,8,8,0,0,0-1.84,6.25c.32,2,2.37,3.64,6.13,5a57.27,57.27,0,0,0,13.73,2.94q8.09.85,13.61,1.1c3.68.16,7,.25,9.93.25q41.19,0,41.93-9.32a9.33,9.33,0,0,0-2-6.25A25.25,25.25,0,0,0,297.9,189.28Z"/><path class="cls-2" d="M606.74,156.55a5.57,5.57,0,0,0-5.15,2.94q-11,17.16-28.69,18.15-16.68,1.22-29.67-13.25T529,128.59a51.78,51.78,0,0,1,3.06-21.45q3.79-10.42,12.87-11.89,4.42-.73,7,.61a6.3,6.3,0,0,1,3.31,4.17,30.25,30.25,0,0,1,.86,6.62,67.81,67.81,0,0,1-.24,8A40,40,0,0,0,556,123a27.58,27.58,0,0,0,6.62,15.94q5.64,6.39,17.9,6.62,13.25.26,20.6-6.62t6.13-17.9a23.11,23.11,0,0,0-4.05-10,53.6,53.6,0,0,0-10.67-11.28q-7.11-5.88-20.59-9.32T541,87.89q-28.2,1.47-47.08,18.51t-18.88,43.28q0,27,20.48,44.38t49.65,17.41q24.51,0,43.52-12.87t24.65-33.72a5.86,5.86,0,0,0-1.23-5.88A7,7,0,0,0,606.74,156.55Z"/><path class="cls-2" d="M634.07,78.94q9.69,7.73,23.42,7.73t23.29-7.73q9.57-7.72,9.57-18.76,0-10.78-9.69-18.51T657.49,34q-13.74,0-23.42,7.72t-9.68,18.51Q624.39,71.22,634.07,78.94Z"/><path class="cls-2" d="M695,189.28a19.93,19.93,0,0,1-5.28-7.23,26,26,0,0,1-2.33-11.28V123a93.18,93.18,0,0,0,.37-10.66A75.82,75.82,0,0,0,687,103a12.92,12.92,0,0,0-2.82-6.62,7.63,7.63,0,0,0-6.13-2.57,21,21,0,0,0-4.91.73q-28.44,7.86-47.81,14.22c-3.11,1-5.11,2.5-6,4.54a5.85,5.85,0,0,0,.49,5.88c1.23,1.89,3.31,3.07,6.25,3.56q8.1,1.71,8.1,23.29v25A21.53,21.53,0,0,1,630,184.38a78.58,78.58,0,0,1-7.85,9.07c-2.45,2.37-3.52,4.87-3.19,7.48q.5,2.94,5.89,5a52.93,52.93,0,0,0,13.24,2.94q7.85.85,13.12,1.1c3.51.16,6.66.25,9.44.25q40.46,0,41.19-9.32a9.64,9.64,0,0,0-1.84-6.25A24.27,24.27,0,0,0,695,189.28Z"/><path class="cls-2" d="M861.13,189.28a20.12,20.12,0,0,1-5.52-7.23,25,25,0,0,1-2.45-11.28q-.74-7.85-1.1-12.51c-.25-3.1-.49-6-.74-8.82s-.45-5.56-.61-8.34Q846,83.49,781.56,85.93,743.79,87.4,732,101.62q-6.87,8.34-2.33,17.17T744,127.12a18.74,18.74,0,0,0,10.3-3.18,23.94,23.94,0,0,0,6.62-6.87q2.46-3.91,4.66-7.72a22.56,22.56,0,0,1,5.64-6.5,13.92,13.92,0,0,1,8.09-2.94,14.26,14.26,0,0,1,12.75,6.86q3.93,7.37-.85,14.35t-18.76,10.42l-2.94.73q-12.27,2.94-17.78,4.54t-15,5.27q-9.43,3.67-13.73,7.36a38.81,38.81,0,0,0-8,9.93,31.7,31.7,0,0,0-4.17,14.34q-1,18.39,15.2,28.94t39.24,8.58a38.58,38.58,0,0,0,15-4.42q9.31-5.15,9.81-11.52.5-4.9-5.88-5.15-8.34-.24-12.75-5.27a21.69,21.69,0,0,1-5.4-10.67q-3.18-16.42,10.79-25.74a72.67,72.67,0,0,1,8-4.79,50.07,50.07,0,0,0,8.09-5.14,14.77,14.77,0,0,0,4.29-6l.49,38.49a110,110,0,0,0,.49,11.16,61.33,61.33,0,0,0,2.09,10.42,26,26,0,0,0,4.41,9.2,21.93,21.93,0,0,0,8.09,6,29.86,29.86,0,0,0,12.63,2.45q42.18,0,42.91-9.32a9.33,9.33,0,0,0-2-6.25A25.44,25.44,0,0,0,861.13,189.28Z"/><path class="cls-2" d="M985.81,136.93q-6.62-3.44-22.92-11t-17-8.09q-11.28-5.16-11.28-12.75a8.74,8.74,0,0,1,3.07-6.38q3.06-2.94,10.67-3.43,12.5-.24,18.39,10.3.48.74,2.82,5.39a43.4,43.4,0,0,0,3.92,6.74,22,22,0,0,0,5.27,4.54,18.49,18.49,0,0,0,8.58,2.94q8.34.74,12.88-3.43a12,12,0,0,0,4-10.3q-.74-8.82-14-16.31T953,86.91q-28.19-1-47.56,7.11t-22.07,24.77a28.78,28.78,0,0,0,1.59,16.06,31.66,31.66,0,0,0,9.07,12.5,87.58,87.58,0,0,0,10.92,8,93.25,93.25,0,0,0,9.8,5.15q4.42,2,14.1,6.5t9.93,4.78c.33.16,1.72.74,4.17,1.72s4.37,1.8,5.76,2.45,3.27,1.68,5.64,3.06a44.87,44.87,0,0,1,5.64,3.8,19.54,19.54,0,0,1,3.68,4.05,8.4,8.4,0,0,1,1.6,4.78q0,5.64-6.38,9.2t-16.67,2.08A25.6,25.6,0,0,1,930,198.48a26.48,26.48,0,0,1-7.48-7.24,84.91,84.91,0,0,1-4.9-9.44q-9.07-20.1-25.5-16.92-8.83,1.73-13,7.73a16.47,16.47,0,0,0-2.45,13.61q2.2,11.76,20.59,19.49t45.61,7Q974,212,993.78,201.3T1014,171.75Q1014.75,150.92,985.81,136.93Z"/><path class="cls-1" d="M193,455.41c-2.22,0-4.76-.06-7.56-.19s-6.26-.43-10.28-.89a49.36,49.36,0,0,1-12.62-3c-9.14-3.61-11.46-9.91-12-13.34l0-.24,0-.25c-.43-3.41-.2-10,6.17-16.22a53.73,53.73,0,0,0,4.81-5.48,3.2,3.2,0,0,0,.53-2.18V355.71c-.07-1.24-.17-2.21-.27-2.94a18.8,18.8,0,0,1-8.26-6.3,16.73,16.73,0,0,1-1.75-17.16c1.57-3.4,5-7.9,12.33-10.16,7.68-2.52,13.51-4.61,17.33-6.22a160.6,160.6,0,0,0,14.62-7.36,23,23,0,0,1,11.93-3.69,16.15,16.15,0,0,1,12.65,6,46.29,46.29,0,0,1,14-3.4l.22,0c1.1-.08,2.21-.11,3.29-.11,12.9,0,24.32,5.29,33.95,15.73,10,10.83,15,25.1,15,42.43,0,17.16-5.07,31.21-15,41.74-10.17,10.73-22.39,16.17-36.32,16.17a33.44,33.44,0,0,1-6.1-.56,30.89,30.89,0,0,1,3.59,4.16,19.36,19.36,0,0,1,3.78,12.9c-.46,5.85-4,13.41-17.94,16.49C212.74,454.75,204.25,455.41,193,455.41Z"/><path class="cls-1" d="M207.84,314.44q5.61,0,5.62,14.51,7.8-10.71,22.13-12c.81-.06,1.61-.09,2.41-.09q13.92,0,24.7,11.69,11.7,12.71,11.7,33.92,0,20.87-11.61,33.11t-27.2,12.24a20.77,20.77,0,0,1-10-2.54,30.41,30.41,0,0,1-7.07-4.9,64.36,64.36,0,0,1-5.44-6.35v19.59a18.42,18.42,0,0,0,1.81,8.35,15,15,0,0,0,4.08,5.35,18.9,18.9,0,0,1,3.9,4,6.87,6.87,0,0,1,1.45,4.62q-.54,6.9-31.38,6.9c-2.06,0-4.38-.07-7-.18s-5.75-.4-9.43-.82a37.67,37.67,0,0,1-9.44-2.18c-2.6-1-4-2.26-4.26-3.72-.24-1.93.57-3.8,2.45-5.62a65.89,65.89,0,0,0,6-6.8,15.66,15.66,0,0,0,3.17-9.89V355.43q-.54-12.69-6.17-13.79a7.06,7.06,0,0,1-4.8-2.63,4.1,4.1,0,0,1-.46-4.44q1.09-2.35,4.72-3.45,12.15-4,18.41-6.62a171.13,171.13,0,0,0,16.05-8.07,11.3,11.3,0,0,1,5.63-2m22.25,76.91a6.07,6.07,0,0,0,1.51-.19q5.07-1.26,6.07-10.16t-2.08-20.31q-2.91-11.79-7.8-19.05-4.17-6.17-8.47-6.17a6,6,0,0,0-1.51.19q-5.09,1.27-6.07,10.16t2.08,20.31q2.9,11.79,7.8,19.05,4.17,6.17,8.47,6.17m-22.25-102a35.52,35.52,0,0,0-18.18,5.35,144.33,144.33,0,0,1-13.22,6.67c-2.42,1-7.2,2.85-16.29,5.84S144,316,140.24,324a29.14,29.14,0,0,0,3,29.89h0a30.86,30.86,0,0,0,6.07,6.17v50.6c-.64.73-1.15,1.25-1.51,1.61-7.52,7.27-11.13,17-9.9,26.8l.06.49.08.49c.81,4.87,4.36,16.85,19.8,22.95a61.85,61.85,0,0,0,15.79,3.78c4.31.49,8,.8,11.14.95s5.73.21,8.15.21c12.21,0,21.58-.76,28.65-2.31a42.7,42.7,0,0,0,14-5.5,29,29,0,0,0,13.71-22.22v-.08a31.15,31.15,0,0,0-.17-6.41A62.72,62.72,0,0,0,281,412.89c12.27-13,18.49-29.91,18.49-50.39s-6.17-37.72-18.34-50.93c-11.93-12.95-26.86-19.79-43.17-19.79-1.38,0-2.79.05-4.18.15h-.23l-.22,0a62.82,62.82,0,0,0-10.19,1.75,28.62,28.62,0,0,0-15.34-4.38Z"/><path class="cls-1" d="M336.62,420.41c-18,0-33.57-5.21-46.33-15.48-13.39-10.76-20.46-25.44-20.46-42.43s7.07-31.66,20.46-42.43c12.76-10.26,28.35-15.47,46.33-15.47s33.41,5.24,46.23,15.57C396.3,331,403.4,345.64,403.4,362.5s-7.1,31.51-20.54,42.34C370,415.17,354.48,420.41,336.62,420.41Z"/><path class="cls-1" d="M336.62,317.16q22.49,0,38.36,12.78t15.87,32.56q0,19.78-15.87,32.56t-38.36,12.79q-22.68,0-38.46-12.7T282.38,362.5q0-20,15.78-32.65t38.46-12.69m8.09,79.52a8.14,8.14,0,0,0,2.06-.26q11.07-2.54,1.82-37.18-8-30.92-19.31-30.91a9,9,0,0,0-2.1.25q-10.69,2.55-2,37.37,3.63,14.88,9.34,23.49,4.8,7.24,10.18,7.24m-8.09-104.63c-20.92,0-39.15,6.13-54.2,18.24-16.45,13.24-25.15,31.29-25.15,52.21s8.7,39,25.15,52.22c15,12.1,33.28,18.24,54.2,18.24s39-6.17,54.11-18.34C407.24,401.32,416,383.3,416,362.5s-8.72-38.81-25.23-52.11c-15.11-12.17-33.32-18.34-54.11-18.34Z"/><path class="cls-1" d="M426.4,419.5c-2.35,0-4.93-.07-7.89-.2s-6.55-.42-10.84-.87a54,54,0,0,1-13.19-2.89c-9.1-3.35-11.86-9.16-12.57-13.43l0-.14a18.55,18.55,0,0,1,3.77-14.14,33.29,33.29,0,0,1,6.26-6.29,8.75,8.75,0,0,0,1-1.51,4.12,4.12,0,0,0,.44-2.11v-18.5a41,41,0,0,0-.37-6.07,19.32,19.32,0,0,1-8.15-6.34,16.55,16.55,0,0,1-1.68-17.23c1.59-3.3,5-7.67,12.26-9.9a153.76,153.76,0,0,0,16-6,72.32,72.32,0,0,0,11.36-7l.32-.23c4.48-3.06,8.69-4.55,12.89-4.55a17.38,17.38,0,0,1,13.28,6.08,45,45,0,0,1,26.81-8.44c9.93,0,18.61,2.8,25.79,8.32a34.23,34.23,0,0,1,13.33,23.73,32.16,32.16,0,0,1-6.38,23.84c-3.89,5.21-11.25,11.6-24.21,12.54-1.23.09-2.43.13-3.58.13-8.59,0-15.67-2.39-21-7.12q-.63-.56-1.2-1.11c-.07,1.18-.1,2.37-.08,3.59v14.3a5.86,5.86,0,0,0,.43,2.52,8,8,0,0,0,.68,1.14,31.12,31.12,0,0,1,6.31,6.51A19.43,19.43,0,0,1,469.94,401c-.38,4.78-3.19,13.23-17.83,16.48C446,418.84,437.58,419.5,426.4,419.5Z"/><path class="cls-1" d="M476.1,312.26q10.69,0,18.14,5.71a21.56,21.56,0,0,1,8.52,15.33,19.45,19.45,0,0,1-4,14.78q-5.07,6.81-15,7.53c-.92.07-1.81.1-2.67.1q-8.21,0-12.75-4a15.44,15.44,0,0,1-5.44-11.7q-.18-5.25,5.8-12,2.73-2.71,1.09-3.26a13,13,0,0,0-1.63-.37c-.33,0-.65,0-1,0q-8.46,0-14.63,12a57.51,57.51,0,0,0-6.35,27.39v14.15a17.79,17.79,0,0,0,1.82,8.25,14.84,14.84,0,0,0,4.08,5.26,18.9,18.9,0,0,1,3.9,4,7,7,0,0,1,1.45,4.63q-.56,6.9-31,6.89c-2.18,0-4.62-.06-7.35-.18S413,406.37,409,406a42.73,42.73,0,0,1-10.16-2.18q-4.17-1.54-4.53-3.72a6,6,0,0,1,1.36-4.63,20.38,20.38,0,0,1,4-4,17.73,17.73,0,0,0,6.25-13.51v-18.5q0-16-6.16-17.05a7.79,7.79,0,0,1-4.81-2.81,4,4,0,0,1-.45-4.36q1.08-2.26,4.71-3.35a164.18,164.18,0,0,0,17.6-6.62A83.77,83.77,0,0,0,430.21,317q3.45-2.36,5.8-2.36,3.45,0,5.17,4a64.93,64.93,0,0,1,3.36,12,11.44,11.44,0,0,0,.36,1.81q10.89-20.13,31.2-20.13m0-25.11a58.08,58.08,0,0,0-26,5.88A29.9,29.9,0,0,0,436,289.51c-6.71,0-13.44,2.27-20,6.74l-.32.22-.32.24a58.76,58.76,0,0,1-9.27,5.79,139.44,139.44,0,0,1-14.53,5.42c-9,2.8-16,8.62-19.75,16.41a28.94,28.94,0,0,0,2.9,30.16,31.7,31.7,0,0,0,6.05,6.19v13.86a46.1,46.1,0,0,0-5.12,5.69,31,31,0,0,0-6.19,23.67l0,.13,0,.13c.83,5,4.5,17.22,20.63,23.17a66.4,66.4,0,0,0,16.19,3.59c4.54.48,8.33.78,11.59.93s5.95.2,8.47.2c12.11,0,21.41-.76,28.44-2.32a42.57,42.57,0,0,0,14-5.55A29.09,29.09,0,0,0,482.45,402V402a31.76,31.76,0,0,0-6.11-21.18.91.91,0,0,0-.11-.16c1.54.14,3.14.21,4.81.21,1.45,0,2.95-.05,4.46-.16,17.72-1.29,27.93-10.25,33.38-17.55a44.47,44.47,0,0,0,8.79-32.91,46.51,46.51,0,0,0-18.14-32.14c-9.43-7.24-20.68-10.91-33.44-10.91Z"/><path class="cls-2" d="M235.27,318.06q-14.33,1.28-22.13,12,0-14.52-5.62-14.52a11.33,11.33,0,0,0-5.62,2,171.13,171.13,0,0,1-16.05,8.07q-6.27,2.64-18.41,6.62c-2.43.73-4,1.88-4.72,3.45a4.08,4.08,0,0,0,.45,4.44,7.12,7.12,0,0,0,4.81,2.63q5.63,1.09,6.17,13.79v58.22a15.61,15.61,0,0,1-3.18,9.89,64.73,64.73,0,0,1-6,6.8c-1.88,1.81-2.7,3.69-2.45,5.62q.36,2.18,4.26,3.72a37.58,37.58,0,0,0,9.43,2.18q5.53.63,9.43.81c2.6.12,4.93.19,7,.19q30.82,0,31.38-6.9a6.93,6.93,0,0,0-1.45-4.62,18.44,18.44,0,0,0-3.9-4,14.89,14.89,0,0,1-4.08-5.35,18.42,18.42,0,0,1-1.82-8.35V395.15a68.48,68.48,0,0,0,5.44,6.35,30.59,30.59,0,0,0,7.08,4.9,20.73,20.73,0,0,0,10,2.54q15.6,0,27.21-12.25t11.61-33.1q0-21.22-11.7-33.92T235.27,318.06Zm2.09,64q-1,8.9-6.08,10.16t-10-6q-4.91-7.25-7.8-19-3.09-11.43-2.09-20.32t6.08-10.15q5.07-1.28,10,6t7.8,19Q238.36,373.21,237.36,382.09Z"/><path class="cls-2" d="M374.66,331q-15.87-12.78-38.36-12.78-22.68,0-38.45,12.69t-15.78,32.65q0,20,15.78,32.65t38.45,12.7q22.49,0,38.36-12.79t15.88-32.56Q390.54,343.82,374.66,331Zm-28.2,66.48q-6.52,1.64-12.24-7T324.87,367q-8.7-34.83,2-37.37,12.69-3.07,21.4,30.66Q357.53,395,346.46,397.51Z"/><path class="cls-2" d="M502.45,334.39a21.61,21.61,0,0,0-8.53-15.33q-7.44-5.71-18.13-5.71-20.32,0-31.2,20.13a10.39,10.39,0,0,1-.36-1.81,64.93,64.93,0,0,0-3.36-12q-1.72-4-5.17-4c-1.57,0-3.51.78-5.8,2.35a84,84,0,0,1-13.43,8.26,166.05,166.05,0,0,1-17.59,6.62q-3.63,1.08-4.72,3.35a4,4,0,0,0,.46,4.36,7.77,7.77,0,0,0,4.8,2.81q6.16,1.08,6.17,17.05V379a17.69,17.69,0,0,1-6.26,13.51,20.94,20.94,0,0,0-4,4,6,6,0,0,0-1.36,4.63q.36,2.17,4.54,3.72A42.19,42.19,0,0,0,408.67,407q6,.64,10.07.82t7.35.18q30.46,0,31-6.89a6.91,6.91,0,0,0-1.45-4.63,18.9,18.9,0,0,0-3.9-4,15.07,15.07,0,0,1-4.08-5.26,17.82,17.82,0,0,1-1.81-8.25V364.86a57.39,57.39,0,0,1,6.35-27.39q6.53-12.69,15.6-12a12,12,0,0,1,1.63.36c1.09.37.72,1.46-1.09,3.27q-6,6.71-5.81,12A15.45,15.45,0,0,0,468,352.8q5.25,4.62,15.41,3.9,10-.72,15.06-7.53A19.54,19.54,0,0,0,502.45,334.39Z"/><path class="cls-1" d="M628.41,418.77a27.08,27.08,0,0,1-15.16-4.52,28.43,28.43,0,0,1-10.14-11.69l-9.85-21.68-8.76-19.27c-3.27-7.22-4.34-9.68-4.8-10.81a18.48,18.48,0,0,0-4.24-5.91c-3.24-3-5.68-5.32-7.44-7.15a19.15,19.15,0,0,1-4.91-17.31l0-.11C566.6,303,590.7,303,602.29,303c20.3,0,35.67,1.79,43,9.57,7.6-9.39,24.56-9.39,31-9.39a54.85,54.85,0,0,1,15.4,2.23c14.27,4.18,14.89,15,14.74,18.17v.15c-.23,3.88-1.79,9.59-7.94,14.71-2.06,1.71-4.67,4-7.78,6.73a16.18,16.18,0,0,0-4.15,5.66l-21.74,51.08a27.72,27.72,0,0,1-10.21,12.25,27.19,27.19,0,0,1-15.31,4.64Zm18.44-71.14c1.66-4.54,2.06-5.64,2.15-5.9.31-.9.52-1.61.66-2.16-.52-.62-1.12-1.28-1.78-2a23.84,23.84,0,0,1-2-2.28l-.45.62a29,29,0,0,0-1.89,2.83,25.62,25.62,0,0,0,.77,2.6Z"/><path class="cls-1" d="M602.29,315.52q32.46,0,34.82,7.26c.49,1.57-.09,3.45-1.72,5.62a38.58,38.58,0,0,0-4,6.53q-1.54,3.27,1.18,10.89l14.51,35.91q3.63-8.16,8.62-21.77t5.17-14.14q2.72-8,.9-10.89a37.37,37.37,0,0,0-4.89-6.07c-2.06-2.12-3-4.14-2.72-6.08q.9-7.08,22.12-7.07a42.1,42.1,0,0,1,11.88,1.72q5.9,1.72,5.72,5.53c-.12,2.06-1.27,4-3.45,5.81s-4.87,4.14-8.07,7A28.83,28.83,0,0,0,675,345.82L653.26,397a15.24,15.24,0,0,1-5.62,6.71,14.78,14.78,0,0,1-8.35,2.54H628.41a14.66,14.66,0,0,1-8.25-2.45,16,16,0,0,1-5.72-6.62l-9.07-19.95q-5.43-12-9.43-20.77t-4.72-10.61A31.08,31.08,0,0,0,584,335.66q-4.53-4.17-6.89-6.62a6.69,6.69,0,0,1-1.64-6.26q1.45-7.25,26.85-7.26m0-25.11c-10.79,0-19.28.88-26,2.69-19.62,5.3-24.37,19.08-25.51,24.76l0,.11,0,.1a31.78,31.78,0,0,0,8.22,28.4c1.92,2,4.54,4.51,8,7.68a5.7,5.7,0,0,1,1.24,1.76c.61,1.44,1.81,4.19,4.85,10.9q3.88,8.56,9.17,20.17l.27.61,3.55,7.79,5.53,12.17.09.21.1.21a40.79,40.79,0,0,0,14.57,16.77,39.92,39.92,0,0,0,22.06,6.59h10.88a40,40,0,0,0,22.27-6.76A40.49,40.49,0,0,0,676.29,407l0-.09,0-.09,21.7-51a3.55,3.55,0,0,1,1-1.27c3-2.67,5.52-4.85,7.48-6.48,7.5-6.25,11.91-14.63,12.44-23.61v-.32c.51-10.85-5.4-25.43-23.73-30.8a67.53,67.53,0,0,0-19-2.73c-9.91,0-17.47.94-23.79,3a38.3,38.3,0,0,0-7.7,3.39,50.51,50.51,0,0,0-12.45-4.19c-7.56-1.58-17.4-2.35-30.06-2.35Z"/><path class="cls-1" d="M747.76,419.5c-17.39,0-32.48-5.34-44.86-15.87-13-11-19.57-25.3-19.57-42.4,0-16.58,6.12-30.51,18.2-41.42,11.55-10.43,25.88-16.09,42.59-16.83,2.13-.1,4.25-.15,6.28-.15,15.34,0,27.23,2.78,36.33,8.5,11.16,7,17.66,16,19.33,26.76v.1a33.24,33.24,0,0,1-2.46,18.86,18.4,18.4,0,0,1,3,2.67,16.86,16.86,0,0,1,3.68,16.1c-3.59,13.19-11.42,23.95-23.29,32A68.61,68.61,0,0,1,747.76,419.5Z"/><path class="cls-1" d="M750.4,315.39q19.19,0,29.65,6.57,12,7.53,13.6,18.05a20.55,20.55,0,0,1-2.27,13.42,23.53,23.53,0,0,1-9.61,9.35,56.22,56.22,0,0,1-13.33,5.07,59.55,59.55,0,0,1-14.15,1.73q-8.16,0-12.7-2.18a32.25,32.25,0,0,0,11.34,11.16A24.65,24.65,0,0,0,765.35,382c.61,0,1.21,0,1.82-.07a26.69,26.69,0,0,0,12.51-4,30.46,30.46,0,0,0,9.8-9.43,4.13,4.13,0,0,1,3.81-2.18,5.17,5.17,0,0,1,4,1.82,4.33,4.33,0,0,1,.91,4.35Q794,387.9,780,397.42a56.07,56.07,0,0,1-32.2,9.52q-21.59,0-36.73-12.88t-15.15-32.83q0-19.39,14.06-32.1t34.74-13.61c2-.09,3.88-.13,5.72-.13m-7.9,46a14,14,0,0,0,11.43-5.72q4.53-5.71,4.35-15.87a27.52,27.52,0,0,0-3.54-13.15q-3.07-5.4-7.74-5.4a8.62,8.62,0,0,0-.87.05q-5.8.54-9,8.52a35.64,35.64,0,0,0-2.63,15.78,46.89,46.89,0,0,0,3.63,15.42,36.84,36.84,0,0,0,4.35.37m7.91-71.14h0c-2.21,0-4.51.05-6.84.16-19.71.87-36.69,7.61-50.46,20.05-14.61,13.2-22.34,30.75-22.34,50.74a66.33,66.33,0,0,0,24,52c14.7,12.51,32.54,18.85,53,18.85,17.15,0,32.72-4.65,46.28-13.84,14.41-9.77,24-22.9,28.35-39a29.58,29.58,0,0,0-4.5-25.43,47.53,47.53,0,0,0,.61-17.35l0-.11,0-.11c-1.54-10-7.14-24.19-25-35.45-11.17-7-25.24-10.43-43-10.43Z"/><path class="cls-1" d="M837.18,418.59c-2.33,0-4.91-.06-7.89-.19s-6.56-.42-10.84-.88a53.62,53.62,0,0,1-13.2-2.89c-9.09-3.34-11.85-9.15-12.56-13.43l0-.14a18.55,18.55,0,0,1,3.77-14.14,33.29,33.29,0,0,1,6.26-6.29,8.75,8.75,0,0,0,1-1.51,4.09,4.09,0,0,0,.44-2.11v-18.5a41,41,0,0,0-.37-6.07,19.39,19.39,0,0,1-8.15-6.33,16.57,16.57,0,0,1-1.68-17.24c1.59-3.3,5-7.67,12.26-9.9a153.76,153.76,0,0,0,16-6,70.84,70.84,0,0,0,11.36-7l.16-.11.16-.11c4.48-3.07,8.69-4.55,12.89-4.55a17.35,17.35,0,0,1,13.28,6.08,45,45,0,0,1,26.81-8.44c9.93,0,18.6,2.79,25.79,8.31A34.26,34.26,0,0,1,926,330.84a32.16,32.16,0,0,1-6.38,23.84c-3.89,5.21-11.25,11.61-24.22,12.55-1.22.08-2.42.13-3.57.13-8.59,0-15.67-2.4-21-7.13q-.63-.54-1.2-1.11c-.07,1.18-.1,2.38-.09,3.59V377a6,6,0,0,0,.42,2.52,7.12,7.12,0,0,0,.69,1.14,31.37,31.37,0,0,1,6.31,6.51,19.43,19.43,0,0,1,3.79,12.91c-.38,4.79-3.2,13.23-17.83,16.48C856.77,417.93,848.36,418.59,837.18,418.59Z"/><path class="cls-1" d="M886.88,311.35q10.7,0,18.14,5.72a21.6,21.6,0,0,1,8.52,15.32,19.48,19.48,0,0,1-4,14.79q-5.07,6.79-15,7.52c-.92.07-1.81.1-2.67.1q-8.21,0-12.75-4a15.44,15.44,0,0,1-5.44-11.7q-.18-5.25,5.8-12,2.73-2.72,1.09-3.26a11.68,11.68,0,0,0-1.63-.36c-.33,0-.65,0-1,0q-8.46,0-14.63,12A57.45,57.45,0,0,0,857,362.87V377a17.86,17.86,0,0,0,1.81,8.26,15.16,15.16,0,0,0,4.09,5.26,18.9,18.9,0,0,1,3.9,4,6.93,6.93,0,0,1,1.45,4.62q-.56,6.9-31,6.9c-2.18,0-4.63-.07-7.35-.19s-6.07-.39-10.06-.81a42.25,42.25,0,0,1-10.16-2.18c-2.78-1-4.29-2.27-4.54-3.72a5.93,5.93,0,0,1,1.37-4.62,20.38,20.38,0,0,1,4-4A17.73,17.73,0,0,0,816.68,377v-18.5q0-16-6.16-17.05a7.79,7.79,0,0,1-4.81-2.81,4,4,0,0,1-.45-4.35q1.08-2.26,4.71-3.36a164.18,164.18,0,0,0,17.6-6.62A83.05,83.05,0,0,0,841,316.07c2.29-1.57,4.23-2.36,5.8-2.36q3.45,0,5.17,4a64.93,64.93,0,0,1,3.36,12,11.89,11.89,0,0,0,.36,1.82q10.89-20.14,31.2-20.14m0-25.11a58.12,58.12,0,0,0-26,5.88,29.83,29.83,0,0,0-14.13-3.52c-6.71,0-13.44,2.27-20,6.74l-.33.23-.32.23a58.83,58.83,0,0,1-9.26,5.79A136.6,136.6,0,0,1,802.36,307c-9,2.8-16,8.62-19.74,16.41a28.93,28.93,0,0,0,2.91,30.17,31,31,0,0,0,6,6.18v13.86a46.1,46.1,0,0,0-5.12,5.69A31,31,0,0,0,780.26,403l0,.13,0,.14c.83,5,4.5,17.22,20.62,23.16a66.6,66.6,0,0,0,16.2,3.59c4.54.48,8.33.78,11.59.93s5.95.21,8.47.21c12.11,0,21.41-.76,28.44-2.32a42.79,42.79,0,0,0,14-5.56,29.05,29.05,0,0,0,13.58-22.15V401a31.91,31.91,0,0,0-6.1-21.17l-.12-.16c1.54.14,3.14.21,4.81.21,1.45,0,2.95-.05,4.46-.16,17.72-1.28,27.93-10.25,33.38-17.55a44.45,44.45,0,0,0,8.79-32.9,46.51,46.51,0,0,0-18.14-32.14c-9.43-7.25-20.68-10.92-33.44-10.92Z"/><path class="cls-3" d="M864.5,419.14a66.35,66.35,0,0,0-16.42,5.52c-4.29,2.09-7.24,3.53-7,4.62.49,2.43,16.22,1.48,27.44-.3,3.55-.56,8.79-1.91,19.27-4.62,13.58-3.51,17-4.87,19.45-8.21,3-4,3.13-8.84,2.89-12q.17-6.17.35-12.34l-5.38-15.22-18.35-.9Z"/><path class="cls-1" d="M902.35,415.62a3.62,3.62,0,0,1-3.47-2.56,17.48,17.48,0,0,0-11.66-11.68,3.62,3.62,0,0,1-.17-6.85,19.54,19.54,0,0,0,11.76-11.94,3.62,3.62,0,0,1,6.83,0,19.89,19.89,0,0,0,12.1,12.08,3.62,3.62,0,0,1,0,6.82,19.92,19.92,0,0,0-12,11.82A3.58,3.58,0,0,1,902.35,415.62Z"/><path class="cls-1" d="M902.23,382.84a.93.93,0,0,1,.88.63,22.62,22.62,0,0,0,13.72,13.69.93.93,0,0,1,0,1.76,22.63,22.63,0,0,0-13.62,13.41.91.91,0,0,1-.86.6.92.92,0,0,1-.9-.66A20.2,20.2,0,0,0,888,398.82a.93.93,0,0,1,0-1.76,22.28,22.28,0,0,0,13.37-13.59.92.92,0,0,1,.88-.63m0-5.37h0a6.32,6.32,0,0,0-6,4.22A16.87,16.87,0,0,1,886.12,392a6.31,6.31,0,0,0,.3,11.94,14.83,14.83,0,0,1,9.89,9.9,6.31,6.31,0,0,0,11.93.37,17.27,17.27,0,0,1,4-6.2,17.09,17.09,0,0,1,6.42-4,6.31,6.31,0,0,0,0-11.88,17.09,17.09,0,0,1-6.42-4,17.41,17.41,0,0,1-4.07-6.42,6.33,6.33,0,0,0-5.93-4.17Z"/><path class="cls-2" d="M688.17,317.43a42.1,42.1,0,0,0-11.88-1.72q-21.21,0-22.12,7.07c-.25,1.94.66,4,2.72,6.08a37.37,37.37,0,0,1,4.89,6.07q1.82,2.91-.9,10.89-.2.54-5.17,14.14t-8.62,21.77l-14.51-35.91q-2.72-7.62-1.18-10.89a38.58,38.58,0,0,1,4-6.53c1.63-2.17,2.21-4,1.72-5.62q-2.36-7.26-34.82-7.26-25.39,0-26.85,7.26a6.69,6.69,0,0,0,1.64,6.26q2.35,2.44,6.89,6.62a31.08,31.08,0,0,1,7.25,10.16q.74,1.81,4.72,10.61t9.43,20.77l9.07,19.95a16.09,16.09,0,0,0,5.72,6.62,14.66,14.66,0,0,0,8.25,2.45h10.88a14.78,14.78,0,0,0,8.35-2.54,15.24,15.24,0,0,0,5.62-6.71L675,345.82a28.7,28.7,0,0,1,7.35-10.07c3.2-2.84,5.9-5.17,8.07-7s3.33-3.75,3.45-5.81Q694.07,319.15,688.17,317.43Z"/><path class="cls-2" d="M793.29,366.31a4.13,4.13,0,0,0-3.81,2.18,30.46,30.46,0,0,1-9.8,9.43,26.69,26.69,0,0,1-12.51,4,24.49,24.49,0,0,1-14.24-3.35,32.25,32.25,0,0,1-11.34-11.16q4.53,2.18,12.7,2.18a59.55,59.55,0,0,0,14.15-1.73,56.22,56.22,0,0,0,13.33-5.07,23.53,23.53,0,0,0,9.61-9.35A20.55,20.55,0,0,0,793.65,340Q792,329.5,780.05,322t-35.37-6.44q-20.68.92-34.74,13.61t-14.06,32.1q0,20,15.15,32.83t36.73,12.88a56.07,56.07,0,0,0,32.2-9.52q14.06-9.53,18.23-24.94a4.33,4.33,0,0,0-.91-4.35A5.17,5.17,0,0,0,793.29,366.31Zm-58.77-20.68a35.64,35.64,0,0,1,2.63-15.78q3.17-8,9-8.52,5.25-.54,8.61,5.35a27.49,27.49,0,0,1,3.54,13.15q.18,10.16-4.35,15.87a14,14,0,0,1-11.43,5.72,36.84,36.84,0,0,1-4.35-.37A46.89,46.89,0,0,1,734.52,345.63Z"/><path class="cls-2" d="M913.54,332.39A21.58,21.58,0,0,0,905,317.07q-7.44-5.71-18.14-5.72-20.31,0-31.2,20.14a11.89,11.89,0,0,1-.36-1.82,64.93,64.93,0,0,0-3.36-12q-1.73-4-5.17-4c-1.57,0-3.51.79-5.8,2.36a83.05,83.05,0,0,1-13.42,8.25,164.18,164.18,0,0,1-17.6,6.62q-3.63,1.1-4.71,3.36a4,4,0,0,0,.45,4.35,7.79,7.79,0,0,0,4.81,2.81q6.16,1.1,6.16,17.05V377a17.73,17.73,0,0,1-6.25,13.52,20.38,20.38,0,0,0-4,4,5.93,5.93,0,0,0-1.37,4.62q.38,2.17,4.54,3.72A42.25,42.25,0,0,0,819.77,405q6,.63,10.06.81t7.35.18q30.47,0,31-6.89a6.93,6.93,0,0,0-1.45-4.62,18.9,18.9,0,0,0-3.9-4,15.16,15.16,0,0,1-4.09-5.26A17.86,17.86,0,0,1,857,377V362.87a57.45,57.45,0,0,1,6.35-27.39q6.53-12.71,15.6-12a11.68,11.68,0,0,1,1.63.36q1.63.54-1.09,3.26-6,6.72-5.8,12a15.44,15.44,0,0,0,5.44,11.7q5.26,4.63,15.42,3.9,10-.72,15-7.52A19.48,19.48,0,0,0,913.54,332.39Z"/><path class="cls-2" d="M903.21,412.33a.93.93,0,0,1-1.76-.06A20.2,20.2,0,0,0,888,398.82a.93.93,0,0,1,0-1.76,22.28,22.28,0,0,0,13.37-13.59.93.93,0,0,1,1.76,0,22.62,22.62,0,0,0,13.72,13.69.93.93,0,0,1,0,1.76,22.63,22.63,0,0,0-13.62,13.41Z"/></g></g></svg>